# Blender v2.77 (sub 0) OBJ File: 'Bed.blend'
# www.blender.org
mtllib BedSheet2.mtl
g BedSheet2
v 0.740511 -0.000000 0.394612
v 0.740511 -0.000000 -0.452624
v -0.781392 -0.000000 0.449796
v -0.781190 0.004134 -0.481444
v -0.204813 -0.000000 0.493266
v 0.759730 -0.000000 -0.118804
v -0.195964 -0.000000 -0.466434
v -0.759730 -0.000000 0.000000
v 0.238326 0.040778 -0.048364
v 0.192250 -0.000000 0.455821
v 0.752049 -0.000000 -0.266694
v -0.529840 -0.000000 -0.468475
v -0.735065 -0.000000 0.279039
v -0.501405 -0.000000 0.459668
v 0.752048 -0.000000 0.082801
v 0.192501 -0.000000 -0.401163
v -0.746791 -0.000000 -0.281776
v -0.105042 0.016029 -0.001009
v 0.379051 0.061003 -0.073966
v 0.189860 0.038800 0.214490
v 0.190555 0.054632 -0.247115
v 0.342978 0.068263 -0.247261
v 0.342978 0.061158 0.162099
v -0.157418 0.017664 0.281776
v -0.155428 0.042792 -0.280166
v 0.457344 -0.000000 0.405632
v 0.740742 -0.000000 -0.341474
v -0.716398 -0.000000 -0.480537
v -0.754489 -0.000000 0.360947
v -0.363305 -0.000000 0.479317
v 0.759730 -0.000000 -0.029406
v -0.019293 -0.000000 -0.436566
v -0.759730 -0.000000 -0.140888
v -0.390891 0.037806 0.000000
v 0.313789 0.056843 -0.062090
v -0.094284 0.001508 0.391326
v 0.238326 0.040778 -0.148506
v -0.022720 -0.000000 0.491154
v 0.759730 -0.000000 -0.194972
v -0.359843 -0.000000 -0.468475
v -0.759730 -0.000000 0.140888
v -0.652655 -0.000000 0.444773
v 0.740742 -0.000000 0.229680
v 0.457344 -0.000000 -0.403709
v -0.741326 -0.000000 -0.400277
v 0.107744 0.016873 -0.025869
v 0.538902 0.041872 -0.100491
v 0.238326 0.040778 0.063566
v -0.091301 0.045141 -0.374592
v 0.269581 0.066745 -0.245875
v 0.521381 0.045408 -0.256446
v 0.379051 0.061003 -0.162927
v 0.255386 0.031952 -0.327853
v 0.269240 0.056382 0.187250
v 0.521381 0.041182 0.111121
v 0.255386 0.009807 0.317354
v 0.379051 0.061003 0.026965
v -0.422683 0.038339 0.281776
v 0.051991 0.014252 0.255956
v -0.395495 0.022935 0.386503
v -0.105042 0.016029 0.139766
v -0.418471 0.060518 -0.281776
v 0.053019 0.038061 -0.256237
v -0.105042 0.016029 -0.140060
v -0.396507 0.038749 -0.386804
v -0.234162 0.040741 -0.386820
v 0.107744 0.016873 -0.140006
v -0.390891 0.037806 -0.140888
v 0.107744 0.016873 0.099503
v -0.240921 0.004759 0.392161
v -0.567371 0.041546 0.373689
v 0.538902 0.041872 -0.007876
v 0.482081 0.004918 0.257832
v 0.058478 0.006122 0.369513
v 0.482081 0.011976 -0.332057
v 0.538902 0.041872 -0.180872
v 0.313789 0.056843 -0.155801
v 0.059192 0.045133 -0.345098
v 0.313789 0.056843 0.043528
v -0.390891 0.037806 0.140888
v -0.598958 0.041318 -0.387328
v -0.091301 0.045141 -0.374592
vt 0.5640 0.8807
vt 0.6220 0.9582
vt 0.6218 1.0000
vt 0.5699 0.9733
vt 0.2257 0.7398
vt 0.3166 0.7416
vt 0.3114 0.9801
vt 0.2205 0.9783
vt 0.2975 0.2861
vt 0.3656 0.2875
vt 0.3556 0.3362
vt 0.2834 0.3348
vt 0.5449 0.4555
vt 0.6022 0.5078
vt 0.6193 0.6222
vt 0.5621 0.5530
vt 0.4261 0.2886
vt 0.4838 0.3182
vt 0.4834 0.3693
vt 0.4202 0.3374
vt 0.4448 0.1439
vt 0.4934 0.1561
vt 0.4856 0.2708
vt 0.4316 0.2466
vt 0.5412 0.1828
vt 0.5869 0.1999
vt 0.5820 0.3707
vt 0.5360 0.3288
vt 0.0832 0.4474
vt 0.2042 0.3130
vt 0.1854 0.3641
vt 0.0672 0.5457
vt 0.1605 0.1755
vt 0.2562 0.1515
vt 0.2214 0.2657
vt 0.1193 0.3209
vt 0.3332 0.1417
vt 0.3930 0.1429
vt 0.3742 0.2454
vt 0.3090 0.2442
vt 0.0733 0.8507
vt 0.1344 0.7586
vt 0.1317 0.9607
vt 0.0786 0.9722
vt 0.0649 0.6403
vt 0.1565 0.4529
vt 0.1373 0.5877
vt 0.0669 0.7399
vt 0.2582 0.4189
vt 0.3391 0.4205
vt 0.3204 0.5575
vt 0.2296 0.5557
vt 0.4075 0.7434
vt 0.4984 0.7627
vt 0.4934 0.9753
vt 0.4023 0.9819
vt 0.4127 0.4219
vt 0.4874 0.4584
vt 0.5003 0.5932
vt 0.4101 0.5592
vt 0.5681 0.6454
vt 0.6186 0.7280
vt 0.6165 0.8377
vt 0.5661 0.7501
vt 0.5621 0.5530
vt 0.0070 0.7182
vt 0.0180 0.8076
vt 0.0000 0.6158
vt 0.0258 0.9054
vt 0.0209 0.9884
vt 0.2767 0.0035
vt 0.3492 0.0000
vt 0.4068 0.0011
vt 0.0647 0.1896
vt 0.0291 0.3600
vt 0.0753 0.0070
vt 0.1818 0.0090
vt 0.0036 0.4983
vt 0.5022 0.0080
vt 0.5503 0.0162
vt 0.6220 0.0178
vt 0.4560 0.0021
vn -0.0995 0.9814 -0.1642
vn -0.1338 0.9813 -0.1386
vn -0.1729 0.9835 -0.0537
vn -0.1903 0.9817 0.0042
vn -0.0085 0.9999 0.0033
vn -0.0130 0.9999 0.0000
vn -0.1020 0.9948 0.0000
vn -0.1062 0.9943 -0.0022
vn -0.1353 0.9907 -0.0170
vn -0.1363 0.9907 0.0000
vn -0.1942 0.9810 0.0000
vn -0.2051 0.9783 -0.0300
vn 0.0263 0.9585 -0.2839
vn 0.0925 0.8574 -0.5063
vn 0.0260 0.8846 -0.4656
vn 0.0752 0.8623 -0.5008
vn -0.1096 0.9911 0.0748
vn -0.0383 0.9951 -0.0908
vn -0.1051 0.9886 0.1079
vn -0.1783 0.9783 0.1057
vn 0.1574 0.9875 0.0033
vn 0.1258 0.9785 -0.1633
vn 0.0523 0.9815 -0.1841
vn 0.0475 0.9984 0.0306
vn 0.0560 0.9593 -0.2767
vn 0.0262 0.9779 -0.2071
vn 0.0754 0.8959 -0.4378
vn 0.0591 0.9196 -0.3885
vn -0.0196 0.9929 0.1175
vn -0.0667 0.9882 0.1380
vn -0.1332 0.9900 0.0459
vn -0.0377 0.9988 0.0317
vn 0.0779 0.9850 0.1540
vn 0.1361 0.9841 0.1139
vn 0.0596 0.9846 0.1642
vn 0.0545 0.9777 0.2027
vn 0.1539 0.9880 0.0120
vn 0.1526 0.9883 0.0000
vn 0.0277 0.9996 0.0000
vn 0.0352 0.9994 0.0058
vn -0.0649 0.9894 0.1296
vn 0.0057 0.9993 0.0376
vn -0.1317 0.9877 -0.0838
vn -0.1425 0.9896 0.0197
vn 0.0315 0.9930 0.1134
vn -0.0576 0.9983 0.0102
vn 0.0612 0.9941 0.0894
vn 0.0589 0.9774 0.2027
vn -0.1042 0.9944 -0.0165
vn -0.0924 0.9957 0.0000
vn 0.0360 0.9993 0.0000
vn 0.0354 0.9994 0.0049
vn -0.0176 0.9978 0.0630
vn -0.0237 0.9996 -0.0162
vn -0.1746 0.9810 0.0849
vn -0.1201 0.9919 0.0421
vn -0.0937 0.9902 0.1036
vn -0.0634 0.9829 0.1727
vn 0.0284 0.9980 0.0556
vn 0.0314 0.9958 0.0864
vn 0.0021 0.9710 -0.2389
vn -0.0027 0.9004 -0.4349
vn 0.0154 0.8987 -0.4382
vn 0.0194 0.9520 -0.3054
vn -0.0832 0.9854 0.1488
vn 0.0336 0.9821 0.1851
vn 0.0218 0.9250 0.3791
vn 0.0037 0.9992 0.0390
vn -0.0946 0.9680 0.2324
vn -0.1326 0.9780 0.1610
vn 0.1510 0.9857 0.0746
vn 0.1849 0.9827 0.0105
vn 0.1863 0.9825 0.0000
vn 0.0177 0.9990 0.0410
vn 0.0102 0.9980 0.0620
vn 0.0103 0.9998 0.0165
vn 0.0643 0.9944 0.0844
vn -0.0075 0.9994 0.0347
vn 0.1496 0.9810 -0.1234
vn 0.0602 0.9851 -0.1611
vn 0.0148 0.9976 -0.0674
vn 0.1878 0.9822 -0.0044
usemtl BedBlanket
s 1
f 81/1/1 28/2/2 4/3/3 45/4/4
f 80/5/5 34/6/6 8/7/7 41/8/8
f 79/9/9 35/10/10 9/11/11 48/12/12
f 78/13/13 32/14/14 7/15/15 49/16/16
f 77/17/17 50/18/18 21/19/19 37/20/20
f 76/21/21 51/22/22 22/23/23 52/24/24
f 75/25/25 44/26/26 16/27/27 53/28/28
f 74/29/29 54/30/30 20/31/31 36/32/32
f 73/33/33 55/34/34 23/35/35 56/36/36
f 72/37/37 47/38/38 19/39/39 57/40/40
f 71/41/41 58/42/42 13/43/43 29/44/44
f 70/45/45 59/46/46 24/47/47 60/48/48
f 69/49/49 46/50/50 18/51/51 61/52/52
f 68/53/53 62/54/54 17/55/55 33/56/56
f 67/57/57 63/58/58 25/59/59 64/60/60
f 66/61/61 40/62/62 12/63/63 65/64/64
f 63/58/58 66/61/61 65/64/64 25/59/59
f 21/19/19 82/65/65 66/61/61 63/58/58
f 49/16/16 7/15/15 40/62/62 66/61/61
f 46/50/50 67/57/57 64/60/60 18/51/51
f 9/11/11 37/20/20 67/57/57 46/50/50
f 37/20/20 21/19/19 63/58/58 67/57/57
f 34/6/6 68/53/53 33/56/56 8/7/7
f 18/51/51 64/60/60 68/53/53 34/6/6
f 64/60/60 25/59/59 62/54/54 68/53/53
f 59/46/46 69/49/49 61/52/52 24/47/47
f 20/31/31 48/12/12 69/49/49 59/46/46
f 48/12/12 9/11/11 46/50/50 69/49/49
f 30/66/66 70/45/45 60/48/48 14/67/67
f 5/68/68 36/32/32 70/45/45 30/66/66
f 36/32/32 20/31/31 59/46/46 70/45/45
f 42/69/69 71/41/41 29/44/44 3/70/70
f 14/67/67 60/48/48 71/41/41 42/69/69
f 60/48/48 24/47/47 58/42/42 71/41/41
f 55/34/34 72/37/37 57/40/40 23/35/35
f 15/71/71 31/72/72 72/37/37 55/34/34
f 31/72/72 6/73/73 47/38/38 72/37/37
f 26/74/74 73/33/33 56/36/36 10/75/75
f 1/76/76 43/77/77 73/33/33 26/74/74
f 43/77/77 15/71/71 55/34/34 73/33/33
f 38/78/78 74/29/29 36/32/32 5/68/68
f 10/75/75 56/36/36 74/29/29 38/78/78
f 56/36/36 23/35/35 54/30/30 74/29/29
f 51/22/22 75/25/25 53/28/28 22/23/23
f 11/79/79 27/80/80 75/25/25 51/22/22
f 27/80/80 2/81/81 44/26/26 75/25/25
f 47/38/38 76/21/21 52/24/24 19/39/39
f 6/73/73 39/82/82 76/21/21 47/38/38
f 39/82/82 11/79/79 51/22/22 76/21/21
f 35/10/10 77/17/17 37/20/20 9/11/11
f 19/39/39 52/24/24 77/17/17 35/10/10
f 52/24/24 22/23/23 50/18/18 77/17/17
f 50/18/18 78/13/13 82/65/65 21/19/19
f 22/23/23 53/28/28 78/13/13 50/18/18
f 53/28/28 16/27/27 32/14/14 78/13/13
f 54/30/30 79/9/9 48/12/12 20/31/31
f 23/35/35 57/40/40 79/9/9 54/30/30
f 57/40/40 19/39/39 35/10/10 79/9/9
f 58/42/42 80/5/5 41/8/8 13/43/43
f 24/47/47 61/52/52 80/5/5 58/42/42
f 61/52/52 18/51/51 34/6/6 80/5/5
f 62/54/54 81/1/1 45/4/4 17/55/55
f 25/59/59 65/64/64 81/1/1 62/54/54
f 65/64/64 12/63/63 28/2/2 81/1/1
