# Blender v2.77 (sub 0) OBJ File: 'PaperStuff.blend'
# www.blender.org
mtllib Envelope.mtl
g Envelope
v 0.016746 -0.002500 0.079831
v 0.016746 -0.002500 -0.079831
v 0.066534 0.002105 0.006887
v 0.066534 0.002105 -0.006887
v -0.083254 -0.002500 0.079831
v -0.083254 -0.001578 0.079831
v -0.083254 -0.002500 -0.079831
v -0.083254 -0.001578 -0.079831
v 0.016746 -0.001578 -0.079831
v 0.016746 -0.001578 0.079831
v 0.066480 0.002684 -0.006887
v 0.066480 0.002684 0.006887
vt 0.4233 0.0000
vt 0.4233 0.4356
vt 0.0474 0.2366
vt 0.0474 0.1990
vt 0.7580 0.8711
vt 0.7580 0.4356
vt 0.8335 0.4356
vt 0.8335 0.8711
vt 0.8325 0.0000
vt 0.8325 0.4356
vt 0.8325 0.4092
vt 0.8325 0.0000
vt 0.9080 0.0000
vt 0.9080 0.4092
vt 0.0000 0.4356
vt 0.4092 0.4356
vt 0.4092 0.8711
vt 0.0000 0.8711
vt 0.7580 0.8711
vt 0.4092 0.6721
vt 0.4092 0.6346
vt 0.7580 0.4356
vt 0.8335 0.8448
vt 0.8335 0.4356
vt 0.9090 0.4356
vt 0.9090 0.8448
vt 0.9545 0.9457
vt 0.9090 0.8854
vt 0.9258 0.4356
vt 0.9545 0.4733
vt 1.0000 0.9080
vt 0.9713 0.9457
vt 0.9545 0.4958
vt 1.0000 0.4356
vt 0.0000 0.2366
vt 0.0000 0.1990
vn 0.0921 -0.9957 0.0000
vn -1.0000 0.0000 0.0000
vn 0.0000 -1.0000 0.0000
vn 0.0000 0.0000 -1.0000
vn 0.0000 1.0000 0.0000
vn -0.0854 0.9963 0.0000
vn -0.0000 0.0000 1.0000
vn 0.8249 0.0294 -0.5645
vn 0.8249 0.0294 0.5645
vn 0.9957 0.0921 0.0000
usemtl Envelope
s off
f 1/1/1 2/2/1 4/3/1 3/4/1
f 6/5/2 8/6/2 7/7/2 5/8/2
f 2/2/3 1/1/3 5/9/3 7/10/3
f 8/11/4 9/12/4 2/13/4 7/14/4
f 6/15/5 10/16/5 9/17/5 8/18/5
f 10/19/6 12/20/6 11/21/6 9/22/6
f 5/23/7 1/24/7 10/25/7 6/26/7
f 2/27/8 9/28/8 11/29/8 4/30/8
f 3/31/9 12/32/9 10/33/9 1/34/9
f 4/3/10 11/35/10 12/36/10 3/4/10
