# Blender v2.77 (sub 0) OBJ File: 'CannonShell.blend'
# www.blender.org
mtllib CannonCasing.mtl
g CannonCasing
v -0.000000 0.000000 -0.053880
v -0.000000 0.306871 -0.053880
v 0.010512 0.000000 -0.052845
v 0.010512 0.306871 -0.052845
v 0.020619 0.000000 -0.049779
v 0.020619 0.306871 -0.049779
v 0.029934 0.000000 -0.044800
v 0.029934 0.306871 -0.044800
v 0.038099 0.000000 -0.038099
v 0.038099 0.306871 -0.038099
v 0.044800 0.000000 -0.029934
v 0.044800 0.306871 -0.029934
v 0.049779 0.000000 -0.020619
v 0.049779 0.306871 -0.020619
v 0.052845 0.000000 -0.010512
v 0.052845 0.306871 -0.010512
v 0.053880 0.000000 -0.000000
v 0.053880 0.306871 -0.000000
v 0.052845 0.000000 0.010512
v 0.052845 0.306871 0.010512
v 0.049779 0.000000 0.020619
v 0.049779 0.306871 0.020619
v 0.044800 0.000000 0.029934
v 0.044800 0.306871 0.029934
v 0.038099 0.000000 0.038099
v 0.038099 0.306871 0.038099
v 0.029934 0.000000 0.044800
v 0.029934 0.306871 0.044800
v 0.020619 0.000000 0.049779
v 0.020619 0.306871 0.049779
v 0.010512 0.000000 0.052845
v 0.010512 0.306871 0.052845
v -0.000000 0.000000 0.053880
v -0.000000 0.306871 0.053880
v -0.010512 0.000000 0.052845
v -0.010512 0.306871 0.052845
v -0.020619 0.000000 0.049779
v -0.020619 0.306871 0.049779
v -0.029934 0.000000 0.044800
v -0.029934 0.306871 0.044800
v -0.038099 0.000000 0.038099
v -0.038099 0.306871 0.038099
v -0.044800 0.000000 0.029934
v -0.044800 0.306871 0.029934
v -0.049779 0.000000 0.020619
v -0.049779 0.306871 0.020619
v -0.052845 0.000000 0.010512
v -0.052845 0.306871 0.010512
v -0.053880 0.000000 -0.000000
v -0.053880 0.306871 -0.000000
v -0.052845 0.000000 -0.010512
v -0.052845 0.306871 -0.010512
v -0.049779 0.000000 -0.020619
v -0.049779 0.306871 -0.020619
v -0.044800 0.000000 -0.029934
v -0.044800 0.306871 -0.029934
v -0.038099 0.000000 -0.038099
v -0.038099 0.306871 -0.038099
v -0.029934 0.000000 -0.044800
v -0.029934 0.306871 -0.044800
v -0.020619 0.000000 -0.049779
v -0.020619 0.306871 -0.049779
v -0.010511 0.000000 -0.052845
v -0.010511 0.306871 -0.052845
v 0.000000 0.000000 -0.000000
v -0.000000 0.306871 -0.051335
v 0.010015 0.306871 -0.050349
v 0.019645 0.306871 -0.047428
v 0.028520 0.306871 -0.042684
v 0.036300 0.306871 -0.036300
v 0.042684 0.306871 -0.028520
v 0.047428 0.306871 -0.019645
v 0.050349 0.306871 -0.010015
v 0.051335 0.306871 -0.000000
v 0.050349 0.306871 0.010015
v 0.047428 0.306871 0.019645
v 0.042684 0.306871 0.028520
v 0.036300 0.306871 0.036300
v 0.028520 0.306871 0.042684
v 0.019645 0.306871 0.047428
v 0.010015 0.306871 0.050349
v -0.000000 0.306871 0.051335
v -0.010015 0.306871 0.050349
v -0.019645 0.306871 0.047428
v -0.028520 0.306871 0.042684
v -0.036300 0.306871 0.036300
v -0.042684 0.306871 0.028520
v -0.047428 0.306871 0.019645
v -0.050349 0.306871 0.010015
v -0.051335 0.306871 -0.000000
v -0.050349 0.306871 -0.010015
v -0.047428 0.306871 -0.019645
v -0.042684 0.306871 -0.028520
v -0.036300 0.306871 -0.036300
v -0.028520 0.306871 -0.042684
v -0.019645 0.306871 -0.047428
v -0.010015 0.306871 -0.050349
v -0.000000 0.003862 -0.051335
v 0.010015 0.003862 -0.050349
v 0.019645 0.003862 -0.047428
v 0.028520 0.003862 -0.042684
v 0.036300 0.003862 -0.036300
v 0.042684 0.003862 -0.028520
v 0.047428 0.003862 -0.019645
v 0.050349 0.003862 -0.010015
v 0.051335 0.003862 -0.000000
v 0.050349 0.003862 0.010015
v 0.047428 0.003862 0.019645
v 0.042684 0.003862 0.028520
v 0.036300 0.003862 0.036300
v 0.028520 0.003862 0.042684
v 0.019645 0.003862 0.047428
v 0.010015 0.003862 0.050349
v -0.000000 0.003862 0.051335
v -0.010015 0.003862 0.050349
v -0.019645 0.003862 0.047428
v -0.028520 0.003862 0.042684
v -0.036300 0.003862 0.036300
v -0.042684 0.003862 0.028520
v -0.047428 0.003862 0.019645
v -0.050349 0.003862 0.010015
v -0.051335 0.003862 -0.000000
v -0.050349 0.003862 -0.010015
v -0.047428 0.003862 -0.019645
v -0.042684 0.003862 -0.028520
v -0.036300 0.003862 -0.036300
v -0.028520 0.003862 -0.042684
v -0.019645 0.003862 -0.047428
v -0.010015 0.003862 -0.050349
v -0.000000 0.003862 -0.000000
v -0.000000 0.000000 -0.053880
v 0.010512 0.000000 -0.052845
v 0.010512 0.306871 -0.052845
v -0.000000 0.306871 -0.053880
v 0.020619 0.000000 -0.049779
v 0.020619 0.306871 -0.049779
v 0.029934 0.000000 -0.044800
v 0.029934 0.306871 -0.044800
v 0.038099 0.000000 -0.038099
v 0.038099 0.306871 -0.038099
v 0.044800 0.000000 -0.029934
v 0.044800 0.306871 -0.029934
v 0.049779 0.000000 -0.020619
v 0.049779 0.306871 -0.020619
v 0.052845 0.000000 -0.010512
v 0.052845 0.306871 -0.010512
v 0.053880 0.000000 -0.000000
v 0.053880 0.306871 -0.000000
v 0.052845 0.000000 0.010512
v 0.052845 0.306871 0.010512
v 0.049779 0.000000 0.020619
v 0.049779 0.306871 0.020619
v 0.044800 0.000000 0.029934
v 0.044800 0.306871 0.029934
v 0.038099 0.000000 0.038099
v 0.038099 0.306871 0.038099
v 0.029934 0.000000 0.044800
v 0.029934 0.306871 0.044800
v 0.020619 0.000000 0.049779
v 0.020619 0.306871 0.049779
v 0.010512 0.000000 0.052845
v 0.010512 0.306871 0.052845
v -0.000000 0.000000 0.053880
v -0.000000 0.306871 0.053880
v -0.010512 0.000000 0.052845
v -0.010512 0.306871 0.052845
v -0.020619 0.000000 0.049779
v -0.020619 0.306871 0.049779
v -0.029934 0.000000 0.044800
v -0.029934 0.306871 0.044800
v -0.038099 0.000000 0.038099
v -0.038099 0.306871 0.038099
v -0.044800 0.000000 0.029934
v -0.044800 0.306871 0.029934
v -0.049779 0.000000 0.020619
v -0.049779 0.306871 0.020619
v -0.052845 0.000000 0.010512
v -0.052845 0.306871 0.010512
v -0.053880 0.000000 -0.000000
v -0.053880 0.306871 -0.000000
v -0.052845 0.000000 -0.010512
v -0.052845 0.306871 -0.010512
v -0.049779 0.000000 -0.020619
v -0.049779 0.306871 -0.020619
v -0.044800 0.000000 -0.029934
v -0.044800 0.306871 -0.029934
v -0.038099 0.000000 -0.038099
v -0.038099 0.306871 -0.038099
v -0.029934 0.000000 -0.044800
v -0.029934 0.306871 -0.044800
v -0.020619 0.000000 -0.049779
v -0.020619 0.306871 -0.049779
v -0.010511 0.000000 -0.052845
v -0.010511 0.306871 -0.052845
v 0.010015 0.306871 -0.050349
v -0.000000 0.306871 -0.051335
v 0.019645 0.306871 -0.047428
v 0.028520 0.306871 -0.042684
v 0.036300 0.306871 -0.036300
v 0.042684 0.306871 -0.028520
v 0.047428 0.306871 -0.019645
v 0.050349 0.306871 -0.010015
v 0.051335 0.306871 -0.000000
v 0.050349 0.306871 0.010015
v 0.047428 0.306871 0.019645
v 0.042684 0.306871 0.028520
v 0.036300 0.306871 0.036300
v 0.028520 0.306871 0.042684
v 0.019645 0.306871 0.047428
v 0.010015 0.306871 0.050349
v -0.000000 0.306871 0.051335
v -0.010015 0.306871 0.050349
v -0.019645 0.306871 0.047428
v -0.028520 0.306871 0.042684
v -0.036300 0.306871 0.036300
v -0.042684 0.306871 0.028520
v -0.047428 0.306871 0.019645
v -0.050349 0.306871 0.010015
v -0.051335 0.306871 -0.000000
v -0.050349 0.306871 -0.010015
v -0.047428 0.306871 -0.019645
v -0.042684 0.306871 -0.028520
v -0.036300 0.306871 -0.036300
v -0.028520 0.306871 -0.042684
v -0.019645 0.306871 -0.047428
v -0.010015 0.306871 -0.050349
v 0.010015 0.003862 -0.050349
v -0.000000 0.003862 -0.051335
v 0.019645 0.003862 -0.047428
v 0.028520 0.003862 -0.042684
v 0.036300 0.003862 -0.036300
v 0.042684 0.003862 -0.028520
v 0.047428 0.003862 -0.019645
v 0.050349 0.003862 -0.010015
v 0.051335 0.003862 -0.000000
v 0.050349 0.003862 0.010015
v 0.047428 0.003862 0.019645
v 0.042684 0.003862 0.028520
v 0.036300 0.003862 0.036300
v 0.028520 0.003862 0.042684
v 0.019645 0.003862 0.047428
v 0.010015 0.003862 0.050349
v -0.000000 0.003862 0.051335
v -0.010015 0.003862 0.050349
v -0.019645 0.003862 0.047428
v -0.028520 0.003862 0.042684
v -0.036300 0.003862 0.036300
v -0.042684 0.003862 0.028520
v -0.047428 0.003862 0.019645
v -0.050349 0.003862 0.010015
v -0.051335 0.003862 -0.000000
v -0.050349 0.003862 -0.010015
v -0.047428 0.003862 -0.019645
v -0.042684 0.003862 -0.028520
v -0.036300 0.003862 -0.036300
v -0.028520 0.003862 -0.042684
v -0.019645 0.003862 -0.047428
v -0.010015 0.003862 -0.050349
vt 0.6527 0.2652
vt 0.6721 0.2652
vt 0.6721 0.5874
vt 0.6527 0.5874
vt 0.2279 0.0311
vt 0.2473 0.0505
vt 0.1392 0.1392
vt 0.2279 0.2473
vt 0.2051 0.2625
vt 0.0158 0.2051
vt 0.0053 0.1798
vt 0.1255 0.0000
vt 0.1529 0.0000
vt 0.2784 0.1529
vt 0.2730 0.1798
vt 0.0986 0.2730
vt 0.0733 0.2625
vt 0.0158 0.0733
vt 0.0311 0.0505
vt 0.2625 0.0733
vt 0.1798 0.2730
vt 0.0000 0.1529
vt 0.1798 0.0053
vt 0.2625 0.2051
vt 0.0505 0.2473
vt 0.0505 0.0311
vt 0.0733 0.0158
vt 0.2730 0.0986
vt 0.1529 0.2784
vt 0.0000 0.1255
vt 0.2051 0.0158
vt 0.2473 0.2279
vt 0.0311 0.2279
vt 0.0986 0.0053
vt 0.2784 0.1255
vt 0.1255 0.2784
vt 0.0053 0.0986
vt 0.6949 0.2652
vt 0.6949 0.5874
vt 0.7202 0.2652
vt 0.7202 0.5874
vt 0.7471 0.2652
vt 0.7471 0.5874
vt 0.7745 0.2652
vt 0.7745 0.5874
vt 0.8014 0.2652
vt 0.8014 0.5874
vt 0.8267 0.2652
vt 0.8267 0.5874
vt 0.8495 0.2652
vt 0.8495 0.5874
vt 0.8689 0.2652
vt 0.8689 0.5874
vt 0.4752 0.2652
vt 0.4752 0.5874
vt 0.4524 0.5874
vt 0.4524 0.2652
vt 0.4271 0.5874
vt 0.4271 0.2652
vt 0.4002 0.5874
vt 0.4002 0.2652
vt 0.3728 0.5874
vt 0.3728 0.2652
vt 0.3459 0.5874
vt 0.3459 0.2652
vt 0.3206 0.5874
vt 0.3206 0.2652
vt 0.2978 0.5874
vt 0.2978 0.2652
vt 0.2784 0.5874
vt 0.2784 0.2652
vt 0.8309 0.5874
vt 0.8309 0.9096
vt 0.8081 0.9096
vt 0.8081 0.5874
vt 0.7828 0.9096
vt 0.7828 0.5874
vt 0.7559 0.9096
vt 0.7559 0.5874
vt 0.7285 0.9096
vt 0.7285 0.5874
vt 0.7016 0.9096
vt 0.7016 0.5874
vt 0.6763 0.9096
vt 0.6763 0.5874
vt 0.6535 0.9096
vt 0.6535 0.5874
vt 0.2784 0.5568
vt 0.2784 0.8789
vt 0.2590 0.8789
vt 0.2590 0.5568
vt 0.4752 0.5874
vt 0.4752 0.2652
vt 0.4980 0.2652
vt 0.4980 0.5874
vt 0.5234 0.2652
vt 0.5234 0.5874
vt 0.5502 0.2652
vt 0.5502 0.5874
vt 0.5777 0.2652
vt 0.5777 0.5874
vt 0.6046 0.2652
vt 0.6046 0.5874
vt 0.6299 0.2652
vt 0.6299 0.5874
vt 0.1798 0.5514
vt 0.1529 0.5568
vt 0.1523 0.5502
vt 0.1779 0.5451
vt 0.2051 0.2942
vt 0.2279 0.3095
vt 0.2237 0.3146
vt 0.2020 0.3000
vt 0.2784 0.4039
vt 0.2784 0.4313
vt 0.2718 0.4306
vt 0.2718 0.4045
vt 0.0311 0.3288
vt 0.0505 0.3095
vt 0.0547 0.3146
vt 0.0362 0.3330
vt 0.0311 0.5063
vt 0.0158 0.4835
vt 0.0217 0.4804
vt 0.0362 0.5021
vt 0.2051 0.5409
vt 0.2020 0.5351
vt 0.1798 0.2837
vt 0.1779 0.2900
vt 0.2730 0.3770
vt 0.2667 0.3789
vt 0.0158 0.3516
vt 0.0217 0.3548
vt 0.0505 0.5257
vt 0.0547 0.5206
vt 0.2279 0.5257
vt 0.2237 0.5206
vt 0.1529 0.2784
vt 0.1523 0.2850
vt 0.2625 0.3516
vt 0.2567 0.3548
vt 0.0053 0.3770
vt 0.0117 0.3789
vt 0.0733 0.5409
vt 0.0764 0.5351
vt 0.2473 0.5063
vt 0.2422 0.5021
vt 0.1255 0.2784
vt 0.1261 0.2850
vt 0.0000 0.4039
vt 0.0066 0.4045
vt 0.0986 0.5514
vt 0.1005 0.5451
vt 0.2625 0.4835
vt 0.2567 0.4804
vt 0.0986 0.2837
vt 0.1005 0.2900
vt 0.0000 0.4313
vt 0.0066 0.4306
vt 0.1255 0.5568
vt 0.1261 0.5502
vt 0.2473 0.3288
vt 0.2422 0.3330
vt 0.2730 0.4582
vt 0.2667 0.4563
vt 0.0733 0.2942
vt 0.0764 0.3000
vt 0.0053 0.4582
vt 0.0117 0.4563
vt 0.2405 0.5568
vt 0.2590 0.5568
vt 0.2590 0.8749
vt 0.2405 0.8749
vt 0.0715 0.8749
vt 0.0459 0.8749
vt 0.0459 0.5568
vt 0.0715 0.5568
vt 0.4442 0.5874
vt 0.4659 0.5874
vt 0.4659 0.9055
vt 0.4442 0.9055
vt 0.0976 0.8749
vt 0.0976 0.5568
vt 0.4201 0.5874
vt 0.4201 0.9055
vt 0.1232 0.8749
vt 0.1232 0.5568
vt 0.2784 0.5874
vt 0.2969 0.5874
vt 0.2969 0.9055
vt 0.2784 0.9055
vt 0.3944 0.5874
vt 0.3944 0.9055
vt 0.1474 0.8749
vt 0.1474 0.5568
vt 0.6317 0.5874
vt 0.6535 0.5874
vt 0.6535 0.9055
vt 0.6317 0.9055
vt 0.3683 0.5874
vt 0.3683 0.9055
vt 0.1691 0.8749
vt 0.1691 0.5568
vt 0.6076 0.5874
vt 0.6076 0.9055
vt 0.3427 0.5874
vt 0.3427 0.9055
vt 0.1875 0.8749
vt 0.1875 0.5568
vt 0.5820 0.5874
vt 0.5820 0.9055
vt 0.3186 0.5874
vt 0.3186 0.9055
vt 0.8526 0.9055
vt 0.8309 0.9055
vt 0.8309 0.5874
vt 0.8526 0.5874
vt 0.5559 0.5874
vt 0.5559 0.9055
vt 0.8768 0.9055
vt 0.8768 0.5874
vt 0.5303 0.5874
vt 0.5303 0.9055
vt 0.9024 0.9055
vt 0.9024 0.5874
vt 0.5061 0.5874
vt 0.5061 0.9055
vt 0.9285 0.9055
vt 0.9285 0.5874
vt 0.4844 0.5874
vt 0.4844 0.9055
vt 0.9541 0.9055
vt 0.9541 0.5874
vt 0.4659 0.5874
vt 0.4659 0.9055
vt 0.9783 0.9055
vt 0.9783 0.5874
vt 0.0217 0.8749
vt 0.0000 0.8749
vt 0.0000 0.5568
vt 0.0217 0.5568
vt 1.0000 0.9055
vt 1.0000 0.5874
vt 0.3979 0.0000
vt 0.4241 0.0000
vt 0.4110 0.1326
vt 0.4955 0.2356
vt 0.4738 0.2501
vt 0.2835 0.0939
vt 0.2935 0.0698
vt 0.3723 0.0051
vt 0.5140 0.2172
vt 0.2784 0.1196
vt 0.3482 0.0151
vt 0.5285 0.1954
vt 0.2784 0.1457
vt 0.3265 0.0296
vt 0.5385 0.1713
vt 0.2835 0.1713
vt 0.3080 0.0481
vt 0.5436 0.1457
vt 0.2935 0.1954
vt 0.5436 0.1196
vt 0.3080 0.2172
vt 0.5385 0.0939
vt 0.3265 0.2356
vt 0.5285 0.0698
vt 0.3482 0.2501
vt 0.5140 0.0481
vt 0.3723 0.2601
vt 0.4955 0.0296
vt 0.3979 0.2652
vt 0.4738 0.0151
vt 0.4241 0.2652
vt 0.4497 0.0051
vt 0.4497 0.2601
vn 0.0000 0.0000 -1.0000
vn 0.1951 0.0000 -0.9808
vn 0.0000 -1.0000 0.0000
vn 0.3827 0.0000 -0.9239
vn 0.5556 0.0000 -0.8314
vn 0.7071 0.0000 -0.7071
vn 0.8314 0.0000 -0.5556
vn 0.9239 0.0000 -0.3827
vn 0.9808 0.0000 -0.1951
vn 1.0000 0.0000 0.0000
vn 0.9808 0.0000 0.1951
vn 0.9239 0.0000 0.3827
vn 0.8314 0.0000 0.5556
vn 0.7071 0.0000 0.7071
vn 0.5556 0.0000 0.8314
vn 0.3827 0.0000 0.9239
vn 0.1951 0.0000 0.9808
vn 0.0000 0.0000 1.0000
vn -0.1951 0.0000 0.9808
vn -0.3827 0.0000 0.9239
vn -0.5556 0.0000 0.8314
vn -0.7071 0.0000 0.7071
vn -0.8314 0.0000 0.5556
vn -0.9239 0.0000 0.3827
vn -0.9808 0.0000 0.1951
vn -1.0000 0.0000 0.0000
vn -0.9808 0.0000 -0.1951
vn -0.9239 0.0000 -0.3827
vn -0.8314 0.0000 -0.5556
vn -0.7071 0.0000 -0.7071
vn -0.5556 0.0000 -0.8314
vn -0.3827 0.0000 -0.9239
vn -0.1951 0.0000 -0.9808
vn 0.0000 1.0000 0.0000
usemtl CannonCasing
s 1
f 134/1/1 133/2/2 132/3/2 131/4/1
f 145/5/3 147/6/3 65/7/3
f 163/8/3 165/9/3 65/7/3
f 181/10/3 183/11/3 65/7/3
f 137/12/3 139/13/3 65/7/3
f 155/14/3 157/15/3 65/7/3
f 173/16/3 175/17/3 65/7/3
f 191/18/3 193/19/3 65/7/3
f 147/6/3 149/20/3 65/7/3
f 165/9/3 167/21/3 65/7/3
f 183/11/3 185/22/3 65/7/3
f 139/13/3 141/23/3 65/7/3
f 157/15/3 159/24/3 65/7/3
f 175/17/3 177/25/3 65/7/3
f 1/26/3 3/27/3 65/7/3
f 193/19/3 1/26/3 65/7/3
f 149/20/3 151/28/3 65/7/3
f 167/21/3 169/29/3 65/7/3
f 185/22/3 187/30/3 65/7/3
f 141/23/3 143/31/3 65/7/3
f 159/24/3 161/32/3 65/7/3
f 177/25/3 179/33/3 65/7/3
f 3/27/3 135/34/3 65/7/3
f 151/28/3 153/35/3 65/7/3
f 169/29/3 171/36/3 65/7/3
f 187/30/3 189/37/3 65/7/3
f 143/31/3 145/5/3 65/7/3
f 161/32/3 163/8/3 65/7/3
f 179/33/3 181/10/3 65/7/3
f 135/34/3 137/12/3 65/7/3
f 153/35/3 155/14/3 65/7/3
f 171/36/3 173/16/3 65/7/3
f 189/37/3 191/18/3 65/7/3
f 132/3/2 133/2/2 136/38/4 5/39/4
f 5/39/4 136/38/4 138/40/5 7/41/5
f 7/41/5 138/40/5 140/42/6 9/43/6
f 9/43/6 140/42/6 142/44/7 11/45/7
f 11/45/7 142/44/7 144/46/8 13/47/8
f 13/47/8 144/46/8 146/48/9 15/49/9
f 15/49/9 146/48/9 148/50/10 17/51/10
f 17/51/10 148/50/10 150/52/11 19/53/11
f 19/54/11 150/55/11 152/56/12 21/57/12
f 21/57/12 152/56/12 154/58/13 23/59/13
f 23/59/13 154/58/13 156/60/14 25/61/14
f 25/61/14 156/60/14 158/62/15 27/63/15
f 27/63/15 158/62/15 160/64/16 29/65/16
f 29/65/16 160/64/16 162/66/17 31/67/17
f 31/67/17 162/66/17 164/68/18 33/69/18
f 33/69/18 164/68/18 166/70/19 35/71/19
f 35/72/19 166/73/19 168/74/20 37/75/20
f 37/75/20 168/74/20 170/76/21 39/77/21
f 39/77/21 170/76/21 172/78/22 41/79/22
f 41/79/22 172/78/22 174/80/23 43/81/23
f 43/81/23 174/80/23 176/82/24 45/83/24
f 45/83/24 176/82/24 178/84/25 47/85/25
f 47/85/25 178/84/25 180/86/26 49/87/26
f 49/88/26 180/89/26 182/90/27 51/91/27
f 51/92/27 182/93/27 184/94/28 53/95/28
f 53/95/28 184/94/28 186/96/29 55/97/29
f 55/97/29 186/96/29 188/98/30 57/99/30
f 57/99/30 188/98/30 190/100/31 59/101/31
f 59/101/31 190/100/31 192/102/32 61/103/32
f 61/103/32 192/102/32 194/104/33 63/105/33
f 63/105/33 194/104/33 134/1/1 131/4/1
f 48/106/34 46/107/34 217/108/34 218/109/34
f 8/110/34 6/111/34 197/112/34 198/113/34
f 62/114/34 60/115/34 224/116/34 225/117/34
f 22/118/34 20/119/34 204/120/34 205/121/34
f 36/122/34 34/123/34 211/124/34 212/125/34
f 50/126/34 48/106/34 218/109/34 219/127/34
f 10/128/34 8/110/34 198/113/34 199/129/34
f 64/130/34 62/114/34 225/117/34 226/131/34
f 24/132/34 22/118/34 205/121/34 206/133/34
f 38/134/34 36/122/34 212/125/34 213/135/34
f 52/136/34 50/126/34 219/127/34 220/137/34
f 12/138/34 10/128/34 199/129/34 200/139/34
f 2/140/34 64/130/34 226/131/34 196/141/34
f 26/142/34 24/132/34 206/133/34 207/143/34
f 40/144/34 38/134/34 213/135/34 214/145/34
f 54/146/34 52/136/34 220/137/34 221/147/34
f 14/148/34 12/138/34 200/139/34 201/149/34
f 28/150/34 26/142/34 207/143/34 208/151/34
f 42/152/34 40/144/34 214/145/34 215/153/34
f 56/154/34 54/146/34 221/147/34 222/155/34
f 16/156/34 14/148/34 201/149/34 202/157/34
f 30/158/34 28/150/34 208/151/34 209/159/34
f 44/160/34 42/152/34 215/153/34 216/161/34
f 4/162/34 2/140/34 196/141/34 195/163/34
f 58/164/34 56/154/34 222/155/34 223/165/34
f 18/166/34 16/156/34 202/157/34 203/167/34
f 32/168/34 30/158/34 209/159/34 210/169/34
f 46/107/34 44/160/34 216/161/34 217/108/34
f 6/111/34 4/162/34 195/163/34 197/112/34
f 60/115/34 58/164/34 223/165/34 224/116/34
f 20/119/34 18/166/34 203/167/34 204/120/34
f 34/123/34 32/168/34 210/169/34 211/124/34
f 91/170/11 90/171/10 251/172/10 252/173/11
f 78/174/30 77/175/29 238/176/29 239/177/30
f 92/178/12 91/179/11 252/180/11 253/181/12
f 79/182/31 78/174/30 239/177/30 240/183/31
f 93/184/13 92/178/12 253/181/12 254/185/13
f 80/186/32 79/182/31 240/183/31 241/187/32
f 67/188/19 66/189/18 228/190/18 227/191/19
f 94/192/14 93/184/13 254/185/13 255/193/14
f 81/194/33 80/186/32 241/187/32 242/195/33
f 68/196/20 67/197/19 227/198/19 229/199/20
f 95/200/15 94/192/14 255/193/14 256/201/15
f 82/202/1 81/194/33 242/195/33 243/203/1
f 69/204/21 68/196/20 229/199/20 230/205/21
f 96/206/16 95/200/15 256/201/15 257/207/16
f 83/208/2 82/202/1 243/203/1 244/209/2
f 70/210/22 69/204/21 230/205/21 231/211/22
f 97/212/17 96/206/16 257/207/16 258/213/17
f 84/214/4 83/215/2 244/216/2 245/217/4
f 71/218/23 70/210/22 231/211/22 232/219/23
f 66/189/18 97/212/17 258/213/17 228/190/18
f 85/220/5 84/214/4 245/217/4 246/221/5
f 72/222/24 71/218/23 232/219/23 233/223/24
f 86/224/6 85/220/5 246/221/5 247/225/6
f 73/226/25 72/222/24 233/223/24 234/227/25
f 87/228/7 86/224/6 247/225/6 248/229/7
f 74/230/26 73/226/25 234/227/25 235/231/26
f 88/232/8 87/228/7 248/229/7 249/233/8
f 75/234/27 74/230/26 235/231/26 236/235/27
f 89/236/9 88/232/8 249/233/8 250/237/9
f 76/238/28 75/239/27 236/240/27 237/241/28
f 90/242/10 89/236/9 250/237/9 251/243/10
f 77/175/29 76/238/28 237/241/28 238/176/29
f 126/244/34 125/245/34 130/246/34
f 113/247/34 112/248/34 130/246/34
f 100/249/34 99/250/34 130/246/34
f 127/251/34 126/244/34 130/246/34
f 114/252/34 113/247/34 130/246/34
f 101/253/34 100/249/34 130/246/34
f 128/254/34 127/251/34 130/246/34
f 115/255/34 114/252/34 130/246/34
f 102/256/34 101/253/34 130/246/34
f 129/257/34 128/254/34 130/246/34
f 116/258/34 115/255/34 130/246/34
f 103/259/34 102/256/34 130/246/34
f 98/260/34 129/257/34 130/246/34
f 117/261/34 116/258/34 130/246/34
f 104/262/34 103/259/34 130/246/34
f 118/263/34 117/261/34 130/246/34
f 105/264/34 104/262/34 130/246/34
f 119/265/34 118/263/34 130/246/34
f 106/266/34 105/264/34 130/246/34
f 120/267/34 119/265/34 130/246/34
f 107/268/34 106/266/34 130/246/34
f 121/269/34 120/267/34 130/246/34
f 108/270/34 107/268/34 130/246/34
f 122/271/34 121/269/34 130/246/34
f 109/272/34 108/270/34 130/246/34
f 123/273/34 122/271/34 130/246/34
f 110/274/34 109/272/34 130/246/34
f 124/275/34 123/273/34 130/246/34
f 111/276/34 110/274/34 130/246/34
f 125/245/34 124/275/34 130/246/34
f 112/248/34 111/276/34 130/246/34
f 99/250/34 98/260/34 130/246/34
