# Blender v2.77 (sub 0) OBJ File: 'Sandbag.blend'
# www.blender.org
mtllib Sandbag3.mtl
g SandBag3
v -0.124571 -0.032377 0.343888
v -0.151445 -0.031699 0.296602
v -0.124571 -0.058737 0.303583
v -0.124571 -0.013814 0.343888
v -0.124571 0.008134 0.303583
v -0.151445 -0.014373 0.296602
v -0.116213 -0.183801 -0.129394
v -0.116213 -0.178585 -0.083595
v -0.143087 -0.174105 -0.120347
v -0.120435 -0.174437 -0.200757
v -0.117161 -0.183922 -0.158120
v -0.143922 -0.173676 -0.149323
v 0.121681 -0.029552 0.320186
v 0.121681 -0.058048 0.271532
v 0.148555 -0.029047 0.271532
v 0.121681 0.011476 0.271532
v 0.121681 -0.011180 0.311785
v 0.148555 -0.010463 0.271532
v 0.148555 -0.174049 -0.126630
v 0.121681 -0.178074 -0.089887
v 0.121681 -0.183989 -0.132156
v 0.121681 -0.174531 -0.200044
v 0.148555 -0.173527 -0.152751
v 0.121681 -0.184095 -0.158552
v -0.059548 -0.174129 -0.208602
v 0.001934 -0.174122 -0.209284
v 0.061198 -0.174407 -0.206490
v 0.063230 -0.183219 -0.154482
v 0.005729 -0.182875 -0.158805
v -0.055808 -0.183002 -0.161951
v 0.063838 -0.180480 -0.073783
v 0.006913 -0.179916 -0.079363
v -0.054650 -0.179008 -0.086415
v -0.054650 -0.182946 -0.132347
v 0.006913 -0.182982 -0.126714
v 0.063839 -0.183393 -0.121817
v 0.060118 0.012205 0.294605
v -0.001445 0.015223 0.303639
v -0.063008 0.014555 0.314901
v -0.063008 -0.009326 0.355153
v -0.001445 -0.008856 0.343892
v 0.060118 -0.011320 0.334858
v -0.063008 -0.061492 0.314901
v -0.001445 -0.061902 0.303639
v 0.060118 -0.061723 0.294605
v 0.060118 -0.031972 0.334858
v -0.001445 -0.030455 0.343892
v -0.063008 -0.030652 0.355153
v -0.122503 0.009898 0.007154
v -0.147684 -0.015848 0.005418
v -0.120392 -0.055585 0.015099
v -0.147266 -0.032380 0.007800
v 0.121681 0.011338 -0.008872
v 0.148555 -0.013935 -0.006847
v 0.121681 -0.054272 0.000195
v 0.148555 -0.030446 -0.004404
v 0.060658 0.013538 0.001886
v 0.000244 0.015905 0.006314
v -0.061278 0.015432 0.012034
v -0.058829 -0.056542 0.019184
v 0.002734 -0.058543 0.015567
v 0.061978 -0.059843 0.012874
v -0.121986 0.008091 -0.081309
v -0.121469 -0.002603 -0.231068
v -0.120952 -0.093449 -0.230547
v -0.146221 -0.038527 -0.065251
v -0.145177 -0.060981 -0.142126
v -0.144132 -0.124609 -0.127841
v 0.148555 -0.018515 -0.087125
v 0.148555 -0.044424 -0.181907
v 0.148555 -0.116108 -0.174219
v 0.121681 -0.065431 -0.057721
v 0.121681 -0.094443 -0.104050
v 0.121681 -0.138367 -0.099609
v -0.144862 -0.113874 -0.170063
v -0.145803 -0.041947 -0.174548
v -0.146743 -0.019790 -0.075421
v -0.117258 -0.137078 -0.076832
v -0.118303 -0.092149 -0.075515
v -0.119347 -0.065225 -0.040395
v 0.121681 -0.099176 -0.227844
v 0.121681 -0.006261 -0.244847
v 0.121681 0.009087 -0.095867
v 0.148555 -0.126262 -0.143668
v 0.148555 -0.062504 -0.153088
v 0.148555 -0.037240 -0.076892
v 0.061063 -0.092906 -0.237340
v 0.060928 0.003952 -0.233831
v 0.060793 0.012050 -0.081785
v 0.001511 -0.089682 -0.242020
v 0.001089 0.007905 -0.237570
v 0.000667 0.014310 -0.081919
v -0.059980 -0.087733 -0.242097
v -0.060413 0.008216 -0.224881
v -0.060845 0.013983 -0.071619
v -0.055695 -0.136118 -0.078514
v -0.056740 -0.092907 -0.070137
v -0.057784 -0.065288 -0.037541
v 0.005868 -0.138992 -0.070666
v 0.004823 -0.098671 -0.064368
v 0.003779 -0.070638 -0.036888
v 0.063373 -0.141030 -0.064441
v 0.062908 -0.102902 -0.059474
v 0.062443 -0.074582 -0.036199
vt 0.0748 0.1401
vt 0.0041 0.1319
vt 0.0111 0.0722
vt 0.0826 0.0697
vt 0.3061 0.1048
vt 0.3083 0.2560
vt 0.2748 0.2547
vt 0.2764 0.1050
vt 0.7499 0.1713
vt 0.7502 0.3283
vt 0.6770 0.3293
vt 0.6765 0.1822
vt 0.3001 0.4885
vt 0.2896 0.5365
vt 0.2563 0.5352
vt 0.2618 0.4870
vt 0.7264 0.5838
vt 0.7206 0.5137
vt 0.7417 0.5130
vt 0.7525 0.5821
vt 0.6098 0.4805
vt 0.6091 0.5169
vt 0.5624 0.5129
vt 0.6431 0.4804
vt 0.6825 0.5126
vt 0.6402 0.5168
vt 0.7541 0.7985
vt 0.7913 0.7972
vt 0.7634 0.8304
vt 0.6981 0.8055
vt 0.7311 0.8005
vt 0.7403 0.8322
vt 0.2721 0.3048
vt 0.2216 0.2765
vt 0.3466 0.2813
vt 0.3052 0.3015
vt 0.7460 0.4804
vt 0.7761 0.5117
vt 0.6883 0.5147
vt 0.7251 0.4811
vt 0.5002 0.9412
vt 0.3547 0.9177
vt 0.3545 0.8752
vt 0.4618 0.8915
vt 0.5683 0.7443
vt 0.6081 0.7485
vt 0.6857 0.5875
vt 0.7863 0.7233
vt 0.7492 0.7247
vt 0.6438 0.2897
vt 0.6438 0.0651
vt 0.6758 0.0671
vt 0.6758 0.2905
vt 0.0200 0.0288
vt 0.1061 0.0229
vt 0.4219 0.0300
vt 0.3479 0.0396
vt 0.3476 0.0094
vt 0.4217 0.0000
vt 0.2120 0.3432
vt 0.2649 0.3670
vt 0.3538 0.8520
vt 0.4426 0.8578
vt 0.0000 0.8266
vt 0.0739 0.8354
vt 0.0743 0.8707
vt 0.0003 0.8615
vt 0.2069 0.4631
vt 0.2090 0.4025
vt 0.2649 0.4265
vt 0.3449 0.3482
vt 0.3021 0.3685
vt 0.3476 0.4078
vt 0.3038 0.4280
vt 0.3437 0.4683
vt 0.7913 0.5807
vt 0.7893 0.6492
vt 0.7511 0.6506
vt 0.6892 0.7326
vt 0.7255 0.7269
vt 0.6861 0.6588
vt 0.7254 0.6529
vt 0.9680 0.1927
vt 0.9679 0.3296
vt 0.8953 0.3290
vt 0.8953 0.1809
vt 0.8241 0.3283
vt 0.8237 0.1748
vt 0.0745 0.2934
vt 0.0000 0.2859
vt 0.0019 0.2300
vt 0.0788 0.2381
vt 0.0027 0.1793
vt 0.0761 0.1877
vt 0.1479 0.8263
vt 0.1530 0.5959
vt 0.2241 0.5936
vt 0.2219 0.8191
vt 0.0790 0.5990
vt 0.0051 0.5959
vt 0.4959 0.0390
vt 0.4980 0.2771
vt 0.4241 0.2725
vt 0.5698 0.0465
vt 0.5706 0.2809
vt 0.6377 0.7503
vt 0.2959 0.8009
vt 0.2959 0.5840
vt 0.3285 0.5827
vt 0.3285 0.8038
vt 0.6438 0.3596
vt 0.6758 0.3552
vt 0.5510 0.7888
vt 0.5971 0.8071
vt 0.6857 0.7502
vt 0.3504 0.2769
vt 0.2990 0.0609
vt 0.2652 0.0652
vt 0.0213 0.0147
vt 0.1248 0.0070
vt 0.2538 0.0077
vt 0.2209 0.0221
vt 0.3476 0.8241
vt 0.4221 0.8185
vt 0.5027 0.8171
vt 0.5568 0.8689
vt 1.0000 0.2263
vt 0.9999 0.3306
vt 0.9681 0.0250
vt 1.0000 0.0973
vt 0.3222 0.0000
vt 0.3476 0.0818
vt 0.1541 0.5527
vt 0.2245 0.5528
vt 0.1985 0.2126
vt 0.1485 0.1948
vt 0.1433 0.1459
vt 0.1938 0.1608
vt 0.0802 0.5527
vt 0.2055 0.2670
vt 0.1564 0.2465
vt 0.0062 0.5505
vt 0.2030 0.3199
vt 0.1552 0.2981
vt 0.4985 0.3479
vt 0.4246 0.3397
vt 0.4990 0.4732
vt 0.4251 0.4630
vt 0.8231 0.0000
vt 0.7492 0.0002
vt 0.5707 0.3480
vt 0.5708 0.4706
vt 0.8950 0.0073
vt 0.6437 0.4804
vt 0.6307 0.8152
vt 0.5909 0.8948
vt 0.2323 0.1296
vt 0.2131 0.0974
vt 0.1616 0.0703
vt 0.6825 0.8212
vt 0.6633 0.9412
vt 0.3511 0.3480
vt 0.3516 0.4690
vt 0.6758 0.0192
vt 0.2958 0.5365
vn 0.2001 -0.0957 0.9751
vn 0.1136 -0.6900 0.7148
vn 0.5101 -0.5664 0.6472
vn 0.6822 0.0717 0.7276
vn 0.9150 0.4033 -0.0092
vn 0.8771 0.4165 0.2390
vn 0.9160 -0.3226 0.2384
vn 0.9280 -0.3716 0.0260
vn -0.0750 -0.1220 -0.9897
vn -0.0431 -0.7568 -0.6522
vn -0.4771 -0.6557 -0.5851
vn -0.5630 -0.1281 -0.8164
vn -0.0208 0.4823 0.8758
vn -0.5167 0.4153 0.7486
vn -0.5050 -0.3981 0.7658
vn -0.0013 -0.4273 0.9041
vn -0.0049 -0.9961 -0.0882
vn 0.1874 -0.9759 -0.1116
vn 0.1773 -0.9830 0.0482
vn 0.0024 -0.9991 0.0424
vn -0.9090 -0.3578 0.2137
vn -0.3934 -0.8860 0.2455
vn -0.4087 0.8857 0.2200
vn -0.9065 0.3661 0.2100
vn -0.1594 -0.9859 0.0500
vn -0.3825 -0.6284 0.6773
vn -0.8151 -0.5277 0.2391
vn -0.1867 -0.9774 -0.0986
vn -0.8230 -0.5537 -0.1266
vn 0.5356 -0.3218 0.7807
vn 0.4214 -0.8840 0.2024
vn 0.3665 0.9087 0.1998
vn 0.5390 0.5038 0.6750
vn 0.8361 -0.4680 0.2860
vn 0.4332 -0.6644 -0.6090
vn 0.8216 -0.5451 -0.1666
vn -0.9742 -0.0656 -0.2159
vn -0.3910 -0.9187 0.0553
vn -0.9196 -0.3925 0.0122
vn 0.0450 -0.7634 -0.6444
vn -0.0299 -0.7557 0.6542
vn 0.0022 -0.9991 0.0421
vn 0.3808 0.9245 -0.0152
vn 0.9627 0.0518 0.2656
vn -0.0466 0.9567 0.2871
vn 0.0951 -0.9459 0.3102
vn 0.2027 -0.4106 0.8890
vn -0.9680 0.0013 0.2510
vn -0.0119 -0.9409 0.3383
vn 0.0403 -0.9496 0.3108
vn 0.1441 -0.4384 0.8871
vn 0.1028 0.9557 0.2757
vn 0.2024 0.5182 0.8310
vn 0.0589 0.9636 0.2609
vn 0.1489 0.4992 0.8536
vn -0.0810 -0.7536 0.6523
vn -0.0089 -0.9994 0.0333
vn 0.0027 -0.9951 -0.0981
vn 0.0139 -0.7670 -0.6415
vn 0.0012 -0.9960 -0.0890
vn 0.5242 -0.1905 -0.8300
vn 0.0489 -0.1853 -0.9814
vn 0.0034 -0.1439 -0.9896
vn -0.5009 -0.0793 0.8618
vn -0.0592 -0.1631 0.9848
vn -0.1129 -0.1831 0.9766
vn -0.0314 -0.9940 0.1048
vn 0.0494 -0.9924 0.1129
vn -0.0301 -0.9966 0.0762
vn 0.0162 0.9998 -0.0074
vn -0.0515 0.9986 -0.0071
vn 0.0357 0.9993 -0.0081
vn -0.9263 0.3765 -0.0166
vn 0.4547 -0.8861 0.0894
vn 0.4534 0.8889 -0.0653
vn 0.9312 0.3629 -0.0340
vn -0.4751 -0.8321 0.2862
vn -0.9521 -0.2969 0.0721
vn -0.4234 0.9058 -0.0137
vn 0.9544 -0.2860 0.0848
vn 0.9621 -0.0775 -0.2613
vn 0.9587 0.1974 -0.2048
vn 0.9913 -0.0679 0.1126
vn -0.6380 -0.4008 0.6575
vn -0.9928 -0.0737 0.0939
vn 0.4716 0.5075 -0.7211
vn -0.0721 -0.8723 0.4835
vn 0.1256 -0.8754 0.4668
vn -0.1068 -0.4499 0.8867
vn 0.2361 -0.4348 0.8690
vn -0.0562 -0.9049 0.4219
vn -0.0787 -0.4857 0.8706
vn 0.0187 0.9993 -0.0310
vn -0.0580 0.9978 -0.0313
vn 0.0049 0.6976 -0.7165
vn -0.0945 0.7704 -0.6305
vn 0.0531 0.9978 -0.0389
vn 0.0720 0.7158 -0.6945
vn -0.9447 0.3262 -0.0320
vn -0.9651 0.1956 -0.1738
vn 0.5968 -0.7432 0.3024
vn 0.7870 -0.2658 0.5567
vn -0.4877 0.8715 -0.0507
vn -0.5199 0.5644 -0.6411
usemtl None
s 1
f 102/1/1 31/2/2 20/3/3 74/4/4
f 54/5/5 18/6/6 15/7/7 56/8/8
f 93/9/9 25/10/10 10/11/11 65/12/12
f 40/13/13 4/14/14 1/15/15 48/16/16
f 28/17/17 24/18/18 21/19/19 36/20/20
f 1/21/15 2/22/21 3/23/22
f 4/24/14 5/25/23 6/26/24
f 7/27/25 8/28/26 9/29/27
f 10/30/11 11/31/28 12/32/29
f 13/33/30 14/34/31 15/7/7
f 16/35/32 17/36/33 18/6/6
f 19/37/34 20/38/3 21/19/19
f 22/39/35 23/40/36 24/18/18
f 1/21/15 4/24/14 6/26/24 2/22/21
f 65/41/12 10/42/11 12/43/29 75/44/37
f 11/31/28 7/27/25 9/29/27 12/32/29
f 51/45/38 3/23/22 2/22/21 52/46/39
f 27/47/40 22/39/35 24/18/18 28/17/17
f 23/40/36 19/37/34 21/19/19 24/18/18
f 33/48/41 8/28/26 7/27/25 34/49/42
f 53/50/43 16/51/32 18/52/6 54/53/5
f 17/36/33 13/33/30 15/7/7 18/6/6
f 74/4/4 20/3/3 19/54/34 84/55/44
f 39/56/45 5/57/23 4/58/14 40/59/13
f 45/60/46 14/34/31 13/33/30 46/61/47
f 75/44/37 12/43/29 9/62/27 68/63/48
f 3/64/22 43/65/49 48/66/16 1/67/15
f 43/68/49 44/69/50 47/70/51 48/16/16
f 44/69/50 45/60/46 46/61/47 47/70/51
f 16/35/32 37/71/52 42/72/53 17/36/33
f 37/71/52 38/73/54 41/74/55 42/72/53
f 38/73/54 39/75/45 40/13/13 41/74/55
f 20/38/3 31/76/2 36/20/20 21/19/19
f 31/76/2 32/77/56 35/78/57 36/20/20
f 32/77/56 33/48/41 34/49/42 35/78/57
f 10/30/11 25/79/10 30/80/58 11/31/28
f 25/79/10 26/81/59 29/82/60 30/80/58
f 26/81/59 27/47/40 28/17/17 29/82/60
f 11/31/28 30/80/58 34/49/42 7/27/25
f 30/80/58 29/82/60 35/78/57 34/49/42
f 29/82/60 28/17/17 36/20/20 35/78/57
f 17/36/33 42/72/53 46/61/47 13/33/30
f 42/72/53 41/74/55 47/70/51 46/61/47
f 41/74/55 40/13/13 48/16/16 47/70/51
f 81/83/61 22/84/35 27/85/40 87/86/62
f 87/86/62 27/85/40 26/87/59 90/88/63
f 90/88/63 26/87/59 25/10/10 93/9/9
f 78/89/64 8/90/26 33/91/41 96/92/65
f 96/92/65 33/91/41 32/93/56 99/94/66
f 99/94/66 32/93/56 31/2/2 102/1/1
f 44/95/50 61/96/67 62/97/68 45/98/46
f 43/65/49 60/99/69 61/96/67 44/95/50
f 3/64/22 51/100/38 60/99/69 43/65/49
f 38/101/54 58/102/70 59/103/71 39/56/45
f 37/104/52 57/105/72 58/102/70 38/101/54
f 16/51/32 53/50/43 57/105/72 37/104/52
f 6/26/24 50/106/73 52/46/39 2/22/21
f 14/107/31 55/108/74 56/109/8 15/110/7
f 83/111/75 53/50/43 54/53/5 69/112/76
f 80/113/77 51/45/38 52/46/39 66/114/78
f 5/25/23 49/115/79 50/106/73 6/26/24
f 39/56/45 59/103/71 49/116/79 5/57/23
f 69/117/76 54/5/5 56/8/8 86/118/80
f 45/98/46 62/97/68 55/108/74 14/107/31
f 23/119/36 71/120/81 84/55/44 19/54/34
f 71/120/81 70/121/82 85/122/83 84/55/44
f 70/121/82 69/117/76 86/118/80 85/122/83
f 8/123/26 78/124/64 68/63/48 9/62/27
f 78/124/64 79/125/84 67/126/85 68/63/48
f 79/125/84 80/113/77 66/114/78 67/126/85
f 22/84/35 81/83/61 71/127/81 23/128/36
f 81/83/61 82/129/86 70/130/82 71/127/81
f 82/131/86 83/132/75 69/117/76 70/121/82
f 61/96/67 101/133/87 104/134/88 62/97/68
f 101/135/87 100/136/89 103/137/90 104/138/88
f 100/136/89 99/94/66 102/1/1 103/137/90
f 60/99/69 98/139/91 101/133/87 61/96/67
f 98/140/91 97/141/92 100/136/89 101/135/87
f 97/141/92 96/92/65 99/94/66 100/136/89
f 51/100/38 80/142/77 98/139/91 60/99/69
f 80/143/77 79/144/84 97/141/92 98/140/91
f 79/144/84 78/89/64 96/92/65 97/141/92
f 58/102/70 92/145/93 95/146/94 59/103/71
f 92/145/93 91/147/95 94/148/96 95/146/94
f 91/149/95 90/88/63 93/9/9 94/150/96
f 57/105/72 89/151/97 92/145/93 58/102/70
f 89/151/97 88/152/98 91/147/95 92/145/93
f 88/153/98 87/86/62 90/88/63 91/149/95
f 53/50/43 83/111/75 89/151/97 57/105/72
f 83/111/75 82/154/86 88/152/98 89/151/97
f 82/129/86 81/83/61 87/86/62 88/153/98
f 50/106/73 77/155/99 66/114/78 52/46/39
f 77/155/99 76/156/100 67/126/85 66/114/78
f 76/156/100 75/44/37 68/63/48 67/126/85
f 55/157/74 72/158/101 86/118/80 56/8/8
f 72/158/101 73/159/102 85/122/83 86/118/80
f 73/159/102 74/4/4 84/55/44 85/122/83
f 49/115/79 63/160/103 77/155/99 50/106/73
f 63/160/103 64/161/104 76/156/100 77/155/99
f 64/161/104 65/41/12 75/44/37 76/156/100
f 59/103/71 95/146/94 63/162/103 49/116/79
f 95/146/94 94/148/96 64/163/104 63/162/103
f 94/150/96 93/9/9 65/12/12 64/164/104
f 62/97/68 104/134/88 72/165/101 55/108/74
f 104/138/88 103/137/90 73/159/102 72/158/101
f 103/137/90 102/1/1 74/4/4 73/159/102
