# Blender v2.77 (sub 0) OBJ File: 'Sandbag.blend'
# www.blender.org
mtllib Sandbag4.mtl
g SandBag4
v 0.302569 0.026544 0.050047
v 0.247719 0.044305 0.048924
v 0.228447 0.037436 0.105950
v 0.298366 0.020969 0.008887
v 0.248248 0.025876 -0.056511
v 0.254187 0.035501 0.005744
v -0.294250 0.005482 0.047843
v -0.265325 0.023823 0.098781
v -0.289212 0.025721 0.050686
v -0.240164 0.027376 -0.073205
v -0.297431 0.005914 0.009608
v -0.290248 0.026967 0.008250
v 0.224666 -0.202495 0.042998
v 0.190555 -0.202608 0.076654
v 0.190555 -0.228205 0.040526
v 0.190555 -0.207495 -0.022590
v 0.218776 -0.202845 0.016508
v 0.190555 -0.229960 0.015452
v -0.200947 -0.224916 0.037453
v -0.202634 -0.199468 0.069988
v -0.215737 -0.199690 0.037883
v -0.202634 -0.205524 -0.025599
v -0.200947 -0.226247 0.014809
v -0.215737 -0.200805 0.014960
v -0.240869 -0.037403 -0.037177
v -0.223365 -0.102489 -0.028893
v -0.210298 -0.152917 -0.029891
v -0.222276 -0.150122 0.020145
v -0.236828 -0.103546 0.020909
v -0.268939 -0.042286 0.018742
v -0.209708 -0.151309 0.084293
v -0.221211 -0.104792 0.085090
v -0.241851 -0.040125 0.089517
v -0.263256 -0.042206 0.049051
v -0.235365 -0.104207 0.048950
v -0.222181 -0.150123 0.048120
v 0.214917 -0.151922 -0.023525
v 0.235952 -0.099283 -0.029443
v 0.256116 -0.032373 -0.042067
v 0.295253 -0.032373 0.013460
v 0.266017 -0.098481 0.017149
v 0.243528 -0.150107 0.019313
v 0.237494 -0.032373 0.095048
v 0.234792 -0.097699 0.098467
v 0.214582 -0.149181 0.092318
v 0.243211 -0.149346 0.050661
v 0.265703 -0.098027 0.052059
v 0.296595 -0.032373 0.053637
v 0.086625 0.031265 -0.071198
v -0.073733 0.023056 -0.082165
v -0.074320 0.026260 -0.009866
v 0.083499 0.038895 -0.012080
v -0.130280 0.029449 0.117835
v 0.086625 0.035267 0.117013
v 0.083499 0.032220 0.034408
v -0.092757 0.025458 0.038369
v -0.081469 -0.215736 -0.024596
v 0.068509 -0.230214 -0.023593
v 0.069146 -0.255695 0.015321
v -0.080164 -0.239741 0.015065
v 0.068522 -0.226645 0.079494
v -0.081479 -0.211205 0.074695
v -0.080165 -0.238616 0.039333
v 0.069153 -0.254683 0.041212
v -0.076637 -0.158833 -0.028040
v 0.079981 -0.167751 -0.026235
v -0.074657 -0.102339 -0.034678
v 0.085971 -0.105943 -0.034262
v -0.071514 -0.035090 -0.057433
v 0.092326 -0.033731 -0.052846
v -0.076662 -0.038805 0.089692
v 0.092326 -0.033696 0.112047
v -0.074657 -0.104356 0.089426
v 0.085845 -0.107172 0.093037
v -0.076615 -0.157797 0.086707
v 0.079918 -0.166437 0.087916
vt 0.1245 0.4369
vt 0.1357 0.5885
vt 0.0772 0.5821
vt 0.0605 0.4443
vt 0.9517 0.3116
vt 0.9554 0.4493
vt 0.9278 0.4494
vt 0.9231 0.3118
vt 0.5835 0.1931
vt 0.5790 0.0000
vt 0.6611 0.0015
vt 0.6558 0.1912
vt 0.0736 0.9045
vt 0.0721 0.9653
vt 0.0258 0.9664
vt 0.0295 0.8985
vt 0.4121 0.6601
vt 0.3953 0.6028
vt 0.4206 0.5996
vt 0.4427 0.6547
vt 0.8096 0.6747
vt 0.8088 0.6109
vt 0.8719 0.5895
vt 0.7636 0.6704
vt 0.6908 0.6131
vt 0.7604 0.6190
vt 0.4747 0.8508
vt 0.5354 0.8519
vt 0.4825 0.8710
vt 0.3491 0.8810
vt 0.4329 0.8597
vt 0.4364 0.8810
vt 0.9281 0.4876
vt 0.8905 0.4489
vt 0.1529 0.6796
vt 0.1041 0.6884
vt 0.1139 0.6487
vt 0.4150 0.5669
vt 0.4562 0.5894
vt 0.3504 0.6011
vt 0.3900 0.5698
vt 0.6611 0.2468
vt 0.6707 0.0571
vt 0.7611 0.0000
vt 0.7417 0.2458
vt 0.8837 0.4282
vt 0.7917 0.4250
vt 0.3572 0.6628
vt 0.5118 0.7751
vt 0.4664 0.7876
vt 0.9976 0.3099
vt 1.0000 0.4484
vt 0.0740 0.6866
vt 0.0863 0.6466
vt 0.0424 0.5816
vt 0.0230 0.4443
vt 0.1420 0.8996
vt 0.1529 0.9636
vt 0.0164 0.7342
vt 0.0441 0.6691
vt 0.0562 0.7508
vt 0.8083 0.0012
vt 0.7952 0.2249
vt 0.3455 0.0831
vt 0.2622 0.0750
vt 0.2539 0.0085
vt 0.3218 0.0000
vt 0.1868 0.0799
vt 0.1781 0.0456
vt 0.0000 0.7973
vt 0.0445 0.8152
vt 0.1430 0.7498
vt 0.0904 0.7551
vt 0.1395 0.8165
vt 0.0826 0.8204
vt 0.4823 0.6423
vt 0.4932 0.6975
vt 0.4534 0.7097
vt 0.3740 0.8023
vt 0.4331 0.7952
vt 0.3691 0.7228
vt 0.4228 0.7164
vt 0.3679 0.1793
vt 0.3815 0.0413
vt 0.4434 0.0333
vt 0.4345 0.1856
vt 0.5017 0.0191
vt 0.5012 0.1887
vt 0.3491 0.4921
vt 0.3437 0.6466
vt 0.2670 0.6219
vt 0.2635 0.4335
vt 0.1904 0.6003
vt 0.1871 0.4331
vt 0.1794 0.2501
vt 0.1098 0.2587
vt 0.1265 0.1046
vt 0.2678 0.2402
vt 0.3491 0.2446
vt 0.4998 0.5430
vt 0.4949 0.3718
vt 0.5821 0.3800
vt 0.5795 0.5669
vt 0.4379 0.5183
vt 0.4218 0.3641
vt 0.3737 0.4897
vt 0.3491 0.3502
vt 0.7402 0.4245
vt 0.8837 0.3105
vt 0.0387 0.2736
vt 0.0000 0.2744
vt 1.0000 0.0000
vt 0.9989 0.1385
vt 0.9524 0.1409
vt 0.9530 0.0028
vt 0.8618 0.0285
vt 0.8837 0.1818
vt 0.6741 0.4287
vt 0.6611 0.3743
vt 0.6499 0.5586
vt 0.9256 0.1410
vt 0.9280 0.0029
vt 0.0625 0.1338
vn -0.0301 -0.1322 0.9908
vn -0.5346 -0.2124 0.8180
vn -0.5064 -0.4841 0.7136
vn -0.0731 -0.5342 0.8422
vn 0.0492 -0.9682 -0.2452
vn 0.4247 -0.8735 -0.2379
vn 0.4012 -0.8734 0.2759
vn 0.0471 -0.9438 0.3272
vn -0.0213 -0.3256 -0.9452
vn -0.5325 -0.4080 -0.7416
vn -0.3861 0.4487 -0.8060
vn -0.0340 0.5050 -0.8624
vn 0.9233 -0.2362 -0.3027
vn 0.8206 0.4686 -0.3271
vn 0.8183 0.4952 0.2916
vn 0.8954 -0.1935 0.4010
vn -0.9718 -0.2065 -0.1134
vn -0.9426 -0.3130 -0.1159
vn -0.9289 -0.3301 0.1676
vn -0.9558 -0.2262 0.1878
vn 0.1458 0.9889 0.0274
vn 0.2610 0.6113 0.7470
vn 0.3864 0.4940 -0.7788
vn 0.1755 0.9763 -0.1267
vn -0.9474 -0.1540 0.2806
vn -0.5106 0.4629 0.7246
vn -0.6460 0.7389 0.1917
vn -0.9639 -0.1194 -0.2378
vn -0.6344 0.7526 -0.1759
vn 0.7827 -0.5734 0.2421
vn 0.3315 -0.5308 0.7799
vn 0.3737 -0.4726 -0.7981
vn 0.7909 -0.5481 -0.2723
vn -0.4984 -0.8179 0.2874
vn -0.5053 -0.4655 -0.7266
vn -0.5047 -0.8441 -0.1807
vn -0.0292 0.9996 0.0007
vn -0.0129 0.6381 0.7698
vn -0.0396 0.9992 0.0029
vn -0.5789 -0.1569 -0.8001
vn -0.4817 -0.3251 0.8138
vn -0.8525 -0.4324 0.2934
vn 0.0320 -0.5333 -0.8453
vn -0.1087 -0.9341 0.3400
vn 0.5188 -0.2400 -0.8205
vn 0.4033 -0.2898 0.8679
vn 0.8690 -0.4035 0.2863
vn -0.0226 0.9997 0.0008
vn 0.3929 -0.1077 0.9132
vn 0.4385 -0.2127 0.8732
vn 0.8736 -0.3510 0.3371
vn 0.4689 -0.2590 -0.8444
vn 0.8820 -0.3840 -0.2731
vn 0.4744 -0.3100 -0.8239
vn 0.8785 -0.3978 -0.2647
vn -0.5370 -0.1973 0.8202
vn -0.9163 -0.3335 0.2213
vn -0.8753 -0.4530 -0.1690
vn -0.5819 -0.2875 -0.7607
vn -0.9302 -0.3475 -0.1176
vn -0.0436 -0.5199 -0.8531
vn -0.0002 -0.0750 -0.9972
vn -0.0201 -0.1762 -0.9841
vn -0.0633 0.5957 0.8007
vn -0.0474 -0.1766 0.9831
vn -0.0339 -0.0706 0.9969
vn -0.0216 -0.1035 0.9944
vn -0.0089 -0.1425 0.9897
vn 0.0083 -0.1505 0.9886
vn 0.0262 -0.1917 -0.9811
vn 0.0495 -0.2707 -0.9614
vn 0.0155 -0.0823 -0.9965
vn -0.0255 0.9985 -0.0478
vn 0.0194 -0.5553 0.8314
vn -0.1006 -0.9655 -0.2403
vn 0.0390 0.5615 -0.8265
usemtl None
s 1
f 75/1/1 31/2/2 20/3/3 62/4/4
f 59/5/5 18/6/6 15/7/7 64/8/8
f 69/9/9 25/10/10 10/11/11 50/12/12
f 40/13/13 4/14/14 1/15/15 48/16/16
f 28/17/17 24/18/18 21/19/19 36/20/20
f 1/21/15 2/22/21 3/23/22
f 4/24/14 5/25/23 6/26/24
f 7/27/25 8/28/26 9/29/27
f 10/30/11 11/31/28 12/32/29
f 13/33/30 14/34/31 15/7/7
f 16/35/32 17/36/33 18/37/6
f 19/38/34 20/39/3 21/19/19
f 22/40/35 23/41/36 24/18/18
f 1/21/15 4/24/14 6/26/24 2/22/21
f 50/42/12 10/43/11 12/44/29 51/45/37
f 11/31/28 7/27/25 9/29/27 12/32/29
f 54/46/38 3/23/22 2/22/21 55/47/39
f 27/48/40 22/40/35 24/18/18 28/17/17
f 23/41/36 19/38/34 21/19/19 24/18/18
f 33/49/41 8/28/26 7/27/25 34/50/42
f 58/51/43 16/52/32 18/6/6 59/5/5
f 17/36/33 13/53/30 15/54/7 18/37/6
f 62/4/4 20/3/3 19/55/34 63/56/44
f 39/57/45 5/58/23 4/14/14 40/13/13
f 45/59/46 14/60/31 13/53/30 46/61/47
f 51/45/37 12/44/29 9/62/27 56/63/48
f 3/64/22 43/65/49 48/66/16 1/67/15
f 43/65/49 44/68/50 47/69/51 48/66/16
f 44/70/50 45/59/46 46/61/47 47/71/51
f 16/35/32 37/72/52 42/73/53 17/36/33
f 37/72/52 38/74/54 41/75/55 42/73/53
f 38/74/54 39/57/45 40/13/13 41/75/55
f 20/39/3 31/76/2 36/20/20 21/19/19
f 31/76/2 32/77/56 35/78/57 36/20/20
f 32/77/56 33/49/41 34/50/42 35/78/57
f 10/30/11 25/79/10 30/80/58 11/31/28
f 25/79/10 26/81/59 29/82/60 30/80/58
f 26/81/59 27/48/40 28/17/17 29/82/60
f 11/31/28 30/80/58 34/50/42 7/27/25
f 30/80/58 29/82/60 35/78/57 34/50/42
f 29/82/60 28/17/17 36/20/20 35/78/57
f 17/36/33 42/73/53 46/61/47 13/53/30
f 42/73/53 41/75/55 47/71/51 46/61/47
f 41/75/55 40/13/13 48/16/16 47/71/51
f 57/83/61 22/84/35 27/85/40 65/86/62
f 65/86/62 27/85/40 26/87/59 67/88/63
f 67/88/63 26/87/59 25/10/10 69/9/9
f 53/89/64 8/90/26 33/91/41 71/92/65
f 71/92/65 33/91/41 32/93/56 73/94/66
f 73/94/66 32/93/56 31/2/2 75/1/1
f 44/68/50 74/95/67 76/96/68 45/97/46
f 74/95/67 73/94/66 75/1/1 76/96/68
f 43/65/49 72/98/69 74/95/67 44/68/50
f 72/98/69 71/92/65 73/94/66 74/95/67
f 3/64/22 54/99/38 72/98/69 43/65/49
f 54/99/38 53/89/64 71/92/65 72/98/69
f 38/100/54 68/101/70 70/102/71 39/103/45
f 68/101/70 67/88/63 69/9/9 70/102/71
f 37/104/52 66/105/72 68/101/70 38/100/54
f 66/105/72 65/86/62 67/88/63 68/101/70
f 16/106/32 58/107/43 66/105/72 37/104/52
f 58/107/43 57/83/61 65/86/62 66/105/72
f 6/26/24 52/108/73 55/47/39 2/22/21
f 52/108/73 51/45/37 56/63/48 55/47/39
f 14/34/31 61/109/74 64/8/8 15/7/7
f 61/110/74 62/4/4 63/56/44 64/111/8
f 22/112/35 57/113/61 60/114/75 23/115/36
f 57/113/61 58/51/43 59/5/5 60/114/75
f 8/116/26 53/117/64 56/63/48 9/62/27
f 53/117/64 54/46/38 55/47/39 56/63/48
f 5/25/23 49/118/76 52/108/73 6/26/24
f 49/118/76 50/42/12 51/45/37 52/108/73
f 39/103/45 70/102/71 49/119/76 5/120/23
f 70/102/71 69/9/9 50/12/12 49/119/76
f 23/115/36 60/114/75 63/121/44 19/122/34
f 60/114/75 59/5/5 64/8/8 63/121/44
f 45/97/46 76/96/68 61/110/74 14/123/31
f 76/96/68 75/1/1 62/4/4 61/110/74
