# Blender v2.77 (sub 0) OBJ File: 'Sandbag.blend'
# www.blender.org
mtllib Sandbag2.mtl
g SandBag2
v -0.124571 -0.079072 0.311156
v -0.151445 -0.077598 0.268370
v -0.124571 -0.138913 0.274687
v -0.124571 -0.035180 0.311156
v -0.124571 0.024625 0.274687
v -0.151445 -0.036605 0.268370
v -0.116213 -0.065008 -0.278651
v -0.116213 -0.119314 -0.261741
v -0.143087 -0.066473 -0.259565
v -0.120435 0.040447 -0.261741
v -0.117161 -0.025650 -0.278651
v -0.143922 -0.027431 -0.259565
v 0.121681 -0.074042 0.289709
v 0.121681 -0.136852 0.245687
v 0.148555 -0.070752 0.245687
v 0.121681 0.034624 0.245687
v 0.121681 -0.028372 0.282108
v 0.148555 -0.026609 0.245687
v 0.148555 -0.061707 -0.259565
v 0.121681 -0.113757 -0.261741
v 0.121681 -0.062328 -0.278651
v 0.121681 0.039451 -0.261741
v 0.148555 -0.025377 -0.259565
v 0.121681 -0.025616 -0.278651
v -0.059548 0.050741 -0.263151
v 0.001934 0.051618 -0.263312
v 0.061198 0.047803 -0.263151
v 0.063230 -0.030304 -0.278651
v 0.005729 -0.024582 -0.278651
v -0.055808 -0.020492 -0.278651
v 0.063838 -0.132301 -0.263151
v 0.006913 -0.125537 -0.263312
v -0.054650 -0.116754 -0.263151
v -0.054650 -0.061117 -0.278651
v 0.006913 -0.068220 -0.278651
v 0.063839 -0.074434 -0.278651
v 0.060118 0.036805 0.266563
v -0.001445 0.045834 0.274737
v -0.063008 0.043836 0.284927
v -0.063008 -0.025394 0.321349
v -0.001445 -0.024345 0.311159
v 0.060118 -0.030577 0.302985
v -0.063008 -0.147156 0.284927
v -0.001445 -0.148382 0.274737
v 0.060118 -0.147849 0.266563
v 0.060118 -0.079981 0.302985
v -0.001445 -0.076531 0.311159
v -0.063008 -0.076731 0.321349
vt 0.0883 0.0194
vt 0.0831 0.5799
vt 0.0001 0.5788
vt 0.0000 0.0417
vt 0.7827 0.0026
vt 0.7853 0.5371
vt 0.7536 0.5373
vt 0.7567 0.0028
vt 0.4415 0.0000
vt 0.4464 0.5799
vt 0.3591 0.5783
vt 0.3531 0.0107
vt 0.4062 0.6672
vt 0.4134 0.5800
vt 0.4449 0.5803
vt 0.4430 0.6675
vt 0.5486 0.7031
vt 0.5422 0.6195
vt 0.5685 0.6185
vt 0.5802 0.7011
vt 0.8729 0.0000
vt 0.8739 0.0445
vt 0.8292 0.0377
vt 0.9044 0.0006
vt 0.9466 0.0401
vt 0.9033 0.0451
vt 0.5828 0.9593
vt 0.6214 0.9579
vt 0.5849 0.9978
vt 0.5070 0.9681
vt 0.5546 0.9617
vt 0.5569 1.0000
vt 0.7516 0.5839
vt 0.7062 0.5376
vt 0.3591 0.9368
vt 0.4054 0.9344
vt 0.4028 0.9756
vt 0.5663 0.5800
vt 0.6051 0.6172
vt 0.4952 0.6212
vt 0.5403 0.5810
vt 0.9466 0.6077
vt 0.8986 0.6037
vt 0.8318 0.6055
vt 0.8706 0.6032
vt 0.4924 0.7080
vt 0.6164 0.8698
vt 0.5768 0.8712
vt 0.8292 0.0000
vt 0.8292 0.5368
vt 0.7843 0.5757
vt 0.7193 0.0007
vt 0.3554 0.6696
vt 0.3694 0.5825
vt 0.4912 0.8483
vt 0.4821 0.9379
vt 0.4384 0.9340
vt 0.4436 0.8450
vt 0.4867 0.5835
vt 0.4924 0.6708
vt 0.4924 0.7596
vt 0.4420 0.7563
vt 0.3587 0.8471
vt 0.4082 0.8447
vt 0.3531 0.7584
vt 0.4045 0.7560
vt 0.6214 0.6996
vt 0.6195 0.7813
vt 0.5787 0.7828
vt 0.4965 0.8811
vt 0.5477 0.8739
vt 0.4927 0.7931
vt 0.5474 0.7856
vt 0.7062 0.0414
vt 0.7062 0.5783
vt 0.6195 0.5798
vt 0.6179 0.0194
vt 0.5346 0.5800
vt 0.5297 0.0108
vt 0.3531 0.0110
vt 0.3412 0.5787
vt 0.2529 0.5802
vt 0.2648 0.0000
vt 0.1647 0.5802
vt 0.1766 0.0108
vn 0.1601 -0.8570 0.4899
vn 0.0743 -0.8107 -0.5807
vn 0.5292 -0.6602 -0.5329
vn 0.6037 -0.7328 0.3139
vn 0.8863 0.1690 -0.4311
vn 0.9362 0.2006 0.2884
vn 0.9480 -0.1775 0.2641
vn 0.8857 -0.1836 -0.4264
vn -0.0978 0.8396 0.5343
vn -0.0952 0.7876 -0.6087
vn -0.5475 0.6631 -0.5105
vn -0.6041 0.6914 0.3961
vn -0.0317 0.2499 0.9677
vn -0.5408 0.2001 0.8169
vn -0.5226 -0.2195 0.8238
vn -0.0062 -0.2348 0.9720
vn 0.0085 0.0992 -0.9950
vn 0.2997 0.1130 -0.9473
vn 0.3121 -0.1297 -0.9411
vn 0.0171 -0.1505 -0.9884
vn -0.9497 -0.1942 0.2456
vn -0.5198 -0.7674 0.3753
vn -0.9534 0.1669 0.2514
vn -0.2881 -0.1415 -0.9471
vn -0.4554 -0.7241 -0.5179
vn -0.8780 -0.1945 -0.4374
vn -0.3060 0.0997 -0.9468
vn -0.8879 0.1447 -0.4367
vn 0.5633 -0.1870 0.8048
vn 0.5569 0.7505 0.3558
vn 0.5580 0.2442 0.7931
vn 0.4852 0.6977 -0.5270
vn 0.0751 0.7824 -0.6182
vn -0.0486 -0.7666 -0.6403
vn -0.0073 -0.1302 -0.9914
vn 0.2045 -0.2406 0.9488
vn -0.0389 -0.8502 0.5249
vn 0.0295 -0.8694 0.4932
vn 0.1403 -0.2305 0.9629
vn 0.1943 0.8242 0.5320
vn 0.2154 0.2459 0.9451
vn 0.1081 0.8591 0.5002
vn 0.1550 0.2456 0.9569
vn -0.0628 -0.7798 -0.6228
vn -0.0161 -0.1319 -0.9911
vn -0.0092 0.1138 -0.9934
vn 0.0345 0.7838 -0.6200
vn 0.0057 0.1017 -0.9948
usemtl None
s 1
f 45/1/1 31/2/2 20/3/3 14/4/4
f 23/5/5 18/6/6 15/7/7 19/8/8
f 39/9/9 25/10/10 10/11/11 5/12/12
f 40/13/13 4/14/14 1/15/15 48/16/16
f 28/17/17 24/18/18 21/19/19 36/20/20
f 1/21/15 2/22/21 3/23/22
f 4/24/14 5/25/12 6/26/23
f 7/27/24 8/28/25 9/29/26
f 10/30/11 11/31/27 12/32/28
f 13/33/29 14/34/4 15/7/7
f 16/35/30 17/36/31 18/37/6
f 19/38/8 20/39/3 21/19/19
f 22/40/32 23/41/5 24/18/18
f 1/21/15 4/24/14 6/26/23 2/22/21
f 5/25/12 10/42/11 12/43/28 6/26/23
f 11/31/27 7/27/24 9/29/26 12/32/28
f 8/44/25 3/23/22 2/22/21 9/45/26
f 27/46/33 22/40/32 24/18/18 28/17/17
f 23/41/5 19/38/8 21/19/19 24/18/18
f 33/47/34 8/28/25 7/27/24 34/48/35
f 22/49/32 16/50/30 18/6/6 23/5/5
f 17/51/31 13/33/29 15/7/7 18/6/6
f 14/34/4 20/52/3 19/8/8 15/7/7
f 39/53/9 5/54/12 4/14/14 40/13/13
f 45/55/1 14/56/4 13/57/29 46/58/36
f 6/26/23 12/43/28 9/45/26 2/22/21
f 3/59/22 43/60/37 48/16/16 1/15/15
f 43/60/37 44/61/38 47/62/39 48/16/16
f 44/61/38 45/55/1 46/58/36 47/62/39
f 16/35/30 37/63/40 42/64/41 17/36/31
f 37/63/40 38/65/42 41/66/43 42/64/41
f 38/65/42 39/53/9 40/13/13 41/66/43
f 20/39/3 31/67/2 36/20/20 21/19/19
f 31/67/2 32/68/44 35/69/45 36/20/20
f 32/68/44 33/47/34 34/48/35 35/69/45
f 10/30/11 25/70/10 30/71/46 11/31/27
f 25/70/10 26/72/47 29/73/48 30/71/46
f 26/72/47 27/46/33 28/17/17 29/73/48
f 11/31/27 30/71/46 34/48/35 7/27/24
f 30/71/46 29/73/48 35/69/45 34/48/35
f 29/73/48 28/17/17 36/20/20 35/69/45
f 17/36/31 42/64/41 46/58/36 13/57/29
f 42/64/41 41/66/43 47/62/39 46/58/36
f 41/66/43 40/13/13 48/16/16 47/62/39
f 16/74/30 22/75/32 27/76/33 37/77/40
f 37/77/40 27/76/33 26/78/47 38/79/42
f 38/79/42 26/78/47 25/10/10 39/9/9
f 3/80/22 8/81/25 33/82/34 43/83/37
f 43/83/37 33/82/34 32/84/44 44/85/38
f 44/85/38 32/84/44 31/2/2 45/1/1
