# Blender v2.77 (sub 0) OBJ File: 'Chest.blend'
# www.blender.org
mtllib Crate1.mtl
g Crate1
v -0.307574 -0.039970 0.317945
v -0.307574 0.318763 0.317945
v -0.307574 -0.039970 -0.317824
v -0.307574 0.318763 -0.317824
v 0.307698 -0.039970 0.317945
v 0.307698 0.318763 0.317945
v 0.307698 -0.039970 -0.317824
v 0.307698 0.318763 -0.317824
v -0.307574 0.318763 0.282704
v -0.307574 -0.039970 0.282704
v 0.307698 0.318763 0.282704
v 0.307698 -0.039970 0.282704
v -0.307574 0.318763 -0.282838
v 0.307698 -0.039970 -0.282838
v -0.307574 -0.039970 -0.282838
v 0.307698 0.318763 -0.282838
v 0.264983 0.318763 -0.317824
v 0.264983 -0.039970 -0.317824
v 0.264983 0.318763 0.317945
v 0.264983 -0.039970 0.317945
v 0.264983 0.318763 0.282704
v 0.264983 -0.039970 0.282704
v 0.264983 0.318763 -0.282838
v 0.264983 -0.039970 -0.282838
v -0.265121 -0.039970 -0.317824
v -0.265121 0.318763 0.317945
v -0.265121 0.318763 0.282704
v -0.265121 0.318763 -0.282838
v -0.265121 0.318763 -0.317824
v -0.265121 -0.039970 0.317945
v -0.265121 -0.039970 0.282704
v -0.265121 -0.039970 -0.282838
v 0.264983 0.312342 -0.282838
v 0.264983 0.312342 0.282704
v -0.265121 0.312342 0.282704
v -0.265121 0.312342 -0.282838
v -0.307574 0.286037 0.317945
v -0.307574 0.286037 -0.317824
v 0.307698 0.286037 -0.317824
v 0.307698 0.286037 0.317945
v 0.307698 0.286037 0.282704
v -0.307574 0.286037 0.282704
v 0.307698 0.286037 -0.282838
v -0.307574 0.286037 -0.282838
v 0.264983 0.286037 0.317945
v 0.264983 0.286037 -0.317824
v -0.265121 0.286037 -0.317824
v -0.265121 0.286037 0.317945
v -0.307574 -0.004657 -0.317824
v 0.307698 -0.004657 -0.317824
v 0.307698 -0.004657 0.317945
v 0.307698 -0.004657 0.282704
v -0.307574 -0.004657 0.282704
v 0.307698 -0.004657 -0.282838
v -0.307574 -0.004657 -0.282838
v 0.264983 -0.004657 0.317945
v 0.264983 -0.004657 -0.317824
v -0.265121 -0.004657 -0.317824
v -0.265121 -0.004657 0.317945
v -0.307574 -0.004657 0.317945
v -0.301115 0.286037 -0.282838
v -0.301115 0.286037 0.282704
v 0.301240 0.286037 0.282704
v 0.301240 0.286037 -0.282838
v 0.301240 -0.004657 0.282704
v -0.301115 -0.004657 0.282704
v 0.301240 -0.004657 -0.282838
v -0.301115 -0.004657 -0.282838
v -0.265121 0.286037 0.305214
v 0.264983 0.286037 0.305214
v 0.264983 0.286037 -0.305093
v -0.265121 0.286037 -0.305093
v 0.264983 -0.004657 0.305214
v 0.264983 -0.004657 -0.305093
v -0.265121 -0.004657 -0.305093
v -0.265121 -0.004657 0.305214
vt 0.6673 0.3692
vt 0.6673 0.3500
vt 0.6868 0.3500
vt 0.6868 0.3692
vt 0.8648 0.3735
vt 0.8648 0.3500
vt 0.8842 0.3500
vt 0.8842 0.3735
vt 0.4699 0.3694
vt 0.4699 0.3500
vt 0.4893 0.3500
vt 0.4893 0.3694
vt 0.6968 0.3153
vt 0.6968 0.3387
vt 0.6774 0.3387
vt 0.6774 0.3153
vt 0.3152 0.0193
vt 0.3152 0.0000
vt 0.3387 0.0000
vt 0.3387 0.0193
vt 0.3621 0.3307
vt 0.3621 0.3500
vt 0.3387 0.3500
vt 0.3387 0.3307
vt 0.3621 0.0000
vt 0.3621 0.0194
vt 0.3387 0.0194
vt 0.3387 0.0000
vt 0.3152 0.3500
vt 0.3152 0.3306
vt 0.3387 0.3306
vt 0.3387 0.3500
vt 0.4699 0.6807
vt 0.4893 0.6807
vt 0.6673 0.7000
vt 0.6673 0.6806
vt 0.6868 0.6806
vt 0.6868 0.7000
vt 0.4699 0.7000
vt 0.4893 0.7000
vt 0.0234 0.3306
vt 0.0234 0.0193
vt 0.6774 0.0194
vt 0.6774 0.3307
vt 0.6539 0.3307
vt 0.6539 0.0194
vt 0.0234 0.3500
vt 0.6774 0.0000
vt 0.6539 0.0000
vt 0.6774 0.3500
vt 0.6539 0.3500
vt 0.0234 0.0000
vt 0.6968 0.0000
vt 0.6968 0.0235
vt 0.6774 0.0235
vt 0.6774 0.0000
vt 0.8648 0.6653
vt 0.8842 0.6653
vt 0.8648 0.6887
vt 0.8842 0.6887
vt 0.0000 0.0193
vt 0.0000 0.0000
vt 0.0000 0.3500
vt 0.0000 0.3306
vt 0.9090 0.3500
vt 0.9090 0.6418
vt 0.9055 0.6418
vt 0.9055 0.3500
vt 0.2918 0.3500
vt 0.2918 0.6613
vt 0.0000 0.6613
vt 0.0000 0.3500
vt 0.8995 0.3113
vt 0.8995 0.0000
vt 0.9030 0.0000
vt 0.9030 0.3113
vt 0.9019 0.6613
vt 0.9019 0.3500
vt 0.9055 0.6613
vt 0.9030 0.2918
vt 0.9030 0.0000
vt 0.9065 0.0000
vt 0.9065 0.2918
vt 0.8749 0.0235
vt 0.8749 0.3153
vt 0.8569 0.3153
vt 0.8569 0.0235
vt 0.6868 0.6887
vt 0.6868 0.6653
vt 0.7048 0.6653
vt 0.7048 0.6887
vt 0.6868 0.3735
vt 0.7048 0.3735
vt 0.8749 0.0000
vt 0.8569 0.0000
vt 0.4893 0.6806
vt 0.4893 0.3692
vt 0.5073 0.3692
vt 0.5073 0.6806
vt 0.2918 0.7000
vt 0.2918 0.6807
vt 0.3098 0.6807
vt 0.3098 0.7000
vt 0.4893 0.7000
vt 0.5073 0.7000
vt 0.2918 0.3694
vt 0.3098 0.3694
vt 0.8749 0.3387
vt 0.8569 0.3387
vt 0.2918 0.3500
vt 0.3098 0.3500
vt 0.6868 0.3500
vt 0.7048 0.3500
vt 0.4893 0.3500
vt 0.5073 0.3500
vt 0.8889 0.0000
vt 0.8889 0.2918
vt 0.8819 0.2918
vt 0.8819 0.0000
vt 0.8842 0.6418
vt 0.8842 0.3500
vt 0.8913 0.3500
vt 0.8913 0.6418
vt 0.1952 0.8213
vt 0.1952 0.6613
vt 0.1987 0.6613
vt 0.1987 0.8213
vt 0.8959 0.3113
vt 0.8959 0.0000
vt 0.8995 0.0000
vt 0.8995 0.3113
vt 0.6868 1.0000
vt 0.6868 0.6887
vt 0.8468 0.6887
vt 0.8468 1.0000
vt 0.0000 0.9726
vt 0.0000 0.6613
vt 0.1600 0.6613
vt 0.1600 0.9726
vt 0.8984 0.6613
vt 0.8984 0.3500
vt 0.9019 0.3500
vt 0.9019 0.6613
vt 0.1916 0.6613
vt 0.1916 0.8213
vt 0.1881 0.8213
vt 0.1881 0.6613
vt 0.8984 0.3500
vt 0.8984 0.6613
vt 0.8948 0.6613
vt 0.8948 0.3500
vt 0.2023 0.6613
vt 0.2023 0.8213
vt 0.1987 0.8213
vt 0.1987 0.6613
vt 0.8948 0.3500
vt 0.8948 0.6613
vt 0.8913 0.6613
vt 0.8913 0.3500
vt 0.1916 0.8213
vt 0.1916 0.6613
vt 0.1952 0.6613
vt 0.1952 0.8213
vt 0.6119 0.7000
vt 0.6119 0.9918
vt 0.4518 0.9918
vt 0.4518 0.7000
vt 0.2918 0.9918
vt 0.2918 0.7000
vt 0.4518 0.7000
vt 0.4518 0.9918
vt 0.8819 0.0000
vt 0.8819 0.2918
vt 0.8749 0.2918
vt 0.8749 0.0000
vt 0.1670 0.6613
vt 0.1670 0.8213
vt 0.1600 0.8213
vt 0.1600 0.6613
vt 0.8889 0.2918
vt 0.8889 0.0000
vt 0.8959 0.0000
vt 0.8959 0.2918
vt 0.1881 0.6613
vt 0.1881 0.8213
vt 0.1810 0.8213
vt 0.1810 0.6613
vt 0.1670 0.8213
vt 0.1670 0.6613
vt 0.1740 0.6613
vt 0.1740 0.8213
vt 0.1740 0.8213
vt 0.1740 0.6613
vt 0.1810 0.6613
vt 0.1810 0.8213
vn -1.0000 0.0000 0.0000
vn 0.0000 0.0000 -1.0000
vn 1.0000 0.0000 0.0000
vn 0.0000 0.0000 1.0000
vn 0.0000 -1.0000 0.0000
vn 0.0000 1.0000 0.0000
usemtl Crate1
s off
f 55/1/1 49/2/1 3/3/1 15/4/1
f 57/5/2 50/6/2 7/7/2 18/8/2
f 52/9/3 51/10/3 5/11/3 12/12/3
f 59/13/4 60/14/4 1/15/4 30/16/4
f 24/17/5 18/18/5 7/19/5 14/20/5
f 28/21/6 29/22/6 4/23/6 13/24/6
f 26/25/6 27/26/6 9/27/6 2/28/6
f 20/29/5 22/30/5 12/31/5 5/32/5
f 54/33/3 52/9/3 12/12/3 14/34/3
f 60/35/1 53/36/1 10/37/1 1/38/1
f 50/39/3 54/33/3 14/34/3 7/40/3
f 27/26/6 28/21/6 13/24/6 9/27/6
f 22/30/5 24/17/5 14/20/5 12/31/5
f 53/36/1 55/1/1 15/4/1 10/37/1
f 31/41/5 32/42/5 24/17/5 22/30/5
f 11/43/6 16/44/6 23/45/6 21/46/6
f 30/47/5 31/41/5 22/30/5 20/29/5
f 6/48/6 11/43/6 21/46/6 19/49/6
f 16/44/6 8/50/6 17/51/6 23/45/6
f 32/42/5 25/52/5 18/18/5 24/17/5
f 51/53/4 56/54/4 20/55/4 5/56/4
f 58/57/2 57/5/2 18/8/2 25/58/2
f 49/59/2 58/57/2 25/58/2 3/60/2
f 15/61/5 3/62/5 25/52/5 32/42/5
f 1/63/5 10/64/5 31/41/5 30/47/5
f 10/64/5 15/61/5 32/42/5 31/41/5
f 23/65/4 28/66/4 36/67/4 33/68/4
f 19/49/6 21/46/6 27/26/6 26/25/6
f 23/45/6 17/51/6 29/22/6 28/21/6
f 56/54/4 59/13/4 30/16/4 20/55/4
f 34/69/6 33/70/6 36/71/6 35/72/6
f 28/73/3 27/74/3 35/75/3 36/76/3
f 21/77/1 23/78/1 33/68/1 34/79/1
f 27/80/2 21/81/2 34/82/2 35/83/2
f 19/84/4 26/85/4 48/86/4 45/87/4
f 4/88/2 29/89/2 47/90/2 38/91/2
f 29/89/2 17/92/2 46/93/2 47/90/2
f 6/94/4 19/84/4 45/87/4 40/95/4
f 9/96/1 13/97/1 44/98/1 42/99/1
f 8/100/3 16/101/3 43/102/3 39/103/3
f 2/104/1 9/96/1 42/99/1 37/105/1
f 16/101/3 11/106/3 41/107/3 43/102/3
f 26/85/4 2/108/4 37/109/4 48/86/4
f 11/106/3 6/110/3 40/111/3 41/107/3
f 17/92/2 8/112/2 39/113/2 46/93/2
f 13/97/1 4/114/1 38/115/1 44/98/1
f 59/116/6 56/117/6 73/118/6 76/119/6
f 38/91/2 47/90/2 58/57/2 49/59/2
f 57/120/6 58/121/6 75/122/6 74/123/6
f 40/95/4 45/87/4 56/54/4 51/53/4
f 54/124/4 43/125/4 64/126/4 67/127/4
f 39/103/3 43/102/3 54/33/3 50/39/3
f 37/105/1 42/99/1 53/36/1 60/35/1
f 55/128/6 53/129/6 66/130/6 68/131/6
f 48/86/4 37/109/4 60/14/4 59/13/4
f 41/107/3 40/111/3 51/10/3 52/9/3
f 46/93/2 39/113/2 50/6/2 57/5/2
f 44/98/1 38/115/1 49/2/1 55/1/1
f 62/132/1 61/133/1 68/134/1 66/135/1
f 64/136/3 63/137/3 65/138/3 67/139/3
f 42/140/5 44/141/5 61/142/5 62/143/5
f 41/144/2 52/145/2 65/146/2 63/147/2
f 52/148/6 54/149/6 67/150/6 65/151/6
f 44/152/4 55/153/4 68/154/4 61/155/4
f 43/156/5 41/157/5 63/158/5 64/159/5
f 53/160/2 42/161/2 62/162/2 66/163/2
f 70/164/4 69/165/4 76/166/4 73/167/4
f 72/168/2 71/169/2 74/170/2 75/171/2
f 47/172/5 46/173/5 71/174/5 72/175/5
f 48/176/3 59/177/3 76/178/3 69/179/3
f 45/180/5 48/181/5 69/182/5 70/183/5
f 46/184/1 57/185/1 74/186/1 71/187/1
f 58/188/3 47/189/3 72/190/3 75/191/3
f 56/192/1 45/193/1 70/194/1 73/195/1
