# Blender v2.77 (sub 0) OBJ File: 'Chest.blend'
# www.blender.org
mtllib Crate2.mtl
g Crate2
v -0.307574 -0.039999 0.750067
v -0.307574 0.319001 0.750067
v -0.307574 -0.039999 -0.749933
v -0.307574 0.319001 -0.749933
v 0.307698 -0.039999 0.750067
v 0.307698 0.319001 0.750067
v 0.307698 -0.039999 -0.749933
v 0.307698 0.319001 -0.749933
v -0.307574 0.319001 0.711275
v -0.307574 -0.039999 0.711275
v 0.307698 0.319001 0.711275
v 0.307698 -0.039999 0.711275
v -0.307574 0.319001 -0.711423
v 0.307698 -0.039999 -0.711423
v -0.307574 -0.039999 -0.711423
v 0.307698 0.319001 -0.711423
v 0.264983 0.319001 -0.749933
v 0.264983 -0.039999 -0.749933
v 0.264983 0.319001 0.750067
v 0.264983 -0.039999 0.750067
v 0.264983 0.319001 0.711275
v 0.264983 -0.039999 0.711275
v 0.264983 0.319001 -0.711423
v 0.264983 -0.039999 -0.711423
v -0.265121 -0.039999 -0.749933
v -0.265121 0.319001 0.750067
v -0.265121 0.319001 0.711275
v -0.265121 0.319001 -0.711423
v -0.265121 0.319001 -0.749933
v -0.265121 -0.039999 0.750067
v -0.265121 -0.039999 0.711275
v -0.265121 -0.039999 -0.711423
v 0.264983 0.312574 -0.711423
v 0.264983 0.312574 0.711275
v -0.265121 0.312574 0.711275
v -0.265121 0.312574 -0.711423
v -0.307574 0.286250 0.750067
v -0.307574 0.286250 -0.749933
v 0.307698 0.286250 -0.749933
v 0.307698 0.286250 0.750067
v 0.307698 0.286250 0.711275
v -0.307574 0.286250 0.711275
v 0.307698 0.286250 -0.711423
v -0.307574 0.286250 -0.711423
v 0.264983 0.286250 0.750067
v 0.264983 0.286250 -0.749933
v -0.265121 0.286250 -0.749933
v -0.265121 0.286250 0.750067
v -0.307574 -0.004660 -0.749933
v 0.307698 -0.004660 -0.749933
v 0.307698 -0.004660 0.750067
v 0.307698 -0.004660 0.711275
v -0.307574 -0.004660 0.711275
v 0.307698 -0.004660 -0.711423
v -0.307574 -0.004660 -0.711423
v 0.264983 -0.004660 0.750067
v 0.264983 -0.004660 -0.749933
v -0.265121 -0.004660 -0.749933
v -0.265121 -0.004660 0.750067
v -0.307574 -0.004660 0.750067
v -0.301115 0.286250 -0.711423
v -0.301115 0.286250 0.711275
v 0.301240 0.286250 0.711275
v 0.301240 0.286250 -0.711423
v 0.301240 -0.004660 0.711275
v -0.301115 -0.004660 0.711275
v 0.301240 -0.004660 -0.711423
v -0.301115 -0.004660 -0.711423
v -0.265121 0.286250 0.736053
v 0.264983 0.286250 0.736053
v 0.264983 0.286250 -0.735920
v -0.265121 0.286250 -0.735920
v 0.264983 -0.004660 0.736053
v 0.264983 -0.004660 -0.735920
v -0.265121 -0.004660 -0.735920
v -0.265121 -0.004660 0.736053
vt 0.9200 0.0132
vt 0.9200 0.0000
vt 0.9333 0.0000
vt 0.9333 0.0132
vt 0.3664 0.5293
vt 0.3664 0.5132
vt 0.3797 0.5132
vt 0.3797 0.5293
vt 0.7849 0.0133
vt 0.7849 0.0000
vt 0.7982 0.0000
vt 0.7982 0.0133
vt 0.1228 0.7290
vt 0.1228 0.7449
vt 0.1095 0.7449
vt 0.1095 0.7290
vt 0.2156 0.0132
vt 0.2156 0.0000
vt 0.2317 0.0000
vt 0.2317 0.0132
vt 0.2477 0.5000
vt 0.2477 0.5132
vt 0.2317 0.5132
vt 0.2317 0.5000
vt 0.2477 0.0000
vt 0.2477 0.0133
vt 0.2317 0.0133
vt 0.2317 0.0000
vt 0.2156 0.5132
vt 0.2156 0.5000
vt 0.2317 0.5000
vt 0.2317 0.5132
vt 0.7849 0.5000
vt 0.7982 0.5000
vt 0.9200 0.5132
vt 0.9200 0.5000
vt 0.9333 0.5000
vt 0.9333 0.5132
vt 0.7849 0.5132
vt 0.7982 0.5132
vt 0.0160 0.5000
vt 0.0160 0.0132
vt 0.4634 0.0133
vt 0.4634 0.5000
vt 0.4473 0.5000
vt 0.4473 0.0133
vt 0.0160 0.5132
vt 0.4634 0.0000
vt 0.4473 0.0000
vt 0.4634 0.5132
vt 0.4473 0.5132
vt 0.0160 0.0000
vt 0.1228 0.5132
vt 0.1228 0.5293
vt 0.1095 0.5293
vt 0.1095 0.5132
vt 0.3664 0.7290
vt 0.3797 0.7290
vt 0.3664 0.7449
vt 0.3797 0.7449
vt 0.0000 0.0132
vt 0.0000 0.0000
vt 0.0000 0.5132
vt 0.0000 0.5000
vt 0.6161 0.4868
vt 0.6161 0.6864
vt 0.6137 0.6864
vt 0.6137 0.4868
vt 0.6631 0.0000
vt 0.6631 0.4868
vt 0.4634 0.4868
vt 0.4634 0.0000
vt 0.9430 0.4868
vt 0.9430 0.0000
vt 0.9454 0.0000
vt 0.9454 0.4868
vt 0.9454 0.4868
vt 0.9454 0.0000
vt 0.9479 0.0000
vt 0.9479 0.4868
vt 0.6113 0.6864
vt 0.6113 0.4868
vt 0.6137 0.4868
vt 0.6137 0.6864
vt 0.2446 0.5293
vt 0.2446 0.7290
vt 0.2323 0.7290
vt 0.2323 0.5293
vt 0.2446 0.7449
vt 0.2446 0.7290
vt 0.2569 0.7290
vt 0.2569 0.7449
vt 0.2446 0.5293
vt 0.2569 0.5293
vt 0.2446 0.5132
vt 0.2323 0.5132
vt 0.7982 0.5000
vt 0.7982 0.0132
vt 0.8105 0.0132
vt 0.8105 0.5000
vt 0.6631 0.5132
vt 0.6631 0.5000
vt 0.6754 0.5000
vt 0.6754 0.5132
vt 0.7982 0.5132
vt 0.8105 0.5132
vt 0.6631 0.0133
vt 0.6754 0.0133
vt 0.2446 0.7449
vt 0.2323 0.7449
vt 0.6631 0.0000
vt 0.6754 0.0000
vt 0.2446 0.5132
vt 0.2569 0.5132
vt 0.7982 0.0000
vt 0.8105 0.0000
vt 0.5921 0.4868
vt 0.5921 0.6864
vt 0.5873 0.6864
vt 0.5873 0.4868
vt 0.5729 0.6864
vt 0.5729 0.4868
vt 0.5777 0.4868
vt 0.5777 0.6864
vt 0.6185 0.5963
vt 0.6185 0.4868
vt 0.6210 0.4868
vt 0.6210 0.5963
vt 0.9406 0.4868
vt 0.9406 0.0000
vt 0.9430 0.0000
vt 0.9430 0.4868
vt 0.0000 1.0000
vt 0.0000 0.5132
vt 0.1095 0.5132
vt 0.1095 1.0000
vt 0.4634 0.9736
vt 0.4634 0.4868
vt 0.5729 0.4868
vt 0.5729 0.9736
vt 0.9333 0.4868
vt 0.9333 0.0000
vt 0.9357 0.0000
vt 0.9357 0.4868
vt 0.3821 0.5132
vt 0.3821 0.6227
vt 0.3797 0.6227
vt 0.3797 0.5132
vt 0.9381 0.0000
vt 0.9381 0.4868
vt 0.9357 0.4868
vt 0.9357 0.0000
vt 0.6185 0.4868
vt 0.6185 0.5963
vt 0.6161 0.5963
vt 0.6161 0.4868
vt 0.9406 0.0000
vt 0.9406 0.4868
vt 0.9381 0.4868
vt 0.9381 0.0000
vt 0.3821 0.6227
vt 0.3821 0.5132
vt 0.3845 0.5132
vt 0.3845 0.6227
vt 0.8820 0.5132
vt 0.8820 0.7129
vt 0.7726 0.7129
vt 0.7726 0.5132
vt 0.6631 0.7129
vt 0.6631 0.5132
vt 0.7726 0.5132
vt 0.7726 0.7129
vt 0.5825 0.4868
vt 0.5825 0.6864
vt 0.5777 0.6864
vt 0.5777 0.4868
vt 0.6017 0.4868
vt 0.6017 0.5963
vt 0.5969 0.5963
vt 0.5969 0.4868
vt 0.5825 0.6864
vt 0.5825 0.4868
vt 0.5873 0.4868
vt 0.5873 0.6864
vt 0.6065 0.4868
vt 0.6065 0.5963
vt 0.6017 0.5963
vt 0.6017 0.4868
vt 0.5921 0.5963
vt 0.5921 0.4868
vt 0.5969 0.4868
vt 0.5969 0.5963
vt 0.6065 0.5963
vt 0.6065 0.4868
vt 0.6113 0.4868
vt 0.6113 0.5963
vn -1.0000 0.0000 0.0000
vn 0.0000 0.0000 -1.0000
vn 1.0000 0.0000 0.0000
vn 0.0000 0.0000 1.0000
vn 0.0000 -1.0000 0.0000
vn 0.0000 1.0000 0.0000
usemtl Crate2
s off
f 55/1/1 49/2/1 3/3/1 15/4/1
f 57/5/2 50/6/2 7/7/2 18/8/2
f 52/9/3 51/10/3 5/11/3 12/12/3
f 59/13/4 60/14/4 1/15/4 30/16/4
f 24/17/5 18/18/5 7/19/5 14/20/5
f 28/21/6 29/22/6 4/23/6 13/24/6
f 26/25/6 27/26/6 9/27/6 2/28/6
f 20/29/5 22/30/5 12/31/5 5/32/5
f 54/33/3 52/9/3 12/12/3 14/34/3
f 60/35/1 53/36/1 10/37/1 1/38/1
f 50/39/3 54/33/3 14/34/3 7/40/3
f 27/26/6 28/21/6 13/24/6 9/27/6
f 22/30/5 24/17/5 14/20/5 12/31/5
f 53/36/1 55/1/1 15/4/1 10/37/1
f 31/41/5 32/42/5 24/17/5 22/30/5
f 11/43/6 16/44/6 23/45/6 21/46/6
f 30/47/5 31/41/5 22/30/5 20/29/5
f 6/48/6 11/43/6 21/46/6 19/49/6
f 16/44/6 8/50/6 17/51/6 23/45/6
f 32/42/5 25/52/5 18/18/5 24/17/5
f 51/53/4 56/54/4 20/55/4 5/56/4
f 58/57/2 57/5/2 18/8/2 25/58/2
f 49/59/2 58/57/2 25/58/2 3/60/2
f 15/61/5 3/62/5 25/52/5 32/42/5
f 1/63/5 10/64/5 31/41/5 30/47/5
f 10/64/5 15/61/5 32/42/5 31/41/5
f 23/65/4 28/66/4 36/67/4 33/68/4
f 19/49/6 21/46/6 27/26/6 26/25/6
f 23/45/6 17/51/6 29/22/6 28/21/6
f 56/54/4 59/13/4 30/16/4 20/55/4
f 34/69/6 33/70/6 36/71/6 35/72/6
f 28/73/3 27/74/3 35/75/3 36/76/3
f 21/77/1 23/78/1 33/79/1 34/80/1
f 27/81/2 21/82/2 34/83/2 35/84/2
f 19/85/4 26/86/4 48/87/4 45/88/4
f 4/89/2 29/90/2 47/91/2 38/92/2
f 29/90/2 17/93/2 46/94/2 47/91/2
f 6/95/4 19/85/4 45/88/4 40/96/4
f 9/97/1 13/98/1 44/99/1 42/100/1
f 8/101/3 16/102/3 43/103/3 39/104/3
f 2/105/1 9/97/1 42/100/1 37/106/1
f 16/102/3 11/107/3 41/108/3 43/103/3
f 26/86/4 2/109/4 37/110/4 48/87/4
f 11/107/3 6/111/3 40/112/3 41/108/3
f 17/93/2 8/113/2 39/114/2 46/94/2
f 13/98/1 4/115/1 38/116/1 44/99/1
f 59/117/6 56/118/6 73/119/6 76/120/6
f 38/92/2 47/91/2 58/57/2 49/59/2
f 57/121/6 58/122/6 75/123/6 74/124/6
f 40/96/4 45/88/4 56/54/4 51/53/4
f 54/125/4 43/126/4 64/127/4 67/128/4
f 39/104/3 43/103/3 54/33/3 50/39/3
f 37/106/1 42/100/1 53/36/1 60/35/1
f 55/129/6 53/130/6 66/131/6 68/132/6
f 48/87/4 37/110/4 60/14/4 59/13/4
f 41/108/3 40/112/3 51/10/3 52/9/3
f 46/94/2 39/114/2 50/6/2 57/5/2
f 44/99/1 38/116/1 49/2/1 55/1/1
f 62/133/1 61/134/1 68/135/1 66/136/1
f 64/137/3 63/138/3 65/139/3 67/140/3
f 42/141/5 44/142/5 61/143/5 62/144/5
f 41/145/2 52/146/2 65/147/2 63/148/2
f 52/149/6 54/150/6 67/151/6 65/152/6
f 44/153/4 55/154/4 68/155/4 61/156/4
f 43/157/5 41/158/5 63/159/5 64/160/5
f 53/161/2 42/162/2 62/163/2 66/164/2
f 70/165/4 69/166/4 76/167/4 73/168/4
f 72/169/2 71/170/2 74/171/2 75/172/2
f 47/173/5 46/174/5 71/175/5 72/176/5
f 48/177/3 59/178/3 76/179/3 69/180/3
f 45/181/5 48/182/5 69/183/5 70/184/5
f 46/185/1 57/186/1 74/187/1 71/188/1
f 58/189/3 47/190/3 72/191/3 75/192/3
f 56/193/1 45/194/1 70/195/1 73/196/1
