# Blender v2.77 (sub 0) OBJ File: 'TrenchBlocks.blend'
# www.blender.org
mtllib BunkerRoof.mtl
g BunkerRoof
v 0.675873 -0.026840 -1.002375
v 0.675873 0.026840 -0.999661
v 0.675873 -0.026840 1.000338
v 0.675873 0.026840 1.000338
v -0.675871 0.026840 -0.999661
v -0.675871 -0.026840 -0.999661
v -0.675871 0.026840 1.000338
v -0.675871 -0.026840 1.000338
vt 1.0000 0.9438
vt 0.9812 0.9438
vt 0.9812 0.4719
vt 1.0000 0.4719
vt 0.9812 0.6982
vt 0.9625 0.6982
vt 0.9625 0.0000
vt 0.9812 0.0000
vt 0.9812 0.0000
vt 1.0000 0.0000
vt 1.0000 0.4719
vt 0.9813 0.4719
vt 0.0000 0.6991
vt 0.0000 0.0000
vt 0.4719 0.0000
vt 0.4719 0.6982
vt 0.9438 0.0000
vt 0.9625 0.0000
vt 0.9625 0.6991
vt 0.9438 0.6982
vt 0.4719 0.6982
vt 0.4719 0.0000
vn 0.0000 0.0000 1.0000
vn -1.0000 0.0000 -0.0000
vn -0.0010 0.0253 -0.9997
vn 0.0000 -1.0000 -0.0000
vn 1.0000 -0.0000 0.0000
vn 0.0000 1.0000 -0.0000
usemtl TrenchesWood
s off
f 3/1/1 4/2/1 7/3/1 8/4/1
f 5/5/2 6/6/2 8/7/2 7/8/2
f 2/9/3 1/10/3 6/11/3 5/12/3
f 1/13/4 3/14/4 8/15/4 6/16/4
f 4/17/5 3/18/5 1/19/5 2/20/5
usemtl TrenchesSand
f 4/17/6 2/20/6 5/21/6 7/22/6
