# Blender v2.77 (sub 0) OBJ File: 'TrenchBlocks.blend'
# www.blender.org
mtllib TrenchRidge.mtl
g TrenchRidge
v 0.828250 0.000000 -1.000004
v 0.828250 0.000000 0.999996
v -0.523494 0.000000 0.999996
v -0.523493 0.000000 -1.000004
v -0.523494 2.000000 0.999996
v -0.523494 2.000000 -1.000004
v -0.368538 2.000000 -1.000004
v -0.368539 2.000000 0.999996
v 0.828250 0.490908 -1.000004
v 0.828249 0.490908 0.999996
v -0.240971 0.707841 -1.000004
v -0.240972 0.707841 0.999996
vt 0.3379 1.0000
vt 0.0000 1.0000
vt 0.2673 0.8230
vt 0.9991 0.5000
vt 0.9605 0.5000
vt 0.9605 0.0000
vt 0.9991 0.0000
vt 0.2992 0.5000
vt 0.3379 0.5000
vt 0.8379 0.3773
vt 0.8379 0.5000
vt 0.5706 0.3230
vt 0.5000 0.5000
vt 0.5000 0.0000
vt 0.3379 1.0000
vt 0.3379 0.5000
vt 0.6622 0.5000
vt 0.6622 1.0000
vt 0.0000 0.8773
vt 0.5387 0.0000
vt 0.5000 0.5000
vt 0.0000 0.5000
vt 0.0000 0.0000
vt 0.5000 0.0000
vt 0.9605 0.5000
vt 0.8379 0.5000
vt 0.8379 0.0000
vt 0.9605 0.0000
vt 0.9335 1.0000
vt 0.6622 1.0000
vt 0.6622 0.5000
vt 0.9335 0.5000
vn -0.0000 -0.0000 1.0000
vn 0.0000 1.0000 0.0000
vn 0.0000 0.0000 -1.0000
vn 0.9952 0.0982 0.0000
vn -1.0000 -0.0000 -0.0000
vn 1.0000 0.0000 0.0000
vn 0.1988 0.9800 0.0000
usemtl TrenchesWood
s off
f 3/1/1 2/2/1 12/3/1
f 7/4/2 6/5/2 5/6/2 8/7/2
f 12/3/1 8/8/1 5/9/1
f 9/10/3 1/11/3 11/12/3
f 11/12/3 4/13/3 6/14/3
f 1/11/3 4/13/3 11/12/3
f 12/15/4 11/16/4 7/17/4 8/18/4
f 2/2/1 10/19/1 12/3/1
f 7/20/3 11/12/3 6/14/3
f 3/21/5 5/22/5 6/23/5 4/24/5
f 3/1/1 12/3/1 5/9/1
f 1/25/6 9/26/6 10/27/6 2/28/6
usemtl TrenchesSand
f 12/29/7 10/30/7 9/31/7 11/32/7
