# Blender v2.77 (sub 0) OBJ File: 'TrenchBlocks.blend'
# www.blender.org
mtllib TrenchRidge90.mtl
g TrenchRidge90
v 0.698200 -0.000001 -0.725968
v 0.698200 -0.000001 0.625775
v 0.385009 -0.000001 0.631294
v 0.698199 2.000000 0.625775
v 0.385009 2.000000 0.631294
v 0.315975 2.000000 0.476338
v 0.698200 2.000000 0.470819
v 0.698200 0.490907 -0.725968
v 0.315976 0.707840 0.348771
v 0.698200 0.707840 0.343252
v -0.026513 2.000000 0.308639
v -0.055961 2.000000 0.440805
v 0.029528 0.707841 0.194041
v -0.055961 -0.000000 0.440805
v -0.309214 2.000000 0.026785
v -0.418471 2.000000 0.093461
v -0.207759 0.707841 -0.050547
v -0.418471 -0.000000 0.093460
v -0.498401 2.000000 -0.725968
v -0.653425 2.000000 -0.725968
v -0.370901 0.707841 -0.725968
v -0.653425 0.000000 -0.725968
v -0.583177 2.000000 -0.328525
v -0.450351 2.000000 -0.325217
v -0.335484 0.707841 -0.362725
v -0.583177 -0.000000 -0.328525
v 0.698200 2.000000 0.470819
v 0.698200 2.000000 0.470819
v 0.698199 2.000000 0.625775
v 0.698199 2.000000 0.625775
v 0.385009 2.000000 0.631294
v 0.698200 0.707840 0.343252
v 0.698200 0.707840 0.343252
v 0.315976 0.707840 0.348771
v 0.315975 2.000000 0.476338
v 0.698200 -0.000001 -0.725968
v 0.698200 0.490907 -0.725968
v 0.698200 0.490907 -0.725968
v 0.698200 -0.000001 0.625775
v -0.055961 2.000000 0.440805
v -0.418471 2.000000 0.093461
v -0.309214 2.000000 0.026785
v -0.026513 2.000000 0.308639
v 0.029528 0.707841 0.194041
v -0.207759 0.707841 -0.050547
v -0.583177 2.000000 -0.328525
v -0.450351 2.000000 -0.325217
v -0.498401 2.000000 -0.725968
v -0.498401 2.000000 -0.725968
v -0.653425 2.000000 -0.725968
v -0.653425 2.000000 -0.725968
v -0.370901 0.707841 -0.725968
v -0.370901 0.707841 -0.725968
v -0.653425 0.000000 -0.725968
v -0.335484 0.707841 -0.362725
vt 0.3088 0.4569
vt 0.0000 0.4570
vt 0.2443 0.2952
vt 0.6743 0.5429
vt 0.6604 0.5067
vt 0.7117 0.4570
vt 0.7367 0.4820
vt 0.2734 0.0000
vt 0.3088 0.0000
vt 0.6461 0.6253
vt 0.6201 0.6087
vt 0.9226 0.2958
vt 0.8352 0.2958
vt 0.8352 0.0000
vt 0.9226 0.0000
vt 0.0000 0.3449
vt 0.5036 0.9139
vt 0.5036 0.4569
vt 0.5751 0.4569
vt 0.5751 0.9139
vt 0.6460 0.7165
vt 0.6176 0.7234
vt 0.7324 0.0000
vt 0.7324 0.4570
vt 0.6176 0.4570
vt 0.6176 0.0000
vt 0.8279 0.4570
vt 0.8222 0.7536
vt 0.7444 0.7547
vt 0.7367 0.4582
vt 0.8352 0.0000
vt 0.8352 0.4570
vt 0.9102 0.4586
vt 0.8934 0.7547
vt 0.0918 0.7040
vt 0.0850 0.9998
vt 0.0019 1.0000
vt 0.0000 0.7043
vt 0.6590 0.8182
vt 0.6799 0.7962
vt 0.7367 0.8687
vt 0.7117 0.8938
vt 0.5531 0.1617
vt 0.6176 0.0000
vt 0.6176 0.4569
vt 0.3088 0.0000
vt 0.5822 0.4569
vt 0.4118 0.9139
vt 0.4118 0.4569
vt 0.5036 0.4569
vt 0.5036 0.9139
vt 0.3088 0.1122
vt 0.3088 0.9139
vt 0.3088 0.4569
vt 0.1729 0.7043
vt 0.1570 1.0000
vt 0.1546 0.4570
vt 0.2469 0.7040
vt 0.0896 0.4931
vt 0.2418 0.4573
vt 0.0074 0.6211
vt 0.0000 0.7040
vt 0.0359 0.5495
vn 1.0000 0.0000 0.0000
vn 0.0000 1.0000 0.0000
vn -0.0143 0.0982 -0.9951
vn 0.2300 0.0984 -0.9682
vn 0.2233 0.0985 -0.9697
vn 0.0176 0.0000 0.9998
vn -0.1938 0.0000 0.9810
vn -0.5529 0.0000 0.8332
vn -0.8312 0.0000 0.5559
vn 0.5872 0.0952 -0.8038
vn 0.5901 0.0952 -0.8017
vn 0.8320 0.0963 -0.5463
vn 0.8310 0.0963 -0.5477
vn 0.9652 0.0950 -0.2436
vn 0.9655 0.0950 -0.2426
vn 0.9896 0.0944 -0.1081
vn 0.0000 0.0000 -1.0000
vn -0.9628 0.0000 0.2701
vn -0.9847 0.0000 0.1740
vn 0.0470 0.9822 -0.1815
vn 0.1200 0.9857 -0.1180
vn 0.1128 0.9823 -0.1496
vn -0.0029 0.9800 -0.1988
vn 0.1888 0.9808 -0.0483
vn 0.1988 0.9798 -0.0194
vn 0.1574 0.9820 -0.1043
usemtl TrenchesWood
s 1
f 2/1/1 36/2/1 32/3/1
f 35/4/2 31/5/2 30/6/2 27/7/2
f 32/3/1 28/8/1 29/9/1
f 31/5/2 35/4/2 43/10/2 40/11/2
f 33/12/3 34/13/4 6/14/5 7/15/3
f 36/2/1 37/16/1 32/3/1
f 39/17/6 4/18/6 5/19/7 3/20/7
f 2/1/1 32/3/1 29/9/1
f 40/11/2 43/10/2 42/21/2 41/22/2
f 14/23/8 12/24/8 16/25/9 18/26/9
f 11/27/10 44/28/11 45/29/12 15/30/13
f 3/31/7 5/32/7 12/24/8 14/23/8
f 6/33/5 34/34/4 44/28/11 11/27/10
f 47/35/14 25/36/15 52/37/16 48/38/16
f 23/39/2 24/40/2 49/41/2 50/42/2
f 53/43/17 54/44/17 51/45/17
f 1/46/17 54/44/17 53/43/17
f 19/47/17 53/43/17 51/45/17
f 26/48/18 46/49/18 20/50/19 22/51/19
f 8/52/17 1/46/17 53/43/17
f 18/53/9 16/54/9 46/49/18 26/48/18
f 41/22/2 42/21/2 24/40/2 23/39/2
f 15/55/13 45/56/12 25/36/15 47/35/14
usemtl TrenchesSand
f 9/57/20 38/58/21 13/59/22
f 10/60/23 38/58/21 9/57/20
f 55/61/24 38/58/21 21/62/25
f 13/59/22 38/58/21 17/63/26
f 17/63/26 38/58/21 55/61/24
