# Blender v2.77 (sub 0) OBJ File: 'TrenchBlocks.blend'
# www.blender.org
mtllib Trench45RidgeLeft.mtl
g Trench45RidgeLeft
v -0.674308 0.000000 -0.497542
v -0.674307 2.000000 -0.497542
v -0.674307 2.000000 -0.342587
v -0.674307 0.707841 -0.215020
v -1.520564 2.000000 0.007944
v -1.630134 2.000000 -0.101626
v -1.430361 0.707841 0.098147
v -1.630134 0.000000 -0.101626
v -0.674307 0.000000 0.854201
v -0.674307 0.490908 0.854201
v 0.315140 0.000000 0.854201
v 0.187573 2.000000 -0.497543
v 0.315140 0.707841 -0.215020
v 0.187573 2.000000 -0.342587
v 0.315140 0.490908 0.854201
v 1.384361 0.490908 -0.215020
v 1.384361 0.490908 0.854201
v 0.315140 0.707841 -0.497543
v 1.384361 0.490908 -0.497543
v 1.384362 0.000000 0.854201
v 1.384361 0.000000 -0.215019
v 1.384361 0.000000 -0.497543
v 0.315140 0.000000 -0.497543
v 0.187573 2.000000 -0.497543
v 0.187573 2.000000 -0.497543
v -0.674307 2.000000 -0.497542
v 0.315140 0.707841 -0.215020
v 0.315140 0.707841 -0.215020
v -0.674307 0.707841 -0.215020
v -1.630134 2.000000 -0.101626
v -1.630134 2.000000 -0.101626
v -0.674307 2.000000 -0.342587
v -1.520564 2.000000 0.007944
v -1.520564 2.000000 0.007944
v -1.430361 0.707841 0.098147
v -1.430361 0.707841 0.098147
v -0.674307 0.490908 0.854201
v -1.630134 0.000000 -0.101626
v 0.187573 2.000000 -0.342587
v 0.187573 2.000000 -0.342587
v 1.384361 0.490908 0.854201
v 1.384361 0.490908 0.854201
v 1.384361 0.490908 -0.215020
v 0.315140 0.490908 0.854201
v 0.315140 0.707841 -0.497543
v 0.315140 0.707841 -0.497543
v 1.384361 0.490908 -0.497543
v 1.384361 0.490908 -0.497543
v 1.384362 0.000000 0.854201
v 1.384361 0.000000 -0.497543
vt 0.4240 0.7785
vt 0.4254 0.5991
vt 0.6999 0.6166
vt 0.6987 0.7769
vt 0.4240 0.4328
vt 0.4240 0.6446
vt 0.0000 0.6446
vt 0.0000 0.4328
vt 0.0000 0.6446
vt 0.0599 0.6446
vt 0.0599 0.9193
vt 0.0270 0.9193
vt 0.6999 0.9867
vt 0.4251 0.9613
vt 0.9215 0.6393
vt 0.9628 0.4240
vt 0.9901 0.4420
vt 0.9535 0.6326
vt 0.0000 0.2516
vt 0.2739 0.2248
vt 0.7134 0.3199
vt 0.9401 0.2739
vt 0.7134 0.4240
vt 1.0000 0.0000
vt 1.0000 0.4240
vt 0.9671 0.0000
vt 0.8174 0.4240
vt 0.8174 0.6338
vt 0.7134 0.6338
vt 0.7134 0.4240
vt 0.9901 0.8112
vt 0.9580 0.8180
vt 0.8174 0.8605
vt 0.7134 0.8605
vt 0.8174 0.6507
vt 0.9215 0.6507
vt 0.9215 0.7106
vt 0.8174 0.7106
vt 0.8174 0.4240
vt 0.9215 0.4240
vt 0.4240 0.2248
vt 0.3199 0.0000
vt 0.4240 0.0000
vt 0.4837 0.3696
vt 0.4837 0.1603
vt 0.7134 0.1620
vt 0.7134 0.3714
vt 0.5499 0.0000
vt 0.7134 0.5976
vt 0.4875 0.5988
vt 0.4279 0.5991
vt 0.4240 0.3700
vn 0.1919 0.0964 0.9767
vn 0.3811 0.0908 0.9200
vn 0.1965 0.0963 0.9757
vn -0.1951 0.0000 -0.9808
vn -0.3827 0.0000 -0.9239
vn 0.9951 0.0982 0.0000
vn 0.0000 0.0982 0.9951
vn 0.0000 1.0000 0.0000
vn 0.0000 0.0000 -1.0000
vn -0.4055 0.0000 0.9141
vn -0.7071 0.0000 0.7071
vn -0.3827 0.0000 0.9239
vn 0.0000 0.0000 1.0000
vn 1.0000 0.0000 0.0000
vn 0.1004 0.9898 0.1004
vn 0.0353 0.9794 0.1987
vn 0.0270 0.9797 0.1987
vn 0.0503 0.9874 0.1500
vn 0.0821 0.9767 0.1982
vn 0.1500 0.9874 0.0503
vn 0.1988 0.9800 0.0000
usemtl TrenchesWood
s 1
f 3/1/1 33/2/2 35/3/2 29/4/3
f 1/5/4 8/6/5 30/7/5 2/8/4
f 13/9/6 18/10/6 25/11/6 40/12/6
f 27/13/7 39/14/7 3/1/1 29/4/3
f 26/15/8 31/16/8 34/17/8 32/18/8
f 24/19/9 45/20/9 1/5/4 2/8/4
f 37/21/10 36/22/11 9/23/12
f 36/22/11 6/24/11 38/25/11
f 9/23/12 36/22/11 38/25/11
f 5/26/11 6/24/11 36/22/11
f 9/27/12 11/28/13 44/29/13 37/30/10
f 32/18/8 14/31/8 12/32/8 26/15/8
f 44/29/13 11/28/13 49/33/13 42/34/13
f 16/35/14 21/36/14 50/37/14 48/38/14
f 17/39/14 20/40/14 21/36/14 16/35/14
f 45/20/9 23/41/9 1/5/4
f 45/20/9 19/42/9 22/43/9 23/41/9
usemtl TrenchesSand
f 28/44/15 4/45/16 10/46/17 15/47/18
f 4/45/16 7/48/19 10/46/17
f 15/47/18 41/49/15 43/50/20 28/44/15
f 43/50/20 47/51/21 46/52/21 28/44/15
