# Blender v2.77 (sub 0) OBJ File: 'TrenchBlocks.blend'
# www.blender.org
mtllib Trench45RidgeRight.mtl
g Trench45RidgeRight
v -0.674305 -0.000000 0.497542
v -0.674305 2.000000 0.497542
v -0.674304 2.000000 0.342587
v -0.674305 0.707841 0.215020
v -1.520562 2.000000 -0.007944
v -1.630132 2.000000 0.101626
v -1.430358 0.707841 -0.098147
v -1.630132 -0.000000 0.101626
v -0.674305 -0.000000 -0.854201
v -0.674304 0.490908 -0.854201
v 0.315142 -0.000000 -0.854201
v 0.187575 2.000000 0.497543
v 0.315142 0.707841 0.215020
v 0.187575 2.000000 0.342587
v 0.315142 0.490908 -0.854201
v 1.384363 0.490908 0.215020
v 1.384363 0.490908 -0.854201
v 0.315142 0.707841 0.497543
v 1.384363 0.490908 0.497543
v 1.384364 -0.000000 -0.854200
v 1.384364 -0.000000 0.215019
v 1.384364 -0.000000 0.497543
v 0.315142 -0.000000 0.497543
v 0.187575 2.000000 0.497543
v 0.187575 2.000000 0.497543
v -0.674305 2.000000 0.497542
v 0.315142 0.707841 0.215020
v 0.315142 0.707841 0.215020
v -0.674305 0.707841 0.215020
v -1.630132 2.000000 0.101626
v -1.630132 2.000000 0.101626
v -0.674304 2.000000 0.342587
v -1.520562 2.000000 -0.007944
v -1.520562 2.000000 -0.007944
v -1.430358 0.707841 -0.098147
v -1.430358 0.707841 -0.098147
v -0.674304 0.490908 -0.854201
v -1.630132 -0.000000 0.101626
v 0.187575 2.000000 0.342587
v 0.187575 2.000000 0.342587
v 1.384363 0.490908 -0.854201
v 1.384363 0.490908 -0.854201
v 1.384363 0.490908 0.215020
v 0.315142 0.490908 -0.854201
v 0.315142 0.707841 0.497543
v 0.315142 0.707841 0.497543
v 1.384363 0.490908 0.497543
v 1.384363 0.490908 0.497543
v 1.384364 -0.000000 -0.854200
v 1.384364 -0.000000 0.497543
vt 0.4240 0.8073
vt 0.6987 0.8089
vt 0.6999 0.9692
vt 0.4254 0.9867
vt 0.4240 0.2118
vt 0.0000 0.2118
vt 0.0000 0.0000
vt 0.4240 0.0000
vt 0.0000 0.9193
vt 0.0270 0.6446
vt 0.0599 0.6446
vt 0.0599 0.9193
vt 0.6999 0.5991
vt 0.4251 0.6245
vt 0.9215 0.6027
vt 0.9535 0.6094
vt 0.9901 0.8000
vt 0.9628 0.8180
vt 0.0000 0.3930
vt 0.2739 0.4198
vt 0.7134 0.1041
vt 0.7134 0.0000
vt 0.9401 0.1501
vt 1.0000 0.0000
vt 1.0000 0.4240
vt 0.9671 0.4240
vt 0.8174 0.8605
vt 0.7134 0.8605
vt 0.7134 0.6507
vt 0.8174 0.6507
vt 0.9580 0.4240
vt 0.9901 0.4307
vt 0.7134 0.4240
vt 0.8174 0.4240
vt 0.9215 0.6507
vt 0.9215 0.7106
vt 0.8174 0.7106
vt 0.8174 0.6507
vt 0.9215 0.4240
vt 0.8174 0.4240
vt 0.4240 0.4198
vt 0.4240 0.6446
vt 0.3199 0.6446
vt 0.4837 0.2295
vt 0.7134 0.2277
vt 0.7134 0.4371
vt 0.4837 0.4388
vt 0.5499 0.5991
vt 0.4875 0.0003
vt 0.7134 0.0015
vt 0.4240 0.2291
vt 0.4279 0.0000
vn 0.1919 0.0964 -0.9767
vn 0.1965 0.0963 -0.9757
vn 0.3811 0.0908 -0.9200
vn -0.1951 0.0000 0.9808
vn -0.3827 0.0000 0.9239
vn 0.9951 0.0982 0.0000
vn 0.0000 0.0982 -0.9951
vn 0.0000 1.0000 0.0000
vn 0.0000 0.0000 1.0000
vn -0.4055 0.0000 -0.9141
vn -0.3827 0.0000 -0.9239
vn -0.7071 0.0000 -0.7071
vn 0.0000 0.0000 -1.0000
vn 1.0000 0.0000 0.0000
vn 0.1004 0.9898 -0.1004
vn 0.0503 0.9874 -0.1500
vn 0.0270 0.9797 -0.1987
vn 0.0353 0.9794 -0.1987
vn 0.0821 0.9767 -0.1982
vn 0.1500 0.9874 -0.0503
vn 0.1988 0.9800 0.0000
usemtl TrenchesWood
s 1
f 3/1/1 29/2/2 35/3/3 33/4/3
f 1/5/4 2/6/4 30/7/5 8/8/5
f 13/9/6 40/10/6 25/11/6 18/12/6
f 27/13/7 29/2/2 3/1/1 39/14/7
f 26/15/8 32/16/8 34/17/8 31/18/8
f 24/19/9 2/6/4 1/5/4 45/20/9
f 37/21/10 9/22/11 36/23/12
f 36/23/12 38/24/12 6/25/12
f 9/22/11 38/24/12 36/23/12
f 5/26/12 36/23/12 6/25/12
f 9/27/11 37/28/10 44/29/13 11/30/13
f 32/16/8 26/15/8 12/31/8 14/32/8
f 44/29/13 42/33/13 49/34/13 11/30/13
f 16/35/14 48/36/14 50/37/14 21/38/14
f 17/39/14 16/35/14 21/38/14 20/40/14
f 45/20/9 1/5/4 23/41/9
f 45/20/9 23/41/9 22/42/9 19/43/9
usemtl TrenchesSand
f 28/44/15 15/45/16 10/46/17 4/47/18
f 4/47/18 10/46/17 7/48/19
f 15/45/16 28/44/15 43/49/20 41/50/15
f 43/49/20 28/44/15 46/51/21 47/52/21
