# Blender v2.77 (sub 0) OBJ File: 'TrenchBlocks.blend'
# www.blender.org
mtllib TrenchWallToRidge1.mtl
g TrenchWallToRidge1
v -0.837382 0.001946 -1.566409
v -0.837382 2.001946 -1.566409
v -0.682359 2.001946 -1.566409
v -0.682426 2.001946 -0.567065
v -0.837382 2.001946 -0.567065
v -0.485382 0.001946 -0.567065
v -0.837382 0.001946 -0.567065
v 1.513729 0.001946 -0.567064
v 0.514241 0.001946 0.784679
v 0.201050 0.001946 0.790197
v 0.514240 2.001946 0.784679
v 0.201050 2.001946 0.790198
v 0.132017 2.001946 0.635242
v 0.514241 2.001946 0.629723
v 1.513729 0.483123 -0.567064
v 0.132017 0.681377 0.507675
v 0.514241 0.700056 0.502156
v -0.210471 2.001946 0.467543
v -0.239920 2.001946 0.599709
v -0.173410 0.637779 0.352944
v -0.239920 0.001946 0.599708
v -0.493173 2.001946 0.185688
v -0.602429 2.001946 0.252364
v -0.379257 0.582612 0.108357
v -0.602430 0.001946 0.252364
v -0.767136 2.001946 -0.169621
v -0.634310 2.001946 -0.166314
v -0.490059 0.528466 -0.203822
v -0.767136 0.001946 -0.169621
v 1.513729 0.700056 0.502156
v 1.513728 2.001946 0.784679
v 1.513728 0.001946 0.784679
v 1.513729 2.001946 0.629724
v -0.485382 0.001946 -1.566409
v -0.520739 0.483123 -0.567065
v -0.682359 2.001946 -1.566409
v -0.682359 2.001946 -1.566409
v -0.837382 2.001946 -1.566409
v -0.837382 2.001946 -1.566409
v -0.837382 2.001946 -0.567065
v -0.767136 2.001946 -0.169621
v -0.837382 0.001946 -1.566409
v -0.520739 0.483123 -0.567065
v -0.520739 0.483123 -0.567065
v -0.485382 0.001946 -0.567065
v 0.514240 2.001946 0.784679
v 1.513728 2.001946 0.784679
v 1.513728 2.001946 0.784679
v 0.201050 2.001946 0.790198
v 0.514241 0.700056 0.502156
v 0.132017 0.681377 0.507675
v 0.132017 2.001946 0.635242
v 0.514241 2.001946 0.629723
v 1.513729 0.001946 -0.567064
v 1.513729 0.483123 -0.567064
v 1.513729 0.483123 -0.567064
v -0.239920 2.001946 0.599709
v -0.602429 2.001946 0.252364
v -0.493173 2.001946 0.185688
v -0.210471 2.001946 0.467543
v -0.173410 0.637779 0.352944
v -0.379257 0.582612 0.108357
v -0.490059 0.528466 -0.203822
v -0.634310 2.001946 -0.166314
v -0.682426 2.001946 -0.567065
v 1.513729 2.001946 0.629724
v 1.513729 2.001946 0.629724
v 1.513728 0.001946 0.784679
v 1.513729 0.700056 0.502156
v 1.513729 0.700056 0.502156
v -0.485382 0.001946 -1.566409
vt 0.2129 0.5561
vt 0.1939 0.5752
vt 0.0715 0.4534
vt 0.0905 0.4344
vt 0.2129 0.3468
vt 0.2129 0.0000
vt 0.3855 0.0000
vt 0.3855 0.3468
vt 0.3436 0.4304
vt 0.3436 0.3468
vt 0.5168 0.3468
vt 0.9167 0.6996
vt 0.9167 0.3468
vt 1.0000 0.3468
vt 1.0000 0.6935
vt 0.9502 0.3464
vt 0.9233 0.3464
vt 0.8892 0.0000
vt 0.9503 0.0000
vt 0.0430 0.1879
vt 0.0325 0.1605
vt 0.0715 0.1227
vt 0.0905 0.1416
vt 0.7039 0.0000
vt 0.7039 0.3468
vt 0.5306 0.3468
vt 0.5306 0.0000
vt 0.0216 0.2504
vt 0.0019 0.2379
vt 0.7438 0.8668
vt 0.7470 0.9331
vt 0.5172 0.9331
vt 0.5172 0.8668
vt 0.1939 0.0000
vt 0.2129 0.0189
vt 0.7582 0.0000
vt 0.7582 0.3468
vt 0.0215 0.3194
vt 0.0000 0.3247
vt 0.8386 0.3468
vt 0.8386 0.6936
vt 0.7515 0.6936
vt 0.7515 0.3468
vt 0.8200 0.2460
vt 0.8337 0.0090
vt 0.8892 0.0000
vt 0.8892 0.2473
vt 0.9167 0.3468
vt 0.9167 0.6936
vt 0.7582 0.2431
vt 0.7778 0.0139
vt 0.2743 0.6944
vt 0.2805 0.4381
vt 0.3439 0.6947
vt 0.0315 0.3964
vt 0.0473 0.3797
vt 0.4552 0.0000
vt 0.4552 0.3468
vt 0.5306 0.0000
vt 0.5306 0.3468
vt 0.2129 0.6934
vt 0.2261 0.4467
vt 0.7515 0.6933
vt 0.5172 0.6935
vt 0.7026 0.5724
vt 0.7247 0.3468
vt 0.7515 0.3468
vt 0.5172 0.6101
vt 0.5173 0.6935
vt 0.7438 0.6935
vt 0.5172 0.6947
vt 0.1887 0.5754
vt 0.0007 0.7485
vt 0.0007 0.5752
vt 0.1887 0.9281
vt 0.1253 0.9228
vt 0.0705 0.9035
vt 0.0000 0.8148
vt 0.0274 0.8678
vn 0.0000 1.0000 0.0000
vn -1.0000 0.0000 -0.0000
vn 0.9973 0.0733 0.0000
vn 0.0000 0.0000 -1.0000
vn 0.0088 0.0000 0.9999
vn 0.0000 0.0000 1.0000
vn -0.0085 0.0971 -0.9952
vn 0.2328 0.0940 -0.9680
vn 0.2141 0.0944 -0.9722
vn -0.0084 0.0972 -0.9952
vn -0.1938 0.0000 0.9810
vn -0.5529 0.0000 0.8332
vn -0.8312 0.0000 0.5559
vn 0.5894 0.0880 -0.8030
vn 0.6079 0.0879 -0.7891
vn 0.8533 0.0940 -0.5129
vn 0.8422 0.0934 -0.5311
vn 0.9665 0.1006 -0.2360
vn 0.9693 0.1009 -0.2241
vn 0.9948 0.0950 -0.0372
vn 0.9931 0.1021 -0.0573
vn -0.9628 0.0000 0.2701
vn -0.9962 0.0000 0.0873
vn 1.0000 0.0000 0.0000
vn 0.0000 0.0975 -0.9952
vn 0.9956 0.0934 -0.0048
vn 0.9948 0.1014 -0.0068
vn -0.0112 0.9809 -0.1941
vn -0.0374 0.9719 -0.2322
vn 0.0000 0.9800 -0.1988
vn 0.0000 0.9923 -0.1238
vn -0.0040 0.9893 -0.1455
vn -0.0138 0.9829 -0.1835
vn -0.0345 0.9739 -0.2241
vn -0.0239 0.9778 -0.2083
usemtl TrenchesWood
s off
f 36/1/1 38/2/1 40/3/1 65/4/1
f 39/5/2 42/6/2 7/7/2 5/8/2
f 43/9/3 45/10/3 71/11/3
f 35/12/4 15/13/4 8/14/4 6/15/4
f 2/16/4 3/17/4 34/18/4 1/19/4
s 1
f 52/20/1 49/21/1 11/22/1 53/23/1
f 46/24/5 9/25/5 68/26/6 47/27/6
f 49/21/1 52/20/1 60/28/1 57/29/1
f 50/30/7 51/31/8 13/32/9 14/33/10
f 53/23/1 11/22/1 31/34/1 66/35/1
f 9/25/5 46/24/5 12/36/11 10/37/11
f 57/29/1 60/28/1 59/38/1 58/39/1
f 21/40/12 19/41/12 23/42/13 25/43/13
f 18/44/14 61/45/15 24/46/16 22/47/17
f 10/48/11 12/49/11 19/41/12 21/40/12
f 13/50/9 51/51/8 61/45/15 18/44/14
f 64/52/18 28/53/19 43/9/20 4/54/21
f 41/55/1 27/56/1 65/4/1 40/3/1
f 29/57/22 26/58/22 5/8/23 7/7/23
f 25/59/13 23/60/13 26/58/22 29/57/22
f 58/39/1 59/38/1 27/56/1 41/55/1
f 22/61/17 24/62/16 28/53/19 64/52/18
f 32/63/24 54/64/24 69/65/24
f 69/65/24 67/66/24 48/67/24
f 54/64/24 56/68/24 69/65/24
f 32/63/24 69/65/24 48/67/24
f 50/30/7 14/33/10 33/69/25 30/70/25
f 4/54/21 43/9/20 71/11/26 37/71/27
usemtl TrenchesSand
f 55/72/28 17/73/29 70/74/30
f 44/75/31 63/76/32 55/72/28
f 62/77/33 55/72/28 63/76/32
f 16/78/34 55/72/28 20/79/35
f 17/73/29 55/72/28 16/78/34
f 62/77/33 20/79/35 55/72/28
