# Blender v2.77 (sub 0) OBJ File: 'CutleryFix2.blend'
# www.blender.org
mtllib CanClosed.mtl
g CanClosed
v 0.000000 0.000000 -0.036400
v 0.000000 0.099114 -0.036400
v 0.013930 0.000000 -0.033629
v 0.013930 0.099114 -0.033629
v 0.025739 0.000000 -0.025739
v 0.025739 0.099114 -0.025739
v 0.033629 0.000000 -0.013930
v 0.033629 0.099114 -0.013930
v 0.036400 0.000000 0.000000
v 0.036400 0.099114 0.000000
v 0.033629 0.000000 0.013930
v 0.033629 0.099114 0.013930
v 0.025739 0.000000 0.025739
v 0.025739 0.099114 0.025739
v 0.013930 0.000000 0.033629
v 0.013930 0.099114 0.033629
v 0.000000 0.000000 0.036400
v 0.000000 0.099114 0.036400
v -0.013930 0.000000 0.033629
v -0.013930 0.099114 0.033629
v -0.025739 0.000000 0.025739
v -0.025739 0.099114 0.025739
v -0.033629 0.000000 0.013930
v -0.033629 0.099114 0.013930
v -0.036400 0.000000 0.000000
v -0.036400 0.099114 0.000000
v -0.033629 0.000000 -0.013930
v -0.033629 0.099114 -0.013930
v -0.025739 0.000000 -0.025739
v -0.025739 0.099114 -0.025739
v -0.013930 0.000000 -0.033629
v -0.013930 0.099114 -0.033629
v 0.013027 0.099114 -0.031450
v 0.000000 0.099114 -0.034041
v 0.024071 0.099114 -0.024071
v 0.031450 0.099114 -0.013027
v 0.034041 0.099114 0.000000
v 0.031450 0.099114 0.013027
v 0.024071 0.099114 0.024071
v 0.013027 0.099114 0.031450
v 0.000000 0.099114 0.034042
v -0.013027 0.099114 0.031450
v -0.024071 0.099114 0.024071
v -0.031450 0.099114 0.013027
v -0.034041 0.099114 0.000000
v -0.031450 0.099114 -0.013027
v -0.024071 0.099114 -0.024071
v -0.013027 0.099114 -0.031450
v 0.013027 0.097677 -0.031450
v 0.000000 0.097677 -0.034041
v 0.024071 0.097677 -0.024071
v 0.031450 0.097677 -0.013027
v 0.034041 0.097677 0.000000
v 0.031450 0.097677 0.013027
v 0.024071 0.097677 0.024071
v 0.013027 0.097677 0.031450
v 0.000000 0.097677 0.034042
v -0.013027 0.097677 0.031450
v -0.024071 0.097677 0.024071
v -0.031450 0.097677 0.013027
v -0.034041 0.097677 0.000000
v -0.031450 0.097677 -0.013027
v -0.024071 0.097677 -0.024071
v -0.013027 0.097677 -0.031450
v 0.000000 0.000000 -0.034508
v 0.013206 0.000000 -0.031882
v 0.024401 0.000000 -0.024401
v 0.031882 0.000000 -0.013206
v 0.034508 0.000000 0.000000
v 0.031882 0.000000 0.013206
v 0.024401 0.000000 0.024401
v 0.013206 0.000000 0.031882
v 0.000000 0.000000 0.034508
v -0.013206 0.000000 0.031882
v -0.024401 0.000000 0.024401
v -0.031882 0.000000 0.013206
v -0.034508 0.000000 0.000000
v -0.031882 0.000000 -0.013206
v -0.024401 0.000000 -0.024401
v -0.013206 0.000000 -0.031882
v 0.000000 0.002818 -0.034508
v 0.013206 0.002818 -0.031882
v 0.024401 0.002818 -0.024401
v 0.031882 0.002818 -0.013206
v 0.034508 0.002818 0.000000
v 0.031882 0.002818 0.013206
v 0.024401 0.002818 0.024401
v 0.013206 0.002818 0.031882
v 0.000000 0.002818 0.034508
v -0.013206 0.002818 0.031882
v -0.024401 0.002818 0.024401
v -0.031882 0.002818 0.013206
v -0.034508 0.002818 0.000000
v -0.031882 0.002818 -0.013206
v -0.024401 0.002818 -0.024401
v -0.013206 0.002818 -0.031882
v 0.000000 0.001409 0.000000
v 0.000000 0.096268 0.000000
v 0.000000 0.000000 -0.036400
v 0.013930 0.000000 -0.033629
v 0.013930 0.099114 -0.033629
v 0.000000 0.099114 -0.036400
v 0.025739 0.000000 -0.025739
v 0.025739 0.099114 -0.025739
v 0.033629 0.000000 -0.013930
v 0.033629 0.099114 -0.013930
v 0.036400 0.000000 0.000000
v 0.036400 0.099114 0.000000
v 0.033629 0.000000 0.013930
v 0.033629 0.099114 0.013930
v 0.025739 0.000000 0.025739
v 0.025739 0.099114 0.025739
v 0.013930 0.000000 0.033629
v 0.013930 0.099114 0.033629
v 0.000000 0.000000 0.036400
v 0.000000 0.099114 0.036400
v -0.013930 0.000000 0.033629
v -0.013930 0.099114 0.033629
v -0.025739 0.000000 0.025739
v -0.025739 0.099114 0.025739
v -0.033629 0.000000 0.013930
v -0.033629 0.099114 0.013930
v -0.036400 0.000000 0.000000
v -0.036400 0.099114 0.000000
v -0.033629 0.000000 -0.013930
v -0.033629 0.099114 -0.013930
v -0.025739 0.000000 -0.025739
v -0.025739 0.099114 -0.025739
v -0.013930 0.000000 -0.033629
v -0.013930 0.099114 -0.033629
v 0.013027 0.099114 -0.031450
v 0.000000 0.099114 -0.034041
v 0.024071 0.099114 -0.024071
v 0.031450 0.099114 -0.013027
v 0.034041 0.099114 0.000000
v 0.031450 0.099114 0.013027
v 0.024071 0.099114 0.024071
v 0.013027 0.099114 0.031450
v 0.000000 0.099114 0.034042
v -0.013027 0.099114 0.031450
v -0.024071 0.099114 0.024071
v -0.031450 0.099114 0.013027
v -0.034041 0.099114 0.000000
v -0.031450 0.099114 -0.013027
v -0.024071 0.099114 -0.024071
v -0.013027 0.099114 -0.031450
v 0.013027 0.097677 -0.031450
v 0.000000 0.097677 -0.034041
v 0.024071 0.097677 -0.024071
v 0.031450 0.097677 -0.013027
v 0.034041 0.097677 0.000000
v 0.031450 0.097677 0.013027
v 0.024071 0.097677 0.024071
v 0.013027 0.097677 0.031450
v 0.000000 0.097677 0.034042
v -0.013027 0.097677 0.031450
v -0.024071 0.097677 0.024071
v -0.031450 0.097677 0.013027
v -0.034041 0.097677 0.000000
v -0.031450 0.097677 -0.013027
v -0.024071 0.097677 -0.024071
v -0.013027 0.097677 -0.031450
v 0.000000 0.000000 -0.034508
v 0.013206 0.000000 -0.031882
v 0.024401 0.000000 -0.024401
v 0.031882 0.000000 -0.013206
v 0.034508 0.000000 0.000000
v 0.031882 0.000000 0.013206
v 0.024401 0.000000 0.024401
v 0.013206 0.000000 0.031882
v 0.000000 0.000000 0.034508
v -0.013206 0.000000 0.031882
v -0.024401 0.000000 0.024401
v -0.031882 0.000000 0.013206
v -0.034508 0.000000 0.000000
v -0.031882 0.000000 -0.013206
v -0.024401 0.000000 -0.024401
v -0.013206 0.000000 -0.031882
v 0.000000 0.002818 -0.034508
v 0.013206 0.002818 -0.031882
v 0.024401 0.002818 -0.024401
v 0.031882 0.002818 -0.013206
v 0.034508 0.002818 0.000000
v 0.031882 0.002818 0.013206
v 0.024401 0.002818 0.024401
v 0.013206 0.002818 0.031882
v 0.000000 0.002818 0.034508
v -0.013206 0.002818 0.031882
v -0.024401 0.002818 0.024401
v -0.031882 0.002818 0.013206
v -0.034508 0.002818 0.000000
v -0.031882 0.002818 -0.013206
v -0.024401 0.002818 -0.024401
v -0.013206 0.002818 -0.031882
vt 0.0451 0.4447
vt 0.0451 0.8894
vt 0.0000 0.8894
vt 0.0000 0.4447
vt 1.0000 0.0000
vt 1.0000 0.4447
vt 0.9411 0.4447
vt 0.9411 0.0000
vt 0.8774 0.4447
vt 0.8774 0.0000
vt 0.8185 0.4447
vt 0.8185 0.0000
vt 0.7735 0.4447
vt 0.7735 0.0000
vt 0.7146 0.4447
vt 0.7146 0.0000
vt 0.6509 0.4447
vt 0.6509 0.0000
vt 0.5920 0.4447
vt 0.5920 0.0000
vt 0.2716 0.0000
vt 0.2716 0.4447
vt 0.2265 0.4447
vt 0.2265 0.0000
vt 0.1677 0.4447
vt 0.1677 0.0000
vt 0.1039 0.4447
vt 0.1039 0.0000
vt 0.0451 0.4447
vt 0.0451 0.0000
vt 0.0000 0.4447
vt 0.0000 0.0000
vt 0.2265 0.4447
vt 0.2265 0.8894
vt 0.1677 0.8894
vt 0.1677 0.4447
vt 0.3999 0.0000
vt 0.4637 0.0000
vt 0.4616 0.0104
vt 0.4020 0.0104
vt 0.1039 0.8894
vt 0.1039 0.4447
vt 0.5676 0.5713
vt 0.5225 0.6164
vt 0.5178 0.6093
vt 0.5605 0.5666
vt 0.2590 0.6015
vt 0.2590 0.6566
vt 0.2525 0.6566
vt 0.2525 0.6015
vt 0.2960 0.2509
vt 0.2716 0.1921
vt 0.2820 0.1900
vt 0.3048 0.2450
vt 0.5225 0.0244
vt 0.5676 0.0694
vt 0.5588 0.0753
vt 0.5167 0.0332
vt 0.2716 0.1283
vt 0.2960 0.0694
vt 0.3048 0.0753
vt 0.2820 0.1304
vt 0.4637 0.3204
vt 0.3999 0.3204
vt 0.4020 0.3100
vt 0.4616 0.3100
vt 0.5920 0.1283
vt 0.5920 0.1921
vt 0.5816 0.1900
vt 0.5816 0.1304
vt 0.3411 0.0244
vt 0.3469 0.0332
vt 0.5676 0.2509
vt 0.5225 0.2960
vt 0.5167 0.2872
vt 0.5588 0.2450
vt 0.3411 0.2960
vt 0.3469 0.2872
vt 0.8299 0.4678
vt 0.8726 0.5106
vt 0.7438 0.5966
vt 0.2330 0.7146
vt 0.2330 0.7741
vt 0.2265 0.7741
vt 0.2265 0.7146
vt 0.2590 0.5419
vt 0.2525 0.5419
vt 0.2330 0.6595
vt 0.2265 0.6595
vt 0.2590 0.4869
vt 0.2525 0.4869
vt 0.5839 0.6829
vt 0.5839 0.6408
vt 0.5903 0.6408
vt 0.5903 0.6829
vt 0.2590 0.4447
vt 0.2525 0.4447
vt 0.5839 0.7380
vt 0.5903 0.7380
vt 0.2330 0.7146
vt 0.2330 0.6595
vt 0.2394 0.6595
vt 0.2394 0.7146
vt 0.5839 0.7976
vt 0.5903 0.7976
vt 0.2330 0.7741
vt 0.2394 0.7741
vt 0.5839 0.8526
vt 0.5903 0.8526
vt 0.2330 0.8292
vt 0.2330 0.8714
vt 0.2265 0.8714
vt 0.2265 0.8292
vt 0.2330 0.8292
vt 0.2394 0.8292
vt 0.2590 0.6987
vt 0.2525 0.6987
vt 0.5712 0.8555
vt 0.5712 0.8128
vt 0.5839 0.8128
vt 0.5839 0.8555
vt 0.2960 0.5713
vt 0.2716 0.5124
vt 0.2799 0.5108
vt 0.3030 0.5666
vt 0.3999 0.3204
vt 0.4637 0.3204
vt 0.4620 0.3287
vt 0.4016 0.3287
vt 0.5920 0.4487
vt 0.5920 0.5124
vt 0.5837 0.5108
vt 0.5837 0.4504
vt 0.3999 0.6408
vt 0.3411 0.6164
vt 0.3458 0.6093
vt 0.4016 0.6324
vt 0.5225 0.3448
vt 0.5676 0.3898
vt 0.5605 0.3945
vt 0.5178 0.3518
vt 0.2960 0.3898
vt 0.3411 0.3448
vt 0.3458 0.3518
vt 0.3030 0.3945
vt 0.4637 0.6408
vt 0.4620 0.6324
vt 0.2716 0.4487
vt 0.2799 0.4504
vt 0.7136 0.7485
vt 0.6578 0.7253
vt 0.2265 0.6168
vt 0.2265 0.5610
vt 0.2392 0.5610
vt 0.2392 0.6168
vt 0.5712 0.7570
vt 0.5839 0.7570
vt 0.2265 0.5005
vt 0.2392 0.5005
vt 0.5712 0.6966
vt 0.5839 0.6966
vt 0.2265 0.4447
vt 0.2392 0.4447
vt 0.2392 0.6595
vt 0.2392 0.6168
vt 0.2518 0.6168
vt 0.2518 0.6595
vt 0.5712 0.6408
vt 0.5839 0.6408
vt 0.2716 0.4447
vt 0.2716 0.4874
vt 0.2590 0.4874
vt 0.2590 0.4447
vt 0.2392 0.5610
vt 0.2518 0.5610
vt 0.2716 0.5433
vt 0.2590 0.5433
vt 0.2392 0.5005
vt 0.2518 0.5005
vt 0.2716 0.6037
vt 0.2590 0.6037
vt 0.2392 0.4447
vt 0.2518 0.4447
vt 0.2716 0.6595
vt 0.2590 0.6595
vt 0.2265 0.6595
vt 0.2392 0.6595
vt 0.7741 0.4447
vt 0.6151 0.6826
vt 0.8957 0.5664
vt 0.5920 0.6268
vt 0.8957 0.6268
vt 0.5920 0.5664
vt 0.8726 0.6826
vt 0.6151 0.5106
vt 0.8299 0.7253
vt 0.6578 0.4678
vt 0.7741 0.7485
vt 0.7136 0.4447
vt 0.3366 0.9176
vt 0.2944 0.8754
vt 0.4214 0.7906
vt 0.4512 0.6408
vt 0.5063 0.6636
vt 0.3916 0.9404
vt 0.3916 0.6408
vt 0.4512 0.9404
vt 0.3366 0.6636
vt 0.5484 0.8754
vt 0.5063 0.9176
vt 0.2944 0.7057
vt 0.5712 0.8204
vt 0.2716 0.7608
vt 0.5712 0.7608
vt 0.2716 0.8204
vt 0.5484 0.7057
vn 0.0000 0.0000 -1.0000
vn 0.3827 0.0000 -0.9239
vn 0.7071 0.0000 -0.7071
vn 0.9239 0.0000 -0.3827
vn 1.0000 0.0000 0.0000
vn 0.9239 0.0000 0.3827
vn 0.7071 0.0000 0.7071
vn 0.3827 0.0000 0.9239
vn 0.0000 0.0000 1.0000
vn -0.3827 0.0000 0.9239
vn -0.7071 0.0000 0.7071
vn -0.9239 0.0000 0.3827
vn -1.0000 0.0000 0.0000
vn -0.9239 0.0000 -0.3827
vn -0.7071 0.0000 -0.7071
vn 0.0000 1.0000 0.0000
vn -0.3827 0.0000 -0.9239
vn 0.0000 -1.0000 0.0000
vn 0.0000 -0.9991 -0.0408
vn 0.0156 -0.9991 -0.0377
vn 0.0156 -0.9991 0.0377
vn 0.0000 -0.9991 0.0408
vn -0.0156 -0.9991 -0.0377
vn -0.0156 -0.9991 0.0377
vn 0.0288 -0.9991 -0.0288
vn -0.0288 -0.9991 0.0288
vn 0.0377 -0.9991 -0.0156
vn -0.0377 -0.9991 0.0156
vn 0.0408 -0.9991 0.0000
vn -0.0408 -0.9991 0.0000
vn 0.0377 -0.9991 0.0156
vn -0.0377 -0.9991 -0.0156
vn 0.0288 -0.9991 0.0288
vn -0.0288 -0.9991 -0.0288
vn 0.0382 0.9991 0.0158
vn 0.0414 0.9991 0.0000
vn -0.0292 0.9991 -0.0292
vn -0.0382 0.9991 -0.0158
vn 0.0292 0.9991 0.0292
vn -0.0158 0.9991 -0.0382
vn 0.0158 0.9991 0.0382
vn 0.0000 0.9991 -0.0414
vn -0.0158 0.9991 0.0382
vn 0.0000 0.9991 0.0414
vn 0.0158 0.9991 -0.0382
vn -0.0292 0.9991 0.0292
vn 0.0292 0.9991 -0.0292
vn -0.0382 0.9991 0.0158
vn 0.0382 0.9991 -0.0158
vn -0.0414 0.9991 0.0000
usemtl CanClosed
s 1
f 99/1/1 102/2/1 101/3/2 100/4/2
f 100/5/2 101/6/2 104/7/3 103/8/3
f 103/8/3 104/7/3 106/9/4 105/10/4
f 105/10/4 106/9/4 108/11/5 107/12/5
f 107/12/5 108/11/5 110/13/6 109/14/6
f 109/14/6 110/13/6 112/15/7 111/16/7
f 111/16/7 112/15/7 114/17/8 113/18/8
f 113/18/8 114/17/8 116/19/9 115/20/9
f 115/21/9 116/22/9 118/23/10 117/24/10
f 117/24/10 118/23/10 120/25/11 119/26/11
f 119/26/11 120/25/11 122/27/12 121/28/12
f 121/28/12 122/27/12 124/29/13 123/30/13
f 123/30/13 124/29/13 126/31/14 125/32/14
f 125/33/14 126/34/14 128/35/15 127/36/15
f 16/37/16 14/38/16 137/39/16 138/40/16
f 127/36/15 128/35/15 130/41/17 129/42/17
f 129/42/17 130/41/17 102/2/1 99/1/1
f 9/43/18 11/44/18 168/45/18 167/46/18
f 141/47/3 42/48/2 156/49/2 157/50/3
f 26/51/16 24/52/16 142/53/16 143/54/16
f 12/55/16 10/56/16 135/57/16 136/58/16
f 22/59/16 20/60/16 140/61/16 43/62/16
f 32/63/16 30/64/16 145/65/16 146/66/16
f 8/67/16 6/68/16 133/69/16 134/70/16
f 18/71/16 16/37/16 138/40/16 139/72/16
f 4/73/16 2/74/16 132/75/16 131/76/16
f 28/77/16 26/51/16 143/54/16 144/78/16
f 14/38/16 12/55/16 136/58/16 137/39/16
f 24/52/16 22/59/16 43/62/16 142/53/16
f 2/74/16 32/63/16 146/66/16 132/75/16
f 10/56/16 8/67/16 134/70/16 135/57/16
f 20/60/16 18/71/16 139/72/16 140/61/16
f 30/64/16 28/77/16 144/78/16 145/65/16
f 6/68/16 4/73/16 131/76/16 133/69/16
f 179/79/19 180/80/20 97/81/18
f 36/82/12 35/83/11 149/84/11 150/85/12
f 44/86/4 141/47/3 157/50/3 158/87/4
f 37/88/13 36/82/12 150/85/12 151/89/13
f 45/90/5 44/86/4 158/87/4 159/91/5
f 38/92/14 37/93/13 151/94/13 152/95/14
f 46/96/6 45/90/5 159/91/5 160/97/6
f 39/98/15 38/92/14 152/95/14 153/99/15
f 47/100/7 46/101/6 160/102/6 161/103/7
f 40/104/17 39/98/15 153/99/15 154/105/17
f 48/106/8 47/100/7 161/103/7 162/107/8
f 41/108/1 40/104/17 154/105/17 155/109/1
f 33/110/10 34/111/9 148/112/9 147/113/10
f 34/114/9 48/106/8 162/107/8 148/115/9
f 42/48/2 41/116/1 155/117/1 156/49/2
f 35/83/11 33/110/10 147/113/10 149/84/11
f 77/118/5 176/119/6 192/120/6 191/121/5
f 19/122/18 21/123/18 173/124/18 172/125/18
f 29/126/18 31/127/18 178/128/18 177/129/18
f 5/130/18 7/131/18 166/132/18 165/133/18
f 15/134/18 17/135/18 171/136/18 170/137/18
f 1/138/18 3/139/18 164/140/18 163/141/18
f 25/142/18 27/143/18 78/144/18 175/145/18
f 11/44/18 13/146/18 169/147/18 168/45/18
f 21/123/18 23/148/18 174/149/18 173/124/18
f 31/127/18 1/138/18 163/141/18 178/128/18
f 7/131/18 9/43/18 167/46/18 166/132/18
f 17/135/18 19/122/18 172/125/18 171/136/18
f 27/143/18 29/126/18 177/129/18 78/144/18
f 3/139/18 5/130/18 165/133/18 164/140/18
f 13/146/18 15/134/18 170/137/18 169/147/18
f 23/148/18 25/142/18 175/145/18 174/149/18
f 88/150/21 187/151/22 97/81/18
f 70/152/14 71/153/15 185/154/15 184/155/14
f 176/119/6 79/156/7 193/157/7 192/120/6
f 71/153/15 72/158/17 186/159/17 185/154/15
f 79/156/7 80/160/8 194/161/8 193/157/7
f 72/158/17 73/162/1 89/163/1 186/159/17
f 65/164/9 66/165/10 82/166/10 81/167/9
f 80/160/8 65/168/9 81/169/9 194/161/8
f 73/170/1 74/171/2 188/172/2 89/173/1
f 66/165/10 67/174/11 181/175/11 82/166/10
f 74/171/2 75/176/3 189/177/3 188/172/2
f 67/174/11 68/178/12 182/179/12 181/175/11
f 75/176/3 76/180/4 190/181/4 189/177/3
f 68/178/12 69/182/13 183/183/13 182/179/12
f 76/180/4 77/184/5 191/185/5 190/181/4
f 69/186/13 70/152/14 184/155/14 183/187/13
f 96/188/23 179/79/19 97/81/18
f 187/151/22 90/189/24 97/81/18
f 180/80/20 83/190/25 97/81/18
f 90/189/24 91/191/26 97/81/18
f 83/190/25 84/192/27 97/81/18
f 91/191/26 92/193/28 97/81/18
f 84/192/27 85/194/29 97/81/18
f 92/193/28 93/195/30 97/81/18
f 85/194/29 86/196/31 97/81/18
f 93/195/30 94/197/32 97/81/18
f 86/196/31 87/198/33 97/81/18
f 94/197/32 95/199/34 97/81/18
f 87/198/33 88/150/21 97/81/18
f 95/199/34 96/188/23 97/81/18
f 62/200/35 61/201/36 98/202/16
f 55/203/37 54/204/38 98/202/16
f 63/205/39 62/200/35 98/202/16
f 56/206/40 55/203/37 98/202/16
f 64/207/41 63/205/39 98/202/16
f 57/208/42 56/206/40 98/202/16
f 49/209/43 50/210/44 98/202/16
f 50/210/44 64/207/41 98/202/16
f 58/211/45 57/208/42 98/202/16
f 51/212/46 49/209/43 98/202/16
f 59/213/47 58/211/45 98/202/16
f 52/214/48 51/212/46 98/202/16
f 60/215/49 59/213/47 98/202/16
f 53/216/50 52/214/48 98/202/16
f 61/201/36 60/215/49 98/202/16
f 54/204/38 53/216/50 98/202/16
