# Blender v2.77 (sub 0) OBJ File: 'CutleryFix2.blend'
# www.blender.org
mtllib CanOpen.mtl
g CanOpen
v -0.014942 0.124097 -0.015211
v -0.016379 0.114347 -0.026614
v -0.023907 0.128690 -0.005179
v -0.022059 0.128744 0.008485
v -0.012148 0.128691 0.017751
v 0.001137 0.123940 0.020729
v 0.007167 0.114333 0.026188
v 0.003500 0.102693 0.032604
v -0.000836 0.097637 0.034706
v -0.012271 0.097554 0.033290
v -0.023037 0.097554 0.026181
v -0.032044 0.097554 0.013553
v -0.035340 0.097554 0.000688
v -0.032693 0.097554 -0.012221
v -0.027927 0.097640 -0.018511
v -0.024714 0.103505 -0.023093
v -0.015393 0.123822 -0.014926
v -0.016893 0.114419 -0.026312
v -0.024121 0.128144 -0.005051
v -0.022059 0.128144 0.008485
v -0.012360 0.128144 0.017878
v 0.000681 0.123678 0.021017
v 0.006699 0.114419 0.026488
v 0.003049 0.103007 0.032847
v -0.001106 0.098154 0.034845
v -0.012271 0.098154 0.033290
v -0.023037 0.098154 0.026181
v -0.032044 0.098154 0.013553
v -0.035340 0.098154 0.000688
v -0.032693 0.098154 -0.012221
v -0.028202 0.098154 -0.018369
v -0.025172 0.103803 -0.022845
v -0.000000 0.000000 -0.036400
v -0.000000 0.099114 -0.036400
v 0.013930 0.000000 -0.033629
v 0.013930 0.099114 -0.033629
v 0.025739 0.000000 -0.025739
v 0.025739 0.099114 -0.025739
v 0.033629 0.000000 -0.013930
v 0.033629 0.099114 -0.013930
v 0.036400 0.000000 -0.000000
v 0.036400 0.099114 -0.000000
v 0.033629 0.000000 0.013930
v 0.033629 0.099114 0.013930
v 0.025739 0.000000 0.025739
v 0.025739 0.099114 0.025739
v 0.013930 0.000000 0.033629
v 0.013930 0.099114 0.033629
v 0.000000 0.000000 0.036400
v 0.000000 0.099114 0.036400
v -0.013930 0.000000 0.033629
v -0.013930 0.099114 0.033629
v -0.025739 0.000000 0.025739
v -0.025739 0.099114 0.025739
v -0.033629 0.000000 0.013930
v -0.033629 0.099114 0.013930
v -0.036400 0.000000 -0.000000
v -0.036400 0.099114 -0.000000
v -0.033629 0.000000 -0.013930
v -0.033629 0.099114 -0.013930
v -0.025739 0.000000 -0.025739
v -0.025739 0.099114 -0.025739
v -0.013930 0.000000 -0.033629
v -0.013930 0.099114 -0.033629
v 0.013027 0.099114 -0.031450
v -0.000000 0.099114 -0.034041
v 0.024071 0.099114 -0.024071
v 0.031450 0.099114 -0.013027
v 0.034041 0.099114 -0.000000
v 0.031450 0.099114 0.013027
v 0.024071 0.099114 0.024071
v 0.013027 0.099114 0.031450
v 0.000000 0.099114 0.034041
v -0.013027 0.099114 0.031450
v -0.024071 0.099114 0.024071
v -0.031450 0.099114 0.013027
v -0.034041 0.099114 -0.000000
v -0.031450 0.099114 -0.013027
v -0.024071 0.099114 -0.024071
v -0.013027 0.099114 -0.031450
v -0.000000 0.000000 -0.034508
v 0.013206 0.000000 -0.031882
v 0.024401 0.000000 -0.024401
v 0.031882 0.000000 -0.013206
v 0.034508 0.000000 -0.000000
v 0.031882 0.000000 0.013206
v 0.024401 0.000000 0.024401
v 0.013206 0.000000 0.031882
v 0.000000 0.000000 0.034508
v -0.013206 0.000000 0.031882
v -0.024401 0.000000 0.024401
v -0.031882 0.000000 0.013206
v -0.034508 0.000000 -0.000000
v -0.031882 0.000000 -0.013206
v -0.024401 0.000000 -0.024401
v -0.013206 0.000000 -0.031882
v -0.000000 0.002818 -0.034508
v 0.013206 0.002818 -0.031882
v 0.024401 0.002818 -0.024401
v 0.031882 0.002818 -0.013206
v 0.034508 0.002818 -0.000000
v 0.031882 0.002818 0.013206
v 0.024401 0.002818 0.024401
v 0.013206 0.002818 0.031882
v 0.000000 0.002818 0.034508
v -0.013206 0.002818 0.031882
v -0.024401 0.002818 0.024401
v -0.031882 0.002818 0.013206
v -0.034508 0.002818 -0.000000
v -0.031882 0.002818 -0.013206
v -0.024401 0.002818 -0.024401
v -0.013206 0.002818 -0.031882
v 0.000000 0.002818 -0.000000
v -0.014942 0.124097 -0.015211
v -0.016379 0.114347 -0.026614
v -0.023907 0.128690 -0.005179
v -0.012148 0.128691 0.017751
v -0.022059 0.128744 0.008485
v 0.001137 0.123940 0.020729
v 0.007167 0.114333 0.026188
v 0.003500 0.102693 0.032604
v -0.000836 0.097637 0.034706
v -0.012271 0.097554 0.033290
v -0.023037 0.097554 0.026181
v -0.032044 0.097554 0.013553
v -0.035340 0.097554 0.000688
v -0.032693 0.097554 -0.012221
v -0.027927 0.097640 -0.018511
v -0.024714 0.103505 -0.023093
v -0.015393 0.123822 -0.014926
v -0.016893 0.114419 -0.026312
v -0.024121 0.128144 -0.005051
v -0.022059 0.128144 0.008485
v -0.012360 0.128144 0.017878
v 0.000681 0.123678 0.021017
v 0.006699 0.114419 0.026488
v 0.003049 0.103007 0.032847
v -0.001106 0.098154 0.034845
v -0.012271 0.098154 0.033290
v -0.023037 0.098154 0.026181
v -0.032044 0.098154 0.013553
v -0.035340 0.098154 0.000688
v -0.032693 0.098154 -0.012221
v -0.028202 0.098154 -0.018369
v -0.025172 0.103803 -0.022845
v -0.000000 0.000000 -0.036400
v 0.013930 0.000000 -0.033629
v 0.013930 0.099114 -0.033629
v -0.000000 0.099114 -0.036400
v 0.025739 0.000000 -0.025739
v 0.025739 0.099114 -0.025739
v 0.033629 0.000000 -0.013930
v 0.033629 0.099114 -0.013930
v 0.036400 0.000000 -0.000000
v 0.036400 0.099114 -0.000000
v 0.033629 0.000000 0.013930
v 0.033629 0.099114 0.013930
v 0.025739 0.000000 0.025739
v 0.025739 0.099114 0.025739
v 0.013930 0.000000 0.033629
v 0.013930 0.099114 0.033629
v 0.000000 0.000000 0.036400
v 0.000000 0.099114 0.036400
v -0.013930 0.000000 0.033629
v -0.013930 0.099114 0.033629
v -0.025739 0.000000 0.025739
v -0.025739 0.099114 0.025739
v -0.033629 0.000000 0.013930
v -0.033629 0.099114 0.013930
v -0.036400 0.000000 -0.000000
v -0.036400 0.099114 -0.000000
v -0.033629 0.000000 -0.013930
v -0.033629 0.099114 -0.013930
v -0.025739 0.000000 -0.025739
v -0.025739 0.099114 -0.025739
v -0.013930 0.000000 -0.033629
v -0.013930 0.099114 -0.033629
v 0.013027 0.099114 -0.031450
v -0.000000 0.099114 -0.034041
v 0.024071 0.099114 -0.024071
v 0.031450 0.099114 -0.013027
v 0.034041 0.099114 -0.000000
v 0.031450 0.099114 0.013027
v 0.024071 0.099114 0.024071
v 0.013027 0.099114 0.031450
v 0.000000 0.099114 0.034041
v -0.013027 0.099114 0.031450
v -0.024071 0.099114 0.024071
v -0.031450 0.099114 0.013027
v -0.034041 0.099114 -0.000000
v -0.031450 0.099114 -0.013027
v -0.024071 0.099114 -0.024071
v -0.013027 0.099114 -0.031450
v -0.000000 0.000000 -0.034508
v 0.013206 0.000000 -0.031882
v 0.024401 0.000000 -0.024401
v 0.031882 0.000000 -0.013206
v 0.034508 0.000000 -0.000000
v 0.031882 0.000000 0.013206
v 0.024401 0.000000 0.024401
v 0.013206 0.000000 0.031882
v 0.000000 0.000000 0.034508
v -0.013206 0.000000 0.031882
v -0.024401 0.000000 0.024401
v -0.031882 0.000000 0.013206
v -0.034508 0.000000 -0.000000
v -0.031882 0.000000 -0.013206
v -0.024401 0.000000 -0.024401
v -0.013206 0.000000 -0.031882
v -0.000000 0.002818 -0.034508
v 0.013206 0.002818 -0.031882
v 0.024401 0.002818 -0.024401
v 0.031882 0.002818 -0.013206
v 0.034508 0.002818 -0.000000
v 0.031882 0.002818 0.013206
v 0.024401 0.002818 0.024401
v 0.013206 0.002818 0.031882
v 0.000000 0.002818 0.034508
v -0.013206 0.002818 0.031882
v -0.024401 0.002818 0.024401
v -0.031882 0.002818 0.013206
v -0.034508 0.002818 -0.000000
v -0.031882 0.002818 -0.013206
v -0.024401 0.002818 -0.024401
v -0.013206 0.002818 -0.031882
v 0.013027 0.003379 -0.031450
v -0.000000 0.003379 -0.034041
v 0.024071 0.003379 -0.024071
v 0.031450 0.003379 -0.013027
v 0.034041 0.003379 -0.000000
v 0.031450 0.003379 0.013027
v 0.024071 0.003379 0.024071
v 0.013027 0.003379 0.031450
v 0.000000 0.003379 0.034041
v -0.013027 0.003379 0.031450
v -0.024071 0.003379 0.024071
v -0.031450 0.003379 0.013027
v -0.034041 0.003379 -0.000000
v -0.031450 0.003379 -0.013027
v -0.024071 0.003379 -0.024071
v -0.013027 0.003379 -0.031450
v 0.000000 0.003379 -0.000000
vt 0.8102 0.0918
vt 0.8202 0.0472
vt 0.8181 0.1445
vt 0.8400 0.1830
vt 0.8484 0.0118
vt 0.8728 0.0000
vt 0.8728 0.2052
vt 0.5264 0.6710
vt 0.5236 0.8843
vt 0.4872 0.8787
vt 0.4869 0.6825
vt 0.4533 0.8431
vt 0.4537 0.7094
vt 0.5433 0.6731
vt 0.5433 0.8771
vt 0.8862 0.1164
vt 0.8909 0.0280
vt 0.9286 0.0000
vt 0.9286 0.1353
vt 0.8728 0.0710
vt 0.5512 0.7317
vt 0.5532 0.8289
vt 0.5433 0.7844
vt 0.6048 0.6710
vt 0.6048 0.8762
vt 0.5815 0.8643
vt 0.5731 0.6931
vt 0.0323 0.8851
vt 0.0323 0.6887
vt 0.0689 0.6833
vt 0.0716 0.8967
vt 0.0005 0.8581
vt 0.0000 0.7244
vt 0.0883 0.6906
vt 0.0883 0.8947
vt 0.9267 0.1353
vt 0.9267 0.2706
vt 0.8901 0.2424
vt 0.8853 0.1540
vt 0.8728 0.1994
vt 0.1186 0.8016
vt 0.0883 0.7781
vt 0.0903 0.7775
vt 0.1199 0.8001
vt 0.1663 0.7988
vt 0.1664 0.7968
vt 0.1939 0.3848
vt 0.1941 0.3419
vt 0.1960 0.3419
vt 0.1960 0.3848
vt 0.1940 0.4300
vt 0.1959 0.4300
vt 0.8259 0.2128
vt 0.8617 0.2052
vt 0.8621 0.2072
vt 0.8275 0.2141
vt 0.8102 0.2432
vt 0.8121 0.2434
vt 0.8213 0.2880
vt 0.8233 0.2874
vt 0.8324 0.3091
vt 0.8339 0.3076
vt 0.8615 0.3170
vt 0.8621 0.3150
vt 0.1960 0.3825
vt 0.1961 0.3419
vt 0.1981 0.3419
vt 0.1981 0.3825
vt 0.1960 0.4357
vt 0.1981 0.4357
vt 0.1961 0.4790
vt 0.1981 0.4790
vt 0.1349 0.6962
vt 0.1656 0.6833
vt 0.1664 0.6852
vt 0.1357 0.6981
vt 0.1111 0.7065
vt 0.1127 0.7077
vt 0.1020 0.7321
vt 0.1041 0.7324
vt 0.2080 0.0014
vt 0.2080 0.3419
vt 0.1739 0.3410
vt 0.1739 0.0005
vt 0.1291 0.3405
vt 0.1291 0.0000
vt 0.0803 0.3404
vt 0.0803 0.0000
vt 0.0350 0.3409
vt 0.0350 0.0005
vt 0.0000 0.3418
vt 0.0000 0.0014
vt 0.1737 0.3422
vt 0.1737 0.6827
vt 0.1287 0.6824
vt 0.1287 0.3419
vt 0.0799 0.6824
vt 0.0799 0.3419
vt 0.0347 0.6827
vt 0.0347 0.3422
vt 0.0000 0.6833
vt 0.0000 0.3428
vt 0.8573 0.9999
vt 0.8573 0.6594
vt 0.9021 0.6594
vt 0.9021 1.0000
vt 0.9509 0.6594
vt 0.9509 1.0000
vt 0.9665 0.3186
vt 0.9665 0.6591
vt 0.9212 0.6592
vt 0.9212 0.3187
vt 0.6279 0.3302
vt 0.6279 0.6708
vt 0.5922 0.6709
vt 0.5922 0.3303
vt 0.5465 0.6710
vt 0.5465 0.3304
vt 0.5495 0.2453
vt 0.5007 0.2453
vt 0.5023 0.2374
vt 0.5480 0.2374
vt 0.4977 0.6710
vt 0.4977 0.3304
vt 0.4533 0.6709
vt 0.4533 0.3303
vt 0.4001 0.3489
vt 0.4346 0.3834
vt 0.4292 0.3870
vt 0.3965 0.3543
vt 0.2818 0.3302
vt 0.2818 0.0013
vt 0.3274 0.0013
vt 0.3274 0.3302
vt 0.6291 0.0532
vt 0.6478 0.0983
vt 0.6399 0.0999
vt 0.6224 0.0577
vt 0.4557 0.2267
vt 0.4211 0.1922
vt 0.4279 0.1877
vt 0.4602 0.2199
vt 0.6478 0.1471
vt 0.6291 0.1922
vt 0.6224 0.1877
vt 0.6399 0.1455
vt 0.5007 0.0000
vt 0.5495 0.0000
vt 0.5480 0.0079
vt 0.5023 0.0079
vt 0.4025 0.1471
vt 0.4025 0.0983
vt 0.4104 0.0999
vt 0.4104 0.1455
vt 0.5946 0.2267
vt 0.5901 0.2199
vt 0.4211 0.0532
vt 0.4557 0.0187
vt 0.4602 0.0254
vt 0.4279 0.0577
vt 0.5946 0.0187
vt 0.5901 0.0254
vt 0.2257 0.6259
vt 0.2584 0.5932
vt 0.3243 0.6918
vt 0.8787 0.6592
vt 0.8787 0.3303
vt 0.9212 0.3302
vt 0.9212 0.6592
vt 0.3698 0.0009
vt 0.3698 0.3297
vt 0.6279 0.6594
vt 0.6279 0.3304
vt 0.6613 0.3303
vt 0.6613 0.6592
vt 0.4025 0.0001
vt 0.4025 0.3289
vt 0.7041 0.3302
vt 0.7041 0.6591
vt 0.6478 0.3295
vt 0.6478 0.0005
vt 0.6899 0.0009
vt 0.6899 0.3298
vt 0.7497 0.3302
vt 0.7497 0.6592
vt 0.7355 0.0009
vt 0.7355 0.3298
vt 0.7912 0.3303
vt 0.7912 0.6592
vt 0.7778 0.0006
vt 0.7778 0.3295
vt 0.2080 0.3288
vt 0.2080 0.0000
vt 0.2398 0.0009
vt 0.2398 0.3297
vt 0.7912 0.6591
vt 0.7912 0.3302
vt 0.8331 0.3303
vt 0.8331 0.6592
vt 0.4121 0.2885
vt 0.4124 0.3216
vt 0.4028 0.3215
vt 0.4025 0.2883
vt 0.4001 0.5568
vt 0.3550 0.5755
vt 0.3538 0.5691
vt 0.3965 0.5514
vt 0.2080 0.4773
vt 0.2080 0.4285
vt 0.2143 0.4297
vt 0.2143 0.4760
vt 0.3062 0.3302
vt 0.3550 0.3302
vt 0.3538 0.3366
vt 0.3075 0.3366
vt 0.4533 0.4773
vt 0.4346 0.5223
vt 0.4292 0.5187
vt 0.4469 0.4760
vt 0.2266 0.3834
vt 0.2612 0.3489
vt 0.2648 0.3543
vt 0.2321 0.3870
vt 0.2612 0.5568
vt 0.2266 0.5223
vt 0.2321 0.5187
vt 0.2648 0.5514
vt 0.4533 0.4285
vt 0.4469 0.4297
vt 0.3062 0.5755
vt 0.3075 0.5691
vt 0.4406 0.7149
vt 0.4229 0.7577
vt 0.1982 0.4736
vt 0.1981 0.4302
vt 0.2078 0.4302
vt 0.2079 0.4736
vt 0.1840 0.3419
vt 0.1835 0.3846
vt 0.1738 0.3845
vt 0.1743 0.3419
vt 0.1982 0.3840
vt 0.2079 0.3840
vt 0.1834 0.4308
vt 0.1737 0.4308
vt 0.1983 0.3419
vt 0.2080 0.3419
vt 0.1835 0.4737
vt 0.1840 0.5066
vt 0.1743 0.5065
vt 0.1738 0.4736
vt 0.1942 0.4736
vt 0.1937 0.5059
vt 0.1840 0.5060
vt 0.1845 0.4737
vt 0.1937 0.3419
vt 0.1937 0.3843
vt 0.1840 0.3843
vt 0.1841 0.3419
vt 0.1937 0.5484
vt 0.1840 0.5485
vt 0.1937 0.4306
vt 0.1840 0.4306
vt 0.1942 0.5947
vt 0.1845 0.5948
vt 0.1937 0.4736
vt 0.1841 0.4736
vt 0.4124 0.2455
vt 0.4028 0.2453
vt 0.1983 0.5074
vt 0.2080 0.5074
vt 0.2080 0.6687
vt 0.3901 0.7904
vt 0.3011 0.5755
vt 0.3474 0.8081
vt 0.3474 0.5755
vt 0.3011 0.8081
vt 0.3901 0.5932
vt 0.2584 0.7904
vt 0.4229 0.6259
vt 0.2257 0.7577
vt 0.4406 0.6687
vt 0.2080 0.7149
vt 0.7198 0.6594
vt 0.7654 0.6594
vt 0.7426 0.7741
vt 0.7654 0.8888
vt 0.7198 0.8888
vt 0.6776 0.6768
vt 0.8399 0.8391
vt 0.8076 0.8713
vt 0.6454 0.7091
vt 0.8573 0.7969
vt 0.6279 0.7513
vt 0.8573 0.7513
vt 0.6279 0.7969
vt 0.8399 0.7091
vt 0.6454 0.8391
vt 0.8076 0.6768
vt 0.6776 0.8713
vt 0.8102 0.0000
vt 0.8102 0.3289
vn 0.0000 -1.0000 0.0000
vn 0.0071 -0.9999 -0.0034
vn 0.0070 -1.0000 -0.0034
vn 0.4563 -0.8581 -0.2351
vn 0.4492 -0.8629 -0.2314
vn 0.7018 -0.6199 -0.3508
vn 0.7112 -0.6080 -0.3529
vn 0.8630 -0.3014 -0.4053
vn 0.8655 -0.2931 -0.4062
vn 0.7508 0.5680 -0.3371
vn 0.7622 0.5495 -0.3420
vn 0.2924 0.9465 -0.1362
vn 0.2974 0.9446 -0.1386
vn 0.0104 0.9999 -0.0053
vn 0.0000 1.0000 0.0000
vn -0.4503 0.8622 0.2320
vn -0.4582 0.8569 0.2361
vn -0.8637 0.2988 0.4058
vn -0.8607 0.3085 0.4048
vn -0.7100 0.6096 0.3525
vn -0.7010 0.6210 0.3505
vn -0.7601 -0.5530 0.3413
vn -0.7474 -0.5732 0.3359
vn -0.2890 -0.9478 0.1346
vn -0.2839 -0.9496 0.1323
vn -0.5679 0.5485 -0.6137
vn -0.5036 0.4461 -0.7398
vn -0.5036 0.4028 -0.7642
vn -0.6230 0.4237 -0.6576
vn -0.9099 0.2233 -0.3494
vn -0.9350 0.2228 -0.2759
vn -0.8687 0.2111 0.4481
vn -0.3701 0.3698 0.8522
vn -0.3908 0.3608 0.8468
vn 0.1740 0.5726 0.8011
vn 0.1364 0.5581 0.8185
vn 0.4605 0.4530 0.7633
vn 0.4655 0.4452 0.7649
vn 0.5212 0.1258 0.8441
vn 0.5150 0.1119 0.8498
vn 0.1878 -0.0854 0.9785
vn 0.1579 -0.0923 0.9831
vn -0.3500 -0.0786 0.9334
vn -0.3495 -0.0788 0.9336
vn -0.6942 0.0000 0.7197
vn -0.9068 0.0000 0.4216
vn -0.9997 0.0000 0.0243
vn -0.9114 -0.0618 -0.4068
vn -0.9111 -0.0621 -0.4075
vn -0.7184 -0.1793 -0.6720
vn -0.7271 -0.1733 -0.6642
vn -0.5559 -0.0595 -0.8291
vn -0.5756 -0.0944 -0.8122
vn 0.0000 0.0000 -1.0000
vn 0.3827 0.0000 -0.9239
vn 0.7071 0.0000 -0.7071
vn 0.9239 0.0000 -0.3827
vn 1.0000 0.0000 0.0000
vn 0.9239 0.0000 0.3827
vn 0.7071 0.0000 0.7071
vn 0.3827 0.0000 0.9239
vn 0.0000 0.0000 1.0000
vn -0.3827 0.0000 0.9239
vn -0.7071 0.0000 0.7071
vn -0.9239 0.0000 0.3827
vn -1.0000 0.0000 0.0000
vn -0.9239 0.0000 -0.3827
vn -0.7071 0.0000 -0.7071
vn -0.3827 0.0000 -0.9239
vn 0.5276 0.6657 -0.5276
vn 0.6894 0.6657 -0.2855
vn -0.6894 0.6657 0.2855
vn -0.7462 0.6657 0.0000
vn 0.7462 0.6657 0.0000
vn -0.6894 0.6657 -0.2855
vn 0.6894 0.6657 0.2855
vn -0.5276 0.6657 -0.5276
vn 0.5276 0.6657 0.5276
vn -0.2855 0.6657 -0.6894
vn 0.2855 0.6657 0.6894
vn 0.0000 0.6657 -0.7462
vn 0.0000 0.6657 0.7462
vn 0.2855 0.6657 -0.6894
vn -0.2855 0.6657 0.6894
vn -0.5276 0.6657 0.5276
usemtl CanOpen
s 1
f 125/1/1 126/2/1 124/3/1
f 123/4/2 127/5/3 128/6/4 122/7/5
f 124/3/1 126/2/1 127/5/3 123/4/2
f 121/8/6 129/9/7 115/10/8 120/11/9
f 114/12/10 119/13/11 120/11/9 115/10/8
f 122/14/5 128/15/4 129/9/7 121/8/6
f 116/16/12 117/17/13 119/18/11 114/19/10
f 118/20/14 117/17/13 116/16/12
f 140/21/15 142/22/15 141/23/15
f 138/24/16 144/25/17 143/26/15 139/27/15
f 139/27/15 143/26/15 142/22/15 140/21/15
f 136/28/18 131/29/19 145/30/20 137/31/21
f 131/29/19 136/28/18 135/32/22 130/33/23
f 137/31/21 145/30/20 144/34/17 138/35/16
f 130/36/23 135/37/22 134/38/24 132/39/25
f 132/39/25 134/38/24 133/40/1
f 1/41/26 2/42/27 18/43/28 17/44/29
f 3/45/30 1/41/26 17/44/29 19/46/31
f 4/47/32 3/48/30 19/49/31 20/50/32
f 5/51/33 4/47/32 20/50/32 21/52/34
f 6/53/35 5/54/33 21/55/34 22/56/36
f 7/57/37 6/53/35 22/56/36 23/58/38
f 8/59/39 7/57/37 23/58/38 24/60/40
f 9/61/41 8/59/39 24/60/40 25/62/42
f 10/63/43 9/61/41 25/62/42 26/64/44
f 11/65/45 10/66/43 26/67/44 27/68/45
f 12/69/46 11/65/45 27/68/45 28/70/46
f 13/71/47 12/69/46 28/70/46 29/72/47
f 14/73/48 13/74/47 29/75/47 30/76/49
f 15/77/50 14/73/48 30/76/49 31/78/51
f 16/79/52 15/77/50 31/78/51 32/80/53
f 2/42/27 16/79/52 32/80/53 18/43/28
f 146/81/54 149/82/54 148/83/55 147/84/55
f 147/84/55 148/83/55 151/85/56 150/86/56
f 150/86/56 151/85/56 153/87/57 152/88/57
f 152/88/57 153/87/57 155/89/58 154/90/58
f 154/90/58 155/89/58 157/91/59 156/92/59
f 156/93/59 157/94/59 159/95/60 158/96/60
f 158/96/60 159/95/60 161/97/61 160/98/61
f 160/98/61 161/97/61 163/99/62 162/100/62
f 162/100/62 163/99/62 165/101/63 164/102/63
f 164/103/63 165/104/63 167/105/64 166/106/64
f 166/106/64 167/105/64 169/107/65 168/108/65
f 168/109/65 169/110/65 171/111/66 170/112/66
f 170/113/66 171/114/66 173/115/67 172/116/67
f 172/116/67 173/115/67 175/117/68 174/118/68
f 48/119/15 46/120/15 184/121/15 185/122/15
f 174/118/68 175/117/68 177/123/69 176/124/69
f 176/124/69 177/123/69 149/125/54 146/126/54
f 41/127/1 43/128/1 199/129/1 198/130/1
f 188/131/56 236/132/70 237/133/71 76/134/57
f 58/135/15 56/136/15 189/137/15 190/138/15
f 44/139/15 42/140/15 182/141/15 183/142/15
f 54/143/15 52/144/15 187/145/15 75/146/15
f 64/147/15 62/148/15 192/149/15 193/150/15
f 40/151/15 38/152/15 180/153/15 181/154/15
f 50/155/15 48/119/15 185/122/15 186/156/15
f 36/157/15 34/158/15 179/159/15 178/160/15
f 60/161/15 58/135/15 190/138/15 191/162/15
f 46/120/15 44/139/15 183/142/15 184/121/15
f 56/136/15 54/143/15 75/146/15 189/137/15
f 34/158/15 64/147/15 193/150/15 179/159/15
f 42/140/15 40/151/15 181/154/15 182/141/15
f 52/144/15 50/155/15 186/156/15 187/145/15
f 62/148/15 60/161/15 191/162/15 192/149/15
f 38/152/15 36/157/15 178/160/15 180/153/15
f 210/163/1 211/164/1 113/165/1
f 68/166/65 229/167/72 230/168/73 69/169/66
f 76/134/57 237/133/71 238/170/74 77/171/58
f 69/172/66 230/173/73 231/174/75 70/175/67
f 77/171/58 238/170/74 239/176/76 78/177/59
f 70/175/67 231/174/75 232/178/77 71/179/68
f 78/180/59 239/181/76 240/182/78 79/183/60
f 71/179/68 232/178/77 233/184/79 72/185/69
f 79/183/60 240/182/78 241/186/80 80/187/61
f 72/185/69 233/184/79 234/188/81 73/189/54
f 80/187/61 241/186/80 227/190/82 66/191/62
f 73/192/54 234/193/81 235/194/83 74/195/55
f 65/196/63 226/197/84 228/198/85 67/199/64
f 74/195/55 235/194/83 236/132/70 188/131/56
f 67/199/64 228/198/85 229/167/72 68/166/65
f 93/200/58 207/201/59 223/202/59 222/203/58
f 51/204/1 53/205/1 204/206/1 203/207/1
f 61/208/1 63/209/1 209/210/1 208/211/1
f 37/212/1 39/213/1 197/214/1 196/215/1
f 47/216/1 49/217/1 202/218/1 201/219/1
f 33/220/1 35/221/1 195/222/1 194/223/1
f 57/224/1 59/225/1 94/226/1 206/227/1
f 43/128/1 45/228/1 200/229/1 199/129/1
f 53/205/1 55/230/1 205/231/1 204/206/1
f 63/209/1 33/220/1 194/223/1 209/210/1
f 39/213/1 41/127/1 198/130/1 197/214/1
f 49/217/1 51/204/1 203/207/1 202/218/1
f 59/225/1 61/208/1 208/211/1 94/226/1
f 35/221/1 37/212/1 196/215/1 195/222/1
f 45/228/1 47/216/1 201/219/1 200/229/1
f 55/230/1 57/224/1 206/227/1 205/231/1
f 104/232/1 218/233/1 113/165/1
f 86/234/67 87/235/68 216/236/68 215/237/67
f 207/238/59 95/239/60 224/240/60 223/241/59
f 87/235/68 88/242/69 217/243/69 216/236/68
f 95/239/60 96/244/61 225/245/61 224/240/60
f 88/242/69 89/246/54 105/247/54 217/243/69
f 81/248/62 82/249/63 98/250/63 97/251/62
f 96/244/61 81/248/62 97/251/62 225/245/61
f 89/252/54 90/253/55 219/254/55 105/255/54
f 82/256/63 83/257/64 212/258/64 98/259/63
f 90/253/55 91/260/56 220/261/56 219/254/55
f 83/257/64 84/262/65 213/263/65 212/258/64
f 91/260/56 92/264/57 221/265/57 220/261/56
f 84/262/65 85/266/66 214/267/66 213/263/65
f 92/268/57 93/200/58 222/203/58 221/269/57
f 85/270/66 86/234/67 215/237/67 214/271/66
f 112/272/1 210/163/1 113/165/1
f 218/233/1 106/273/1 113/165/1
f 211/164/1 99/274/1 113/165/1
f 106/273/1 107/275/1 113/165/1
f 99/274/1 100/276/1 113/165/1
f 107/275/1 108/277/1 113/165/1
f 100/276/1 101/278/1 113/165/1
f 108/277/1 109/279/1 113/165/1
f 101/278/1 102/280/1 113/165/1
f 109/279/1 110/281/1 113/165/1
f 102/280/1 103/282/1 113/165/1
f 110/281/1 111/283/1 113/165/1
f 103/282/1 104/232/1 113/165/1
f 111/283/1 112/272/1 113/165/1
f 233/284/79 232/285/77 242/286/15
f 241/287/80 240/288/78 242/286/15
f 234/289/81 233/284/79 242/286/15
f 226/290/84 227/291/82 242/286/15
f 227/291/82 241/287/80 242/286/15
f 235/292/83 234/289/81 242/286/15
f 228/293/85 226/290/84 242/286/15
f 236/294/70 235/292/83 242/286/15
f 229/295/72 228/293/85 242/286/15
f 237/296/71 236/294/70 242/286/15
f 230/297/73 229/295/72 242/286/15
f 238/298/74 237/296/71 242/286/15
f 231/299/75 230/297/73 242/286/15
f 239/300/76 238/298/74 242/286/15
f 232/285/77 231/299/75 242/286/15
f 240/288/78 239/300/76 242/286/15
f 66/191/62 227/190/82 226/301/84 65/302/63
