# Blender v2.77 (sub 0) OBJ File: 'CutleryFix2.blend'
# www.blender.org
mtllib Cup.mtl
g Cup
v 0.000000 0.095422 -0.039409
v 0.019370 0.095422 -0.036409
v 0.035791 0.095422 -0.027866
v 0.046763 0.095422 -0.015081
v 0.050616 0.095422 0.000000
v 0.046763 0.095422 0.015081
v 0.035791 0.095422 0.027866
v 0.019370 0.095422 0.036409
v 0.000000 0.095422 0.039409
v -0.019370 0.095422 0.036409
v -0.035791 0.095422 0.027866
v -0.046763 0.095422 0.015081
v -0.050616 0.095422 -0.000000
v -0.046763 0.095422 -0.015081
v -0.035791 0.095422 -0.027866
v -0.019370 0.095422 -0.036409
v -0.019370 0.091678 -0.036409
v -0.035791 0.091678 -0.027866
v -0.046763 0.091678 -0.015081
v -0.050616 0.091678 -0.000000
v -0.046763 0.091678 0.015081
v -0.035791 0.091678 0.027866
v -0.019370 0.091678 0.036409
v 0.000000 0.091678 0.039409
v 0.019370 0.091678 0.036409
v 0.035791 0.091678 0.027866
v 0.046763 0.091678 0.015081
v 0.050616 0.091678 0.000000
v 0.046763 0.091678 -0.015081
v 0.035791 0.091678 -0.027866
v 0.019370 0.091678 -0.036409
v 0.000000 0.091678 -0.039409
v -0.018670 0.091746 -0.035094
v -0.034498 0.091746 -0.026860
v -0.045074 0.091746 -0.014536
v -0.048788 0.091746 -0.000000
v -0.045074 0.091746 0.014536
v -0.034498 0.091746 0.026860
v -0.018670 0.091746 0.035094
v 0.000000 0.091746 0.037985
v 0.018670 0.091746 0.035094
v 0.034498 0.091746 0.026860
v 0.045074 0.091746 0.014536
v 0.048788 0.091746 0.000000
v 0.045074 0.091746 -0.014536
v 0.034498 0.091746 -0.026860
v 0.018670 0.091746 -0.035094
v 0.000000 0.091746 -0.037985
v 0.000000 -0.002221 -0.037985
v 0.000000 0.095355 -0.037985
v 0.018670 -0.002221 -0.035094
v 0.018670 0.095355 -0.035094
v 0.034498 -0.002221 -0.026860
v 0.034498 0.095355 -0.026860
v 0.045074 -0.002221 -0.014536
v 0.045074 0.095355 -0.014536
v 0.048788 -0.002221 0.000000
v 0.048788 0.095355 0.000000
v 0.045074 -0.002221 0.014536
v 0.045074 0.095355 0.014536
v 0.034498 -0.002221 0.026860
v 0.034498 0.095355 0.026860
v 0.018670 -0.002221 0.035094
v 0.018670 0.095355 0.035094
v 0.000000 -0.002221 0.037985
v 0.000000 0.095355 0.037985
v -0.018670 -0.002221 0.035094
v -0.018670 0.095355 0.035094
v -0.034498 -0.002221 0.026860
v -0.034498 0.095355 0.026860
v -0.045074 -0.002221 0.014536
v -0.045074 0.095355 0.014536
v -0.068037 0.080985 -0.002406
v -0.048788 0.095355 -0.000000
v -0.045074 0.095355 -0.014536
v -0.034498 -0.002221 -0.026860
v -0.034498 0.095355 -0.026860
v -0.018670 -0.002221 -0.035094
v -0.018670 0.095355 -0.035094
v 0.017886 0.095355 0.033590
v 0.000011 0.095355 0.036359
v -0.017864 0.095355 0.033590
v -0.033018 0.095355 0.025707
v -0.043143 0.095355 0.013909
v -0.046699 0.095355 -0.000009
v -0.043143 0.095355 -0.013926
v -0.048788 -0.002221 -0.000000
v -0.045074 -0.002221 -0.014536
v 0.000011 0.000922 -0.036125
v 0.017763 0.000922 -0.033376
v 0.032812 0.000922 -0.025547
v 0.042867 0.000922 -0.013830
v 0.046398 0.000922 -0.000009
v 0.042867 0.000922 0.013812
v 0.032812 0.000922 0.025529
v 0.017763 0.000922 0.033358
v 0.000011 0.000922 0.036107
v -0.017741 0.000922 0.033358
v -0.032790 0.000922 0.025529
v -0.042845 0.000922 0.013812
v -0.046376 0.000922 -0.000009
v -0.042845 0.000922 -0.013830
v -0.032790 0.000922 -0.025547
v -0.017741 0.000922 -0.033376
v 0.000011 0.095355 -0.036125
v 0.017763 0.095355 -0.033376
v 0.032812 0.095355 -0.025547
v 0.042867 0.095355 -0.013830
v 0.046398 0.095355 -0.000009
v 0.042867 0.095355 0.013812
v 0.032812 0.095355 0.025529
v -0.032790 0.095355 -0.025547
v -0.017741 0.095355 -0.033376
v 0.000000 0.000000 0.000000
v 0.000002 0.003706 -0.000001
v -0.078157 0.062318 0.002883
v -0.079112 0.062318 -0.002406
v -0.078157 0.062318 -0.002406
v -0.068501 0.081721 -0.002406
v -0.068037 0.080985 0.002883
v -0.068501 0.081721 0.002883
v -0.048132 0.080985 -0.002568
v -0.048132 0.038807 -0.002568
v -0.048132 0.037758 -0.002568
v -0.048093 0.037758 0.002721
v -0.048093 0.081721 0.002721
v -0.048093 0.080985 0.002721
v -0.048093 0.038807 0.002721
v -0.048132 0.081721 -0.002568
v -0.072453 0.037758 0.002883
v -0.072453 0.037758 -0.002406
v -0.079112 0.062318 0.002883
v -0.078253 0.047359 0.002883
v -0.079112 0.047114 -0.002406
v -0.078253 0.047359 -0.002406
v -0.079112 0.047114 0.002883
v -0.072184 0.038807 0.002883
v -0.072184 0.038807 -0.002406
v 0.000000 0.095422 -0.039409
v -0.019370 0.095422 -0.036409
v -0.035791 0.095422 -0.027866
v -0.046763 0.095422 -0.015081
v -0.050616 0.095422 -0.000000
v -0.046763 0.095422 0.015081
v -0.035791 0.095422 0.027866
v -0.019370 0.095422 0.036409
v 0.000000 0.095422 0.039409
v 0.019370 0.095422 0.036409
v 0.035791 0.095422 0.027866
v 0.046763 0.095422 0.015081
v 0.050616 0.095422 0.000000
v 0.046763 0.095422 -0.015081
v 0.035791 0.095422 -0.027866
v 0.019370 0.095422 -0.036409
v -0.019370 0.091678 -0.036409
v 0.000000 0.091678 -0.039409
v -0.035791 0.091678 -0.027866
v -0.046763 0.091678 -0.015081
v -0.050616 0.091678 -0.000000
v -0.046763 0.091678 0.015081
v -0.035791 0.091678 0.027866
v -0.019370 0.091678 0.036409
v 0.000000 0.091678 0.039409
v 0.019370 0.091678 0.036409
v 0.035791 0.091678 0.027866
v 0.046763 0.091678 0.015081
v 0.050616 0.091678 0.000000
v 0.046763 0.091678 -0.015081
v 0.035791 0.091678 -0.027866
v 0.019370 0.091678 -0.036409
v 0.000000 0.091746 -0.037985
v 0.018670 0.091746 -0.035094
v 0.034498 0.091746 -0.026860
v 0.045074 0.091746 -0.014536
v 0.048788 0.091746 0.000000
v 0.045074 0.091746 0.014536
v 0.034498 0.091746 0.026860
v 0.018670 0.091746 0.035094
v 0.000000 0.091746 0.037985
v -0.018670 0.091746 0.035094
v -0.034498 0.091746 0.026860
v -0.045074 0.091746 0.014536
v -0.068501 0.081721 -0.002406
v -0.079112 0.062318 -0.002406
v -0.045074 0.091746 -0.014536
v -0.034498 0.091746 -0.026860
v -0.018670 0.091746 -0.035094
v 0.000000 -0.002221 -0.037985
v 0.018670 -0.002221 -0.035094
v 0.034498 -0.002221 -0.026860
v 0.045074 -0.002221 -0.014536
v 0.048788 -0.002221 0.000000
v 0.045074 -0.002221 0.014536
v 0.034498 -0.002221 0.026860
v 0.018670 -0.002221 0.035094
v 0.000000 -0.002221 0.037985
v -0.018670 -0.002221 0.035094
v -0.034498 -0.002221 0.026860
v -0.045074 -0.002221 0.014536
v -0.078157 0.062318 -0.002406
v -0.068037 0.080985 -0.002406
v -0.034498 -0.002221 -0.026860
v -0.018670 -0.002221 -0.035094
v 0.000011 0.095355 0.036359
v 0.017886 0.095355 0.033590
v -0.017864 0.095355 0.033590
v -0.033018 0.095355 0.025707
v -0.043143 0.095355 0.013909
v -0.046699 0.095355 -0.000009
v -0.043143 0.095355 -0.013926
v -0.048788 -0.002221 -0.000000
v -0.045074 -0.002221 -0.014536
v 0.000011 0.000922 -0.036125
v 0.017763 0.000922 -0.033376
v 0.032812 0.000922 -0.025547
v 0.042867 0.000922 -0.013830
v 0.046398 0.000922 -0.000009
v 0.042867 0.000922 0.013812
v 0.032812 0.000922 0.025529
v 0.017763 0.000922 0.033358
v 0.000011 0.000922 0.036107
v -0.017741 0.000922 0.033358
v -0.032790 0.000922 0.025529
v -0.042845 0.000922 0.013812
v -0.046376 0.000922 -0.000009
v -0.042845 0.000922 -0.013830
v -0.032790 0.000922 -0.025547
v -0.017741 0.000922 -0.033376
v 0.000011 0.095355 -0.036125
v 0.017763 0.095355 -0.033376
v 0.032812 0.095355 -0.025547
v 0.042867 0.095355 -0.013830
v 0.046398 0.095355 -0.000009
v 0.042867 0.095355 0.013812
v 0.032812 0.095355 0.025529
v -0.032790 0.095355 -0.025547
v -0.017741 0.095355 -0.033376
v -0.048788 0.091746 -0.000000
v -0.079112 0.047114 -0.002406
v -0.078253 0.047359 -0.002406
v -0.079112 0.062318 0.002883
v -0.068501 0.081721 0.002883
v -0.068037 0.080985 0.002883
v -0.078157 0.062318 0.002883
v -0.048132 0.080985 -0.002568
v -0.048132 0.081721 -0.002568
v -0.048093 0.081721 0.002721
v -0.048093 0.080985 0.002721
v -0.072453 0.037758 -0.002406
v -0.048132 0.037758 -0.002568
v -0.072453 0.037758 0.002883
v -0.048093 0.037758 0.002721
v -0.079112 0.047114 0.002883
v -0.078253 0.047359 0.002883
v -0.072184 0.038807 0.002883
v -0.072184 0.038807 -0.002406
v -0.048132 0.038807 -0.002568
v -0.048093 0.038807 0.002721
vt 0.1549 0.3278
vt 0.2009 0.3081
vt 0.2036 0.3134
vt 0.1558 0.3338
vt 0.2837 0.2670
vt 0.3189 0.3081
vt 0.3163 0.3134
vt 0.2797 0.2707
vt 0.5151 0.1233
vt 0.4961 0.0669
vt 0.5000 0.0631
vt 0.5198 0.1216
vt 0.2361 0.2670
vt 0.2401 0.2707
vt 0.2552 0.2106
vt 0.2599 0.2122
vt 0.4608 0.2944
vt 0.4961 0.2464
vt 0.5000 0.2494
vt 0.4635 0.2992
vt 0.3650 0.0109
vt 0.3189 0.0394
vt 0.3163 0.0347
vt 0.3640 0.0050
vt 0.2552 0.1475
vt 0.2599 0.1468
vt 0.2646 0.2106
vt 0.2599 0.2122
vt 0.2361 0.0874
vt 0.2401 0.0844
vt 0.5151 0.1863
vt 0.5198 0.1870
vt 0.2009 0.0394
vt 0.2036 0.0347
vt 0.4148 0.3230
vt 0.4157 0.3288
vt 0.4148 0.0060
vt 0.4157 0.0000
vt 0.1549 0.0109
vt 0.1558 0.0050
vt 0.2646 0.1475
vt 0.2599 0.1468
vt 0.4683 0.6914
vt 0.4808 0.6914
vt 0.4808 0.7547
vt 0.4683 0.7547
vt 0.4684 0.6398
vt 0.4808 0.6398
vt 0.6731 0.7907
vt 0.6855 0.7907
vt 0.6878 0.8334
vt 0.6753 0.8334
vt 0.6723 0.7404
vt 0.6847 0.7404
vt 0.6731 0.6901
vt 0.6855 0.6901
vt 0.6753 0.6474
vt 0.6878 0.6474
vt 0.6598 0.8277
vt 0.6722 0.8277
vt 0.6723 0.8851
vt 0.6598 0.8851
vt 0.6598 0.7624
vt 0.6722 0.7624
vt 0.6598 0.6991
vt 0.6722 0.6991
vt 0.6598 0.6474
vt 0.6723 0.6474
vt 0.2010 0.6983
vt 0.1886 0.6987
vt 0.1894 0.6560
vt 0.2019 0.6556
vt 0.2019 0.7486
vt 0.1894 0.7491
vt 0.2144 0.7063
vt 0.2019 0.7059
vt 0.2028 0.6556
vt 0.2152 0.6560
vt 0.2152 0.7491
vt 0.2028 0.7486
vt 0.4683 0.8201
vt 0.4808 0.8201
vt 0.4808 0.8774
vt 0.4684 0.8774
vt 0.6070 0.3338
vt 0.6070 0.6474
vt 0.5440 0.6474
vt 0.5440 0.3338
vt 0.4887 0.6474
vt 0.4887 0.3338
vt 0.8074 0.9649
vt 0.8074 0.6519
vt 0.8486 0.6497
vt 0.8486 0.9627
vt 0.8971 0.6490
vt 0.8971 0.9619
vt 0.7178 0.9619
vt 0.7178 0.6490
vt 0.7663 0.6497
vt 0.7663 0.9627
vt 0.8074 0.6519
vt 0.8074 0.9649
vt 0.7489 0.0000
vt 0.7489 0.3136
vt 0.6991 0.3136
vt 0.6991 0.0000
vt 0.6381 0.3136
vt 0.6381 0.0000
vt 0.5751 0.3136
vt 0.5751 0.0000
vt 0.5198 0.3136
vt 0.5198 0.0000
vt 0.2329 0.7697
vt 0.2505 0.7697
vt 0.2505 0.7969
vt 0.2329 0.7969
vt 0.7178 0.7278
vt 0.7002 0.7278
vt 0.7002 0.6772
vt 0.7178 0.6772
vt 0.8971 0.6514
vt 0.8971 0.6490
vt 0.9648 0.6490
vt 0.9632 0.6514
vt 0.7178 0.3339
vt 0.7178 0.6474
vt 0.6680 0.6474
vt 0.6680 0.3338
vt 0.1050 0.0060
vt 0.1041 0.0000
vt 0.0590 0.0257
vt 0.0563 0.0204
vt 0.3650 0.3278
vt 0.3640 0.3338
vt 0.4608 0.0257
vt 0.4635 0.0204
vt 0.0238 0.0669
vt 0.0198 0.0631
vt 0.0047 0.1863
vt 0.0238 0.2464
vt 0.0198 0.2494
vt 0.0000 0.1870
vt 0.2837 0.0874
vt 0.2797 0.0844
vt 0.0047 0.1233
vt 0.0000 0.1216
vt 0.0590 0.2944
vt 0.0563 0.2992
vt 0.1050 0.3230
vt 0.1041 0.3288
vt 0.4909 0.2425
vt 0.5090 0.1853
vt 0.4574 0.0326
vt 0.4136 0.0139
vt 0.2700 0.1483
vt 0.2700 0.2087
vt 0.4138 0.3163
vt 0.4574 0.2881
vt 0.5090 0.1254
vt 0.4909 0.0718
vt 0.3224 0.0457
vt 0.2882 0.0908
vt 0.3220 0.3021
vt 0.3660 0.3209
vt 0.3662 0.0185
vt 0.2882 0.2627
vt 0.7178 0.7947
vt 0.7002 0.7947
vt 0.4683 0.9549
vt 0.4210 0.9549
vt 0.4210 0.6398
vt 0.4683 0.6398
vt 0.8890 0.6490
vt 0.8309 0.6490
vt 0.8310 0.3338
vt 0.8895 0.3338
vt 0.3630 0.9549
vt 0.3031 0.9549
vt 0.3031 0.6398
vt 0.3630 0.6398
vt 0.7711 0.6490
vt 0.7708 0.3338
vt 0.2505 0.9549
vt 0.2505 0.6398
vt 0.7185 0.6490
vt 0.7178 0.3338
vt 0.0000 0.6556
vt 0.0391 0.6577
vt 0.0391 0.9722
vt 0.0000 0.9701
vt 0.4892 0.6502
vt 0.5283 0.6482
vt 0.5281 0.9626
vt 0.4887 0.9647
vt 0.0852 0.6584
vt 0.0852 0.9729
vt 0.5744 0.6474
vt 0.5745 0.9619
vt 0.1313 0.6577
vt 0.1313 0.9722
vt 0.6206 0.6481
vt 0.6210 0.9626
vt 0.1704 0.6556
vt 0.1704 0.9701
vt 0.6597 0.6502
vt 0.6598 0.9647
vt 0.9363 0.6490
vt 0.9363 0.3339
vt 0.2315 0.4152
vt 0.1253 0.4947
vt 0.1962 0.3672
vt 0.0000 0.5141
vt 0.0191 0.5742
vt 0.2505 0.5384
vt 0.2505 0.4753
vt 0.0000 0.4511
vt 0.2315 0.5948
vt 0.0191 0.3947
vt 0.1962 0.6359
vt 0.0543 0.3535
vt 0.1502 0.6556
vt 0.1003 0.3338
vt 0.1003 0.6508
vt 0.1502 0.3387
vt 0.0543 0.6222
vt 0.4706 0.3917
vt 0.4887 0.4453
vt 0.3696 0.4868
vt 0.2687 0.5819
vt 0.2505 0.5283
vt 0.4371 0.3525
vt 0.3022 0.6211
vt 0.3933 0.3338
vt 0.3459 0.6398
vt 0.3459 0.3384
vt 0.3933 0.6352
vt 0.3022 0.3656
vt 0.4371 0.6080
vt 0.2687 0.4112
vt 0.4706 0.5624
vt 0.2505 0.4684
vt 0.4887 0.5052
vt 0.2329 0.7199
vt 0.2505 0.7199
vt 0.8971 0.9424
vt 0.8971 0.9399
vt 0.9631 0.9399
vt 0.9646 0.9424
vt 0.2329 0.8041
vt 0.2152 0.8041
vt 0.2152 0.7361
vt 0.2329 0.7360
vt 0.9999 0.8269
vt 0.9970 0.8277
vt 0.9769 0.7992
vt 0.9778 0.7957
vt 0.2329 0.7360
vt 0.2152 0.7360
vt 0.2152 0.6557
vt 0.2329 0.6556
vt 0.9968 0.7137
vt 1.0000 0.7137
vt 1.0000 0.7645
vt 0.9971 0.7636
vt 0.2329 0.6556
vt 0.2505 0.6556
vt 0.9999 0.8776
vt 0.9967 0.8776
vt 0.9282 0.3159
vt 0.8870 0.3137
vt 0.8870 0.0008
vt 0.9282 0.0030
vt 0.8385 0.3130
vt 0.7900 0.3137
vt 0.7900 0.0008
vt 0.8385 0.0000
vt 0.7489 0.3159
vt 0.7489 0.0030
vt 0.1704 0.7369
vt 0.1881 0.7369
vt 0.1881 0.8035
vt 0.1704 0.8033
vt 0.1881 0.6556
vt 0.1881 0.7369
vt 0.1704 0.7368
vt 0.1704 0.6556
vt 0.8971 0.7957
vt 0.8971 0.7922
vt 0.9770 0.7922
vt 0.9779 0.7957
vt 0.7002 0.6474
vt 0.7178 0.6474
vt 0.8971 0.7992
vt 0.8971 0.7957
vn 0.0370 -0.9993 0.0000
vn 0.0339 -0.9992 -0.0190
vn 0.0345 -0.9992 -0.0171
vn 0.0143 0.9997 -0.0193
vn 0.0194 0.9997 -0.0109
vn 0.0345 0.9992 -0.0171
vn 0.0270 0.9991 -0.0324
vn -0.0074 0.9997 0.0244
vn -0.0143 0.9997 0.0193
vn -0.0270 0.9991 0.0324
vn -0.0150 0.9989 0.0434
vn 0.0254 -0.9991 -0.0345
vn 0.0270 -0.9991 -0.0324
vn 0.0135 -0.9989 -0.0442
vn 0.0150 -0.9989 -0.0434
vn 0.0143 0.9997 0.0193
vn 0.0074 0.9997 0.0244
vn 0.0150 0.9989 0.0434
vn 0.0270 0.9991 0.0324
vn -0.0194 0.9997 -0.0109
vn -0.0143 0.9997 -0.0193
vn -0.0270 0.9991 -0.0324
vn -0.0345 0.9992 -0.0171
vn 0.0000 -0.9989 -0.0474
vn 0.0074 0.9997 -0.0244
vn 0.0150 0.9989 -0.0434
vn -0.0135 -0.9989 -0.0442
vn -0.0150 -0.9989 -0.0434
vn 0.0000 0.9996 0.0260
vn 0.0000 0.9989 0.0475
vn -0.0254 -0.9991 -0.0345
vn -0.0270 -0.9991 -0.0324
vn 0.0194 0.9997 0.0109
vn 0.0345 0.9992 0.0171
vn -0.0214 0.9998 0.0000
vn -0.0370 0.9993 0.0000
vn -0.0339 -0.9992 -0.0190
vn -0.0345 -0.9992 -0.0171
vn 0.0000 0.9996 -0.0260
vn 0.0000 0.9989 -0.0474
vn -0.3114 0.0000 -0.9503
vn 0.0000 0.0000 -1.0000
vn -0.6214 0.0000 -0.7834
vn -0.8871 0.0000 -0.4615
vn -1.0000 0.0000 0.0000
vn -0.8871 0.0000 0.4615
vn -0.6214 0.0000 0.7834
vn -0.3114 0.0000 0.9503
vn 0.0000 0.0000 1.0000
vn 0.3114 0.0000 0.9503
vn 0.6214 0.0000 0.7834
vn 0.8871 0.0000 0.4615
vn 1.0000 0.0000 0.0000
vn 0.8871 0.0000 -0.4615
vn 0.6214 0.0000 -0.7834
vn 0.3114 0.0000 -0.9503
vn 0.9537 0.3007 0.0000
vn 0.4599 0.8879 0.0000
vn 0.4579 0.8890 0.0000
vn -0.9688 0.2476 0.0000
vn -0.9525 -0.3044 0.0000
vn 0.0080 0.0025 0.9999
vn 0.0039 0.0012 1.0000
vn 0.0040 0.0013 1.0000
vn -0.0370 -0.9993 0.0000
vn -0.0339 -0.9992 0.0190
vn -0.0345 -0.9992 0.0171
vn 0.0214 0.9998 0.0000
vn 0.0370 0.9993 0.0000
vn -0.0194 0.9997 0.0109
vn -0.0345 0.9992 0.0171
vn -0.0254 -0.9991 0.0345
vn -0.0270 -0.9991 0.0324
vn 0.0000 -0.9989 0.0474
vn 0.0135 -0.9989 0.0442
vn 0.0150 -0.9989 0.0434
vn -0.0074 0.9997 -0.0244
vn -0.0150 0.9989 -0.0434
vn -0.0135 -0.9989 0.0442
vn -0.0150 -0.9989 0.0434
vn 0.0254 -0.9991 0.0345
vn 0.0270 -0.9991 0.0324
vn 0.0339 -0.9992 0.0190
vn 0.0345 -0.9992 0.0171
vn 0.0000 1.0000 0.0000
vn -0.5113 0.8594 0.0000
vn -0.5087 0.8609 0.0000
vn 0.6178 0.0008 0.7863
vn -0.3150 0.0020 -0.9491
vn 0.0000 0.0027 -1.0000
vn -0.3151 0.0020 -0.9490
vn 0.3113 0.0027 -0.9503
vn 0.3114 0.0027 -0.9503
vn 0.6214 0.0030 -0.7835
vn 0.6215 0.0030 -0.7833
vn 0.8871 0.0033 -0.4616
vn 0.8871 0.0033 -0.4614
vn 1.0000 0.0034 0.0000
vn 0.8849 0.0025 0.4657
vn 0.8850 0.0025 0.4655
vn -0.6245 0.0007 -0.7810
vn 0.0184 -0.9984 0.0534
vn 0.0000 -1.0000 0.0000
vn 0.0332 -0.9986 0.0399
vn 0.0000 -0.9983 -0.0584
vn -0.0184 -0.9984 -0.0534
vn -0.0184 -0.9984 0.0534
vn 0.0000 -0.9983 0.0584
vn 0.0184 -0.9984 -0.0534
vn -0.0332 -0.9986 0.0399
vn 0.0332 -0.9986 -0.0399
vn -0.0424 -0.9989 0.0210
vn 0.0424 -0.9989 -0.0210
vn -0.0455 -0.9990 0.0000
vn 0.0455 -0.9990 0.0000
vn -0.0424 -0.9989 -0.0210
vn 0.0424 -0.9989 0.0210
vn -0.0332 -0.9986 -0.0399
vn 0.0438 0.9977 -0.0525
vn 0.0242 0.9972 -0.0703
vn -0.0438 0.9977 0.0525
vn -0.0242 0.9972 0.0703
vn 0.0559 0.9980 -0.0276
vn -0.0559 0.9980 0.0277
vn 0.0599 0.9982 0.0000
vn -0.0599 0.9982 0.0000
vn 0.0559 0.9980 0.0276
vn -0.0559 0.9980 -0.0277
vn 0.0438 0.9977 0.0525
vn -0.0438 0.9977 -0.0525
vn 0.0242 0.9972 0.0703
vn -0.0242 0.9972 -0.0703
vn 0.0000 0.9970 0.0769
vn 0.0000 0.9970 -0.0768
vn 0.9685 -0.2489 0.0000
vn -0.0080 -0.0025 -0.9999
vn -0.0041 -0.0013 -1.0000
vn -0.0039 -0.0012 -1.0000
vn -0.0030 0.0004 -1.0000
vn -0.0040 0.0005 -1.0000
vn 0.5102 -0.8600 0.0000
vn 0.5129 -0.8584 0.0000
vn -0.4593 -0.8883 0.0000
vn -0.4574 -0.8892 0.0000
vn 0.0067 -0.0009 1.0000
vn 0.0030 -0.0004 1.0000
vn 0.0040 -0.0005 1.0000
vn -0.0067 0.0009 -1.0000
usemtl Cup
s 1
f 238/1/1 182/2/2 160/3/3 20/4/1
f 70/5/4 72/6/5 12/7/6 145/8/7
f 52/9/8 54/10/9 3/11/10 154/12/11
f 182/2/2 181/13/12 161/14/13 160/3/3
f 181/13/12 180/15/14 162/16/15 161/14/13
f 77/17/16 79/18/17 16/19/18 141/20/19
f 60/21/20 62/22/21 7/23/22 150/24/23
f 180/15/14 179/25/24 163/26/24 162/16/15
f 68/27/25 70/5/4 145/8/7 146/28/26
f 179/25/24 178/29/27 164/30/28 163/26/24
f 50/31/29 52/9/8 154/12/11 1/32/30
f 178/29/27 177/33/31 165/34/32 164/30/28
f 75/35/33 77/17/16 141/20/19 142/36/34
f 58/37/35 60/21/20 150/24/23 151/38/36
f 177/33/31 176/39/37 166/40/38 165/34/32
f 66/41/39 68/27/25 146/28/26 147/42/40
f 155/43/41 140/44/41 139/45/42 156/46/42
f 157/47/43 15/48/43 140/44/41 155/43/41
f 158/49/44 14/50/44 15/51/43 157/52/43
f 159/53/45 143/54/45 14/50/44 158/49/44
f 21/55/46 144/56/46 143/54/45 159/53/45
f 22/57/47 11/58/47 144/56/46 21/55/46
f 23/59/48 10/60/48 11/61/47 22/62/47
f 24/63/49 9/64/49 10/60/48 23/59/48
f 25/65/50 148/66/50 9/64/49 24/63/49
f 26/67/51 149/68/51 148/66/50 25/65/50
f 27/69/52 6/70/52 149/71/51 26/72/51
f 28/73/53 5/74/53 6/70/52 27/69/52
f 29/75/54 152/76/54 5/77/53 28/78/53
f 169/79/55 153/80/55 152/76/54 29/75/54
f 170/81/56 2/82/56 153/83/55 169/84/55
f 156/46/42 139/45/42 2/82/56 170/81/56
f 188/85/42 171/86/42 172/87/56 189/88/56
f 189/88/56 172/87/56 173/89/55 190/90/55
f 190/91/55 173/92/55 45/93/54 191/94/54
f 191/94/54 45/93/54 44/95/53 192/96/53
f 192/97/53 44/98/53 43/99/52 193/100/52
f 193/100/52 43/99/52 42/101/51 194/102/51
f 194/103/51 42/104/51 41/105/50 195/106/50
f 195/106/50 41/105/50 40/107/49 196/108/49
f 196/108/49 40/107/49 39/109/48 197/110/48
f 197/110/48 39/109/48 38/111/47 198/112/47
f 240/113/57 133/114/57 255/115/58 256/116/59
f 241/117/60 184/118/60 239/119/61 136/120/61
f 127/121/62 126/122/62 121/123/63 120/124/64
f 202/125/43 34/126/43 187/127/41 203/128/41
f 203/128/41 187/127/41 171/86/42 188/85/42
f 176/39/37 175/129/65 167/130/65 166/40/38
f 175/129/65 174/131/66 168/132/67 167/130/65
f 74/133/68 75/35/33 142/36/34 13/134/69
f 56/135/70 58/37/35 151/38/36 4/136/71
f 174/131/66 46/137/72 30/138/73 168/132/67
f 48/139/74 33/140/75 17/141/76 32/142/74
f 64/143/77 66/41/39 147/42/40 8/144/78
f 46/137/72 47/145/79 31/146/80 30/138/73
f 33/140/75 186/147/81 18/148/82 17/141/76
f 47/145/79 48/139/74 32/142/74 31/146/80
f 72/6/5 74/133/68 13/134/69 12/7/6
f 54/10/9 56/135/70 4/136/71 3/11/10
f 186/147/81 185/149/83 19/150/84 18/148/82
f 185/149/83 238/1/1 20/4/1 19/150/84
f 50/31/29 79/18/17 237/151/85 229/152/85
f 79/18/17 50/31/29 1/32/30 16/19/18
f 62/22/21 64/143/77 8/144/78 7/23/22
f 58/37/35 56/135/70 232/153/85 233/154/85
f 68/27/25 66/41/39 204/155/85 206/156/85
f 77/17/16 75/35/33 210/157/85 236/158/85
f 54/10/9 52/9/8 230/159/85 231/160/85
f 64/143/77 62/22/21 235/161/85 205/162/85
f 74/133/68 72/6/5 208/163/85 209/164/85
f 60/21/20 58/37/35 233/154/85 234/165/85
f 70/5/4 68/27/25 206/156/85 207/166/85
f 79/18/17 77/17/16 236/158/85 237/151/85
f 56/135/70 54/10/9 231/160/85 232/153/85
f 66/41/39 64/143/77 205/162/85 204/155/85
f 52/9/8 50/31/29 229/152/85 230/159/85
f 75/35/33 74/133/68 209/164/85 210/157/85
f 62/22/21 60/21/20 234/165/85 235/161/85
f 72/6/5 70/5/4 207/166/85 208/163/85
f 242/167/86 183/168/87 184/118/60 241/117/60
f 227/169/88 228/170/50 113/171/50 112/172/88
f 220/173/89 221/174/90 81/175/90 80/176/91
f 213/177/49 214/178/48 106/179/48 105/180/49
f 228/170/50 213/177/49 105/180/49 113/171/50
f 221/174/90 222/181/92 82/182/93 81/175/90
f 214/178/48 215/183/47 107/184/47 106/179/48
f 222/181/92 223/185/94 83/186/95 82/182/93
f 215/187/47 216/188/46 108/189/46 107/190/47
f 223/191/94 224/192/96 84/193/97 83/194/95
f 216/188/46 217/195/45 109/196/45 108/189/46
f 224/192/96 225/197/98 85/198/98 84/193/97
f 217/195/45 218/199/44 110/200/44 109/196/45
f 225/197/98 226/201/99 86/202/100 85/198/98
f 218/199/44 219/203/101 111/204/101 110/200/44
f 226/201/99 227/205/88 112/206/88 86/202/100
f 219/207/101 220/173/89 80/176/91 111/208/101
f 78/209/102 114/210/103 76/211/104
f 65/212/105 114/210/103 63/213/106
f 51/214/107 114/210/103 49/215/108
f 49/215/108 114/210/103 78/209/102
f 67/216/109 114/210/103 65/212/105
f 53/217/110 114/210/103 51/214/107
f 69/218/111 114/210/103 67/216/109
f 55/219/112 114/210/103 53/217/110
f 199/220/113 114/210/103 69/218/111
f 57/221/114 114/210/103 55/219/112
f 211/222/115 114/210/103 199/220/113
f 59/223/116 114/210/103 57/221/114
f 212/224/117 114/210/103 211/222/115
f 61/225/118 114/210/103 59/223/116
f 76/211/104 114/210/103 212/224/117
f 63/213/106 114/210/103 61/225/118
f 91/226/119 90/227/120 115/228/85
f 99/229/121 98/230/122 115/228/85
f 92/231/123 91/226/119 115/228/85
f 100/232/124 99/229/121 115/228/85
f 93/233/125 92/231/123 115/228/85
f 101/234/126 100/232/124 115/228/85
f 94/235/127 93/233/125 115/228/85
f 102/236/128 101/234/126 115/228/85
f 95/237/129 94/235/127 115/228/85
f 103/238/130 102/236/128 115/228/85
f 96/239/131 95/237/129 115/228/85
f 104/240/132 103/238/130 115/228/85
f 97/241/133 96/239/131 115/228/85
f 90/227/120 89/242/134 115/228/85
f 89/242/134 104/240/132 115/228/85
f 98/230/122 97/241/133 115/228/85
f 200/243/135 244/244/135 133/114/57 240/113/57
f 129/245/136 122/246/136 73/247/137 119/248/138
f 247/249/85 246/250/85 183/251/87 242/252/86
f 134/253/42 135/254/42 138/255/139 131/256/140
f 258/257/85 257/258/85 256/259/59 255/260/58
f 116/261/49 132/262/49 253/263/49 254/264/49
f 201/265/141 243/266/142 244/244/135 200/243/135
f 117/267/42 118/268/42 135/254/42 134/253/42
f 119/248/138 73/247/137 118/268/42 117/267/42
f 120/124/64 121/123/63 132/262/49 116/261/49
f 38/269/47 37/270/46 71/271/46 198/272/47
f 36/273/45 35/274/44 88/275/44 87/276/45
f 37/270/46 36/273/45 87/276/45 71/271/46
f 35/274/44 34/277/43 202/278/43 88/275/44
f 245/279/103 248/280/103 243/281/142 201/282/141
f 252/283/103 251/284/143 249/285/144 250/286/103
f 125/287/145 128/288/145 137/289/146 130/290/147
f 239/119/61 249/291/144 251/292/143 136/120/61
f 123/293/148 124/294/148 131/256/140 138/255/139
f 254/264/49 253/263/49 130/290/147 137/289/146
