# Blender v2.77 (sub 0) OBJ File: 'TwigWall.blend'
# www.blender.org
mtllib BranchesWoven1.mtl
g BranchesWoven1
v 0.225450 1.383406 -5.283358
v 0.225684 1.383661 0.358238
v 0.210263 1.363557 -5.283358
v 0.210263 1.363557 0.358238
v 0.197190 1.306304 -5.283358
v 0.197190 1.306304 0.358238
v 0.188465 1.220620 -5.283358
v 0.188465 1.220620 0.358238
v 0.185415 1.119547 -5.283358
v 0.185415 1.119547 0.358238
v 0.188500 1.018476 -5.283358
v 0.188500 1.018476 0.358238
v 0.197250 0.932792 -5.283358
v 0.197250 0.932792 0.358238
v 0.210334 0.875539 -5.283358
v 0.210334 0.875539 0.358238
v 0.225762 0.855435 -5.283358
v 0.225762 0.855435 0.358238
v 0.241186 0.875539 -5.283358
v 0.241186 0.875539 0.358238
v 0.254256 0.932791 -5.283358
v 0.254256 0.932791 0.358238
v 0.262983 1.018476 -5.283358
v 0.262983 1.018476 0.358238
v 0.266036 1.119547 -5.283358
v 0.266036 1.119547 0.358238
v 0.262949 1.220620 -5.283358
v 0.262949 1.220620 0.358238
v 0.254194 1.306304 -5.283358
v 0.254194 1.306304 0.358238
v 0.241108 1.363557 -5.283358
v 0.241108 1.363557 0.358238
v 0.026774 1.273667 -4.544713
v -0.067051 1.217741 -3.321239
v -0.010784 1.226704 -2.425410
v 0.084203 1.298167 -1.375657
v 0.195350 1.421564 -0.313655
v 0.180061 1.401487 -0.314092
v 0.068471 1.278226 -1.376047
v -0.026396 1.206683 -2.425405
v -0.082727 1.199626 -3.321239
v 0.010837 1.258861 -4.547143
v 0.167114 1.344257 -0.314465
v 0.055091 1.221128 -1.376399
v -0.039694 1.149440 -2.425449
v -0.096022 1.147056 -3.321239
v -0.003145 1.215336 -4.552892
v 0.158452 1.258573 -0.314724
v 0.046119 1.135453 -1.376660
v -0.048622 1.063679 -2.425554
v -0.104911 1.067126 -3.321239
v -0.012792 1.145968 -4.559259
v 0.155442 1.157487 -0.314723
v 0.043040 1.034345 -1.376787
v -0.051793 0.962551 -2.425681
v -0.108032 0.971021 -3.321239
v -0.016392 1.057069 -4.562936
v 0.158572 1.056386 -0.314559
v 0.046198 0.933286 -1.376764
v -0.048697 0.861589 -2.425737
v -0.104918 0.872744 -3.321239
v -0.013391 0.962541 -4.563575
v 0.167313 0.970666 -0.314161
v 0.055113 0.847619 -1.376559
v -0.039857 0.775967 -2.425813
v -0.096033 0.787966 -3.321239
v -0.004513 0.878755 -4.563339
v 0.180351 0.913384 -0.313773
v 0.068427 0.790363 -1.376225
v -0.026610 0.718677 -2.425776
v -0.082743 0.730914 -3.321239
v 0.008877 0.821676 -4.562283
v 0.195670 0.893261 -0.313384
v 0.084110 0.770193 -1.375835
v -0.010977 0.698479 -2.425746
v -0.067061 0.710653 -3.321239
v 0.024564 0.801547 -4.562756
v 0.210958 0.913375 -0.313281
v 0.099792 0.790277 -1.375446
v 0.004641 0.718487 -2.425713
v -0.051391 0.730402 -3.321239
v 0.040279 0.821809 -4.562870
v 0.223870 0.970664 -0.313478
v 0.113077 0.847455 -1.375117
v 0.017904 0.775688 -2.425689
v -0.038111 0.786706 -3.321239
v 0.053391 0.879176 -4.563558
v 0.232458 1.056363 -0.314145
v 0.121977 0.933066 -1.374900
v 0.026733 0.861336 -2.425752
v -0.029257 0.870979 -3.321239
v 0.062220 0.963260 -4.563343
v 0.235411 1.157391 -0.314385
v 0.125107 1.034081 -1.374807
v 0.029800 0.962415 -2.425892
v -0.026178 0.968938 -3.321239
v 0.065447 1.057527 -4.562212
v 0.232283 1.258446 -0.313608
v 0.122029 1.135114 -1.374828
v 0.026645 1.063514 -2.425992
v -0.029275 1.065385 -3.321239
v 0.062815 1.146102 -4.558208
v 0.223616 1.344144 -0.313279
v 0.113168 1.220793 -1.374997
v 0.017852 1.149241 -2.425801
v -0.038118 1.145827 -3.321239
v 0.054744 1.215380 -4.552031
v 0.210652 1.401421 -0.313344
v 0.099896 1.278015 -1.375288
v 0.004756 1.206532 -2.425550
v -0.051383 1.199009 -3.321239
v 0.042170 1.258867 -4.546655
v 0.225709 1.119532 -5.283358
v 0.225723 1.119548 0.358238
vt 0.1254 0.1189
vt 0.1218 0.1190
vt 0.1142 0.0000
vt 0.1178 0.0000
vt 0.1117 0.1191
vt 0.1041 0.0001
vt 0.0965 0.1193
vt 0.0889 0.0002
vt 0.0786 0.1194
vt 0.0710 0.0003
vt 0.0607 0.1195
vt 0.0531 0.0005
vt 0.0455 0.1196
vt 0.0379 0.0006
vt 0.0354 0.1196
vt 0.0278 0.0007
vt 0.0318 0.1196
vt 0.0242 0.0007
vt 0.1570 0.8804
vt 0.1606 0.8804
vt 0.1529 0.9993
vt 0.1494 0.9993
vt 0.1707 0.8805
vt 0.1631 0.9993
vt 0.1859 0.8804
vt 0.1783 0.9995
vt 0.2038 0.8805
vt 0.1962 0.9996
vt 0.2217 0.8808
vt 0.2141 0.9997
vt 0.2369 0.8810
vt 0.2292 0.9999
vt 0.2470 0.8811
vt 0.2394 1.0000
vt 0.2506 0.8811
vt 0.2429 1.0000
vt 0.2471 0.0007
vt 0.2506 0.0007
vt 0.2302 0.1316
vt 0.2275 0.1313
vt 0.2186 0.3484
vt 0.2153 0.3483
vt 0.2190 0.5070
vt 0.2154 0.5069
vt 0.2302 0.6929
vt 0.2266 0.6929
vt 0.2369 0.0006
vt 0.2198 0.1302
vt 0.2059 0.3483
vt 0.2052 0.5068
vt 0.2165 0.6929
vt 0.2217 0.0005
vt 0.2076 0.1290
vt 0.1916 0.3481
vt 0.1900 0.5066
vt 0.2013 0.6928
vt 0.2038 0.0003
vt 0.1919 0.1282
vt 0.1745 0.3480
vt 0.1721 0.5065
vt 0.1834 0.6927
vt 0.1859 0.0002
vt 0.1752 0.1279
vt 0.1572 0.3479
vt 0.1542 0.5064
vt 0.1655 0.6925
vt 0.1708 0.0001
vt 0.1603 0.1277
vt 0.1422 0.3478
vt 0.1391 0.5063
vt 0.1503 0.6924
vt 0.1606 0.0000
vt 0.1501 0.1278
vt 0.1323 0.3477
vt 0.1289 0.5062
vt 0.1402 0.6923
vt 0.1571 0.0000
vt 0.1466 0.1278
vt 0.1288 0.3477
vt 0.1254 0.5062
vt 0.1367 0.6922
vt 0.0354 1.0000
vt 0.0319 1.0000
vt 0.0212 0.8722
vt 0.0247 0.8721
vt 0.0033 0.6523
vt 0.0069 0.6523
vt 0.0000 0.4938
vt 0.0036 0.4938
vt 0.0114 0.3078
vt 0.0149 0.3079
vt 0.0456 0.9999
vt 0.0348 0.8722
vt 0.0170 0.6522
vt 0.0137 0.4937
vt 0.0251 0.3078
vt 0.0607 0.9997
vt 0.0497 0.8721
vt 0.0320 0.6521
vt 0.0289 0.4935
vt 0.0402 0.3077
vt 0.0786 0.9996
vt 0.0664 0.8719
vt 0.0494 0.6519
vt 0.0467 0.4934
vt 0.0581 0.3076
vt 0.0965 0.9995
vt 0.0822 0.8711
vt 0.0664 0.6518
vt 0.0647 0.4932
vt 0.0760 0.3074
vt 0.1117 0.9994
vt 0.0944 0.8699
vt 0.0806 0.6517
vt 0.0799 0.4931
vt 0.0912 0.3073
vt 0.1219 0.9993
vt 0.1022 0.8688
vt 0.0899 0.6517
vt 0.0900 0.4930
vt 0.1013 0.3072
vt 0.1254 0.9993
vt 0.1048 0.8684
vt 0.0931 0.6516
vt 0.0936 0.4930
vt 0.1049 0.3071
vt 0.2618 0.1071
vt 0.2638 0.1222
vt 0.2577 0.1403
vt 0.2506 0.1226
vt 0.2517 0.1074
vt 0.2592 0.1870
vt 0.2563 0.1836
vt 0.2648 0.1401
vt 0.2648 0.1580
vt 0.2537 0.0972
vt 0.2563 0.0935
vt 0.2537 0.1735
vt 0.2517 0.1584
vt 0.2638 0.1732
vt 0.2618 0.1834
vt 0.2591 0.0970
vt 0.2506 0.1405
vt 0.2648 0.0465
vt 0.2648 0.0645
vt 0.2577 0.0468
vt 0.2563 0.0900
vt 0.2537 0.0800
vt 0.2517 0.0139
vt 0.2537 0.0036
vt 0.2618 0.0135
vt 0.2638 0.0287
vt 0.2618 0.0899
vt 0.2591 0.0935
vt 0.2563 0.0000
vt 0.2591 0.0035
vt 0.2506 0.0470
vt 0.2506 0.0291
vt 0.2638 0.0797
vt 0.2517 0.0649
vn 0.0137 0.9994 -0.0308
vn -0.8980 0.4367 0.0531
vn -0.6607 0.3056 0.6856
vn 0.0193 0.8100 0.5861
vn -0.9838 0.1654 0.0687
vn -0.6928 0.1120 0.7124
vn -0.9951 0.0676 0.0727
vn -0.6965 0.0448 0.7161
vn -0.9972 0.0012 0.0749
vn -0.6980 -0.0010 0.7160
vn -0.9950 -0.0642 0.0766
vn -0.6990 -0.0472 0.7135
vn -0.9841 -0.1590 0.0786
vn -0.6986 -0.1166 0.7059
vn -0.9059 -0.4155 0.0810
vn -0.6708 -0.3223 0.6679
vn 0.0166 -0.9995 0.0280
vn 0.0185 -0.8383 0.5448
vn 0.9088 -0.4134 -0.0563
vn 0.6962 -0.3293 0.6378
vn 0.9850 -0.1582 -0.0689
vn 0.7288 -0.1205 0.6739
vn 0.9953 -0.0635 -0.0725
vn 0.7302 -0.0486 0.6814
vn 0.9972 0.0022 -0.0746
vn 0.7295 -0.0004 0.6839
vn 0.9948 0.0680 -0.0763
vn 0.7279 0.0472 0.6841
vn 0.9832 0.1648 -0.0782
vn 0.7234 0.1168 0.6805
vn 0.8988 0.4312 -0.0789
vn 0.6870 0.3137 0.6554
vn 0.7423 0.3844 -0.5488
vn 0.0986 0.8814 -0.4619
vn -0.0450 0.9959 0.0775
vn 0.8660 0.4606 0.1945
vn -0.0247 0.9995 0.0203
vn 0.8876 0.4603 0.0150
vn -0.0046 0.9993 -0.0379
vn 0.8989 0.4297 -0.0854
vn -0.0062 0.9958 -0.0916
vn 0.8983 0.4208 -0.1265
vn 0.7987 0.1361 -0.5861
vn 0.9682 0.1695 0.1840
vn 0.9846 0.1747 0.0108
vn 0.9830 0.1648 -0.0812
vn 0.9807 0.1613 -0.1103
vn 0.8021 0.0501 -0.5950
vn 0.9821 0.0635 0.1775
vn 0.9976 0.0682 0.0081
vn 0.9947 0.0667 -0.0784
vn 0.9925 0.0657 -0.1026
vn 0.8016 -0.0026 -0.5978
vn 0.9850 -0.0034 0.1726
vn 1.0000 -0.0014 0.0055
vn 0.9971 -0.0005 -0.0764
vn 0.9953 -0.0002 -0.0968
vn 0.7995 -0.0533 -0.5983
vn 0.9836 -0.0678 0.1671
vn 0.9976 -0.0689 0.0026
vn 0.9949 -0.0678 -0.0742
vn 0.9936 -0.0667 -0.0906
vn 0.7930 -0.1271 -0.5958
vn 0.9738 -0.1624 0.1590
vn 0.9859 -0.1673 -0.0018
vn 0.9835 -0.1665 -0.0706
vn 0.9831 -0.1641 -0.0806
vn 0.7466 -0.3301 -0.5776
vn 0.8936 -0.4310 0.1252
vn 0.8981 -0.4396 -0.0144
vn 0.8978 -0.4367 -0.0564
vn 0.9010 -0.4312 -0.0478
vn 0.1158 -0.8101 -0.5747
vn -0.0423 -0.9950 -0.0903
vn -0.0367 -0.9984 -0.0428
vn -0.0083 -0.9996 0.0279
vn 0.0003 -0.9958 0.0909
vn -0.5856 -0.2829 -0.7596
vn -0.8901 -0.4173 -0.1833
vn -0.9029 -0.4292 -0.0233
vn -0.8986 -0.4313 0.0802
vn -0.8960 -0.4256 0.1266
vn -0.6072 -0.1017 -0.7880
vn -0.9697 -0.1632 -0.1815
vn -0.9859 -0.1667 -0.0125
vn -0.9829 -0.1658 0.0797
vn -0.9802 -0.1636 0.1111
vn -0.6097 -0.0401 -0.7916
vn -0.9820 -0.0664 -0.1769
vn -0.9976 -0.0684 -0.0083
vn -0.9946 -0.0679 0.0781
vn -0.9924 -0.0669 0.1035
vn -0.6120 0.0042 -0.7908
vn -0.9850 0.0039 -0.1727
vn -1.0000 0.0011 -0.0055
vn -0.9971 -0.0006 0.0764
vn -0.9952 -0.0007 0.0977
vn -0.6153 0.0541 -0.7864
vn -0.9828 0.0813 -0.1655
vn -0.9972 0.0747 -0.0032
vn -0.9950 0.0673 0.0740
vn -0.9936 0.0659 0.0914
vn -0.6191 0.1315 -0.7742
vn -0.9688 0.1964 -0.1508
vn -0.9828 0.1847 -0.0008
vn -0.9835 0.1668 0.0695
vn -0.9832 0.1631 0.0814
vn -0.5950 0.3581 -0.7195
vn -0.8712 0.4793 -0.1056
vn -0.8850 0.4655 0.0052
vn -0.8990 0.4347 0.0529
vn -0.9029 0.4270 0.0495
vn 0.0000 0.0000 -1.0000
vn 0.0000 0.0000 1.0000
usemtl TwigWallBranches
s 1
f 37/1/1 38/2/2 4/3/3 2/4/4
f 38/2/2 43/5/5 6/6/6 4/3/3
f 43/5/5 48/7/7 8/8/8 6/6/6
f 48/7/7 53/9/9 10/10/10 8/8/8
f 53/9/9 58/11/11 12/12/12 10/10/10
f 58/11/11 63/13/13 14/14/14 12/12/12
f 63/13/13 68/15/15 16/16/16 14/14/14
f 68/15/15 73/17/17 18/18/18 16/16/16
f 73/19/17 78/20/19 20/21/20 18/22/18
f 78/20/19 83/23/21 22/24/22 20/21/20
f 83/23/21 88/25/23 24/26/24 22/24/22
f 88/25/23 93/27/25 26/28/26 24/26/24
f 93/27/25 98/29/27 28/30/28 26/28/26
f 98/29/27 103/31/29 30/32/30 28/30/28
f 103/31/29 108/33/31 32/34/32 30/32/30
f 108/33/31 37/35/1 2/36/4 32/34/32
f 31/37/33 1/38/34 33/39/35 112/40/36
f 112/40/36 33/39/35 34/41/37 111/42/38
f 111/42/38 34/41/37 35/43/39 110/44/40
f 110/44/40 35/43/39 36/45/41 109/46/42
f 109/46/42 36/45/41 37/35/1 108/33/31
f 29/47/43 31/37/33 112/40/36 107/48/44
f 107/48/44 112/40/36 111/42/38 106/49/45
f 106/49/45 111/42/38 110/44/40 105/50/46
f 105/50/46 110/44/40 109/46/42 104/51/47
f 104/51/47 109/46/42 108/33/31 103/31/29
f 27/52/48 29/47/43 107/48/44 102/53/49
f 102/53/49 107/48/44 106/49/45 101/54/50
f 101/54/50 106/49/45 105/50/46 100/55/51
f 100/55/51 105/50/46 104/51/47 99/56/52
f 99/56/52 104/51/47 103/31/29 98/29/27
f 25/57/53 27/52/48 102/53/49 97/58/54
f 97/58/54 102/53/49 101/54/50 96/59/55
f 96/59/55 101/54/50 100/55/51 95/60/56
f 95/60/56 100/55/51 99/56/52 94/61/57
f 94/61/57 99/56/52 98/29/27 93/27/25
f 23/62/58 25/57/53 97/58/54 92/63/59
f 92/63/59 97/58/54 96/59/55 91/64/60
f 91/64/60 96/59/55 95/60/56 90/65/61
f 90/65/61 95/60/56 94/61/57 89/66/62
f 89/66/62 94/61/57 93/27/25 88/25/23
f 21/67/63 23/62/58 92/63/59 87/68/64
f 87/68/64 92/63/59 91/64/60 86/69/65
f 86/69/65 91/64/60 90/65/61 85/70/66
f 85/70/66 90/65/61 89/66/62 84/71/67
f 84/71/67 89/66/62 88/25/23 83/23/21
f 19/72/68 21/67/63 87/68/64 82/73/69
f 82/73/69 87/68/64 86/69/65 81/74/70
f 81/74/70 86/69/65 85/70/66 80/75/71
f 80/75/71 85/70/66 84/71/67 79/76/72
f 79/76/72 84/71/67 83/23/21 78/20/19
f 17/77/73 19/72/68 82/73/69 77/78/74
f 77/78/74 82/73/69 81/74/70 76/79/75
f 76/79/75 81/74/70 80/75/71 75/80/76
f 75/80/76 80/75/71 79/76/72 74/81/77
f 74/81/77 79/76/72 78/20/19 73/19/17
f 15/82/78 17/83/73 77/84/74 72/85/79
f 72/85/79 77/84/74 76/86/75 71/87/80
f 71/87/80 76/86/75 75/88/76 70/89/81
f 70/89/81 75/88/76 74/90/77 69/91/82
f 69/91/82 74/90/77 73/17/17 68/15/15
f 13/92/83 15/82/78 72/85/79 67/93/84
f 67/93/84 72/85/79 71/87/80 66/94/85
f 66/94/85 71/87/80 70/89/81 65/95/86
f 65/95/86 70/89/81 69/91/82 64/96/87
f 64/96/87 69/91/82 68/15/15 63/13/13
f 11/97/88 13/92/83 67/93/84 62/98/89
f 62/98/89 67/93/84 66/94/85 61/99/90
f 61/99/90 66/94/85 65/95/86 60/100/91
f 60/100/91 65/95/86 64/96/87 59/101/92
f 59/101/92 64/96/87 63/13/13 58/11/11
f 9/102/93 11/97/88 62/98/89 57/103/94
f 57/103/94 62/98/89 61/99/90 56/104/95
f 56/104/95 61/99/90 60/100/91 55/105/96
f 55/105/96 60/100/91 59/101/92 54/106/97
f 54/106/97 59/101/92 58/11/11 53/9/9
f 7/107/98 9/102/93 57/103/94 52/108/99
f 52/108/99 57/103/94 56/104/95 51/109/100
f 51/109/100 56/104/95 55/105/96 50/110/101
f 50/110/101 55/105/96 54/106/97 49/111/102
f 49/111/102 54/106/97 53/9/9 48/7/7
f 5/112/103 7/107/98 52/108/99 47/113/104
f 47/113/104 52/108/99 51/109/100 46/114/105
f 46/114/105 51/109/100 50/110/101 45/115/106
f 45/115/106 50/110/101 49/111/102 44/116/107
f 44/116/107 49/111/102 48/7/7 43/5/5
f 3/117/108 5/112/103 47/113/104 42/118/109
f 42/118/109 47/113/104 46/114/105 41/119/110
f 41/119/110 46/114/105 45/115/106 40/120/111
f 40/120/111 45/115/106 44/116/107 39/121/112
f 39/121/112 44/116/107 43/5/5 38/2/2
f 1/122/34 3/117/108 42/118/109 33/123/35
f 33/123/35 42/118/109 41/119/110 34/124/37
f 34/124/37 41/119/110 40/120/111 35/125/39
f 35/125/39 40/120/111 39/121/112 36/126/41
f 36/126/41 39/121/112 38/2/2 37/1/1
f 13/127/83 11/128/88 113/129/113
f 23/130/58 21/131/63 113/129/113
f 1/132/34 31/133/33 113/129/113
f 9/134/93 7/135/98 113/129/113
f 19/136/68 17/137/73 113/129/113
f 29/138/43 27/139/48 113/129/113
f 5/140/103 3/141/108 113/129/113
f 15/142/78 13/127/83 113/129/113
f 25/143/53 23/130/58 113/129/113
f 11/128/88 9/134/93 113/129/113
f 21/131/63 19/136/68 113/129/113
f 31/133/33 29/138/43 113/129/113
f 7/135/98 5/140/103 113/129/113
f 17/137/73 15/142/78 113/129/113
f 3/141/108 1/132/34 113/129/113
f 27/139/48 25/143/53 113/129/113
f 10/144/10 12/145/12 114/146/114
f 20/147/20 22/148/22 114/146/114
f 30/149/30 32/150/32 114/146/114
f 6/151/6 8/152/8 114/146/114
f 16/153/16 18/154/18 114/146/114
f 2/155/4 4/156/3 114/146/114
f 26/157/26 28/158/28 114/146/114
f 12/145/12 14/159/14 114/146/114
f 22/148/22 24/160/24 114/146/114
f 32/150/32 2/155/4 114/146/114
f 8/152/8 10/144/10 114/146/114
f 18/154/18 20/147/20 114/146/114
f 28/158/28 30/149/30 114/146/114
f 4/156/3 6/151/6 114/146/114
f 14/159/14 16/153/16 114/146/114
f 24/160/24 26/157/26 114/146/114
