# Blender v2.77 (sub 0) OBJ File: 'TwigWall.blend'
# www.blender.org
mtllib BranchesWoven2.mtl
g BranchesWoven2
v 0.225450 2.679499 -5.283358
v 0.225684 2.679754 0.358238
v 0.210263 2.659650 -5.283358
v 0.210263 2.659650 0.358238
v 0.197190 2.602398 -5.283358
v 0.197190 2.602398 0.358238
v 0.188465 2.516713 -5.283358
v 0.188465 2.516713 0.358238
v 0.185415 2.415641 -5.283358
v 0.185415 2.415641 0.358238
v 0.188500 2.314569 -5.283358
v 0.188500 2.314569 0.358238
v 0.197250 2.228885 -5.283358
v 0.197250 2.228885 0.358238
v 0.210334 2.171633 -5.283358
v 0.210334 2.171633 0.358238
v 0.225762 2.151528 -5.283358
v 0.225762 2.151528 0.358238
v 0.241186 2.171633 -5.283358
v 0.241186 2.171633 0.358238
v 0.254256 2.228885 -5.283358
v 0.254256 2.228885 0.358238
v 0.262983 2.314569 -5.283358
v 0.262983 2.314569 0.358238
v 0.266036 2.415641 -5.283358
v 0.266036 2.415641 0.358238
v 0.262949 2.516713 -5.283358
v 0.262949 2.516713 0.358238
v 0.254194 2.602398 -5.283358
v 0.254194 2.602398 0.358238
v 0.241108 2.659650 -5.283358
v 0.241108 2.659650 0.358238
v 0.079377 2.569760 -4.544713
v -0.067051 2.547239 -3.321239
v -0.010784 2.522798 -2.425410
v 0.125594 2.632804 -1.375657
v 0.195350 2.693684 -0.313655
v 0.180061 2.673607 -0.314092
v 0.109862 2.612863 -1.376047
v -0.026396 2.502777 -2.425405
v -0.082727 2.529124 -3.321239
v 0.063439 2.554954 -4.547143
v 0.167114 2.616377 -0.314465
v 0.096483 2.555764 -1.376399
v -0.039694 2.445534 -2.425449
v -0.096022 2.476554 -3.321239
v 0.049458 2.511430 -4.552892
v 0.158452 2.530693 -0.314724
v 0.087511 2.470090 -1.376660
v -0.048622 2.359773 -2.425554
v -0.104911 2.396623 -3.321239
v 0.039811 2.442061 -4.559259
v 0.155442 2.429607 -0.314723
v 0.084432 2.368982 -1.376787
v -0.051793 2.258645 -2.425681
v -0.108032 2.300519 -3.321239
v 0.036211 2.353163 -4.562936
v 0.158572 2.328506 -0.314559
v 0.087590 2.267923 -1.376764
v -0.048697 2.157683 -2.425737
v -0.104918 2.202242 -3.321239
v 0.039212 2.258634 -4.563575
v 0.167313 2.242786 -0.314161
v 0.096505 2.182256 -1.376559
v -0.039857 2.072060 -2.425813
v -0.096033 2.117463 -3.321239
v 0.048090 2.174848 -4.563339
v 0.180351 2.185504 -0.313773
v 0.109819 2.124999 -1.376225
v -0.026610 2.014770 -2.425776
v -0.082743 2.060411 -3.321239
v 0.061480 2.117770 -4.562283
v 0.195670 2.165381 -0.313384
v 0.125501 2.104829 -1.375835
v -0.010977 1.994573 -2.425746
v -0.067061 2.040150 -3.321239
v 0.077167 2.097641 -4.562756
v 0.210958 2.185495 -0.313281
v 0.141183 2.124914 -1.375446
v 0.004641 2.014580 -2.425713
v -0.051391 2.059899 -3.321239
v 0.092881 2.117903 -4.562870
v 0.223870 2.242784 -0.313478
v 0.154469 2.182091 -1.375117
v 0.017904 2.071782 -2.425689
v -0.038111 2.116204 -3.321239
v 0.105994 2.175269 -4.563558
v 0.232458 2.328483 -0.314145
v 0.163368 2.267702 -1.374900
v 0.026733 2.157429 -2.425752
v -0.029257 2.200476 -3.321239
v 0.114823 2.259353 -4.563343
v 0.235411 2.429511 -0.314385
v 0.166499 2.368718 -1.374807
v 0.029800 2.258509 -2.425892
v -0.026178 2.298435 -3.321239
v 0.118050 2.353621 -4.562212
v 0.232283 2.530566 -0.313608
v 0.163421 2.469751 -1.374828
v 0.026645 2.359608 -2.425992
v -0.029275 2.394882 -3.321239
v 0.115418 2.442195 -4.558208
v 0.223616 2.616263 -0.313279
v 0.154559 2.555430 -1.374997
v 0.017852 2.445334 -2.425801
v -0.038118 2.475324 -3.321239
v 0.107346 2.511473 -4.552031
v 0.210652 2.673540 -0.313344
v 0.141288 2.612652 -1.375288
v 0.004756 2.502626 -2.425550
v -0.051383 2.528507 -3.321239
v 0.094773 2.554960 -4.546655
v 0.225709 2.415625 -5.283358
v 0.225723 2.415641 0.358238
vt 0.4951 0.1190
vt 0.4915 0.1191
vt 0.4887 0.0000
vt 0.4923 0.0000
vt 0.4813 0.1192
vt 0.4786 0.0000
vt 0.4662 0.1193
vt 0.4634 0.0001
vt 0.4482 0.1194
vt 0.4455 0.0001
vt 0.4303 0.1194
vt 0.4275 0.0002
vt 0.4151 0.1194
vt 0.4124 0.0002
vt 0.4050 0.1193
vt 0.4022 0.0003
vt 0.4015 0.1193
vt 0.3987 0.0003
vt 0.5242 0.8807
vt 0.5278 0.8808
vt 0.5250 0.9997
vt 0.5214 0.9997
vt 0.5380 0.8807
vt 0.5351 0.9998
vt 0.5531 0.8807
vt 0.5503 0.9998
vt 0.5710 0.8807
vt 0.5682 0.9998
vt 0.5889 0.8809
vt 0.5861 0.9999
vt 0.6041 0.8810
vt 0.6013 0.9999
vt 0.6143 0.8810
vt 0.6115 1.0000
vt 0.6179 0.8810
vt 0.6150 1.0000
vt 0.6143 0.0003
vt 0.6179 0.0003
vt 0.5981 0.1312
vt 0.5954 0.1308
vt 0.5935 0.3480
vt 0.5901 0.3480
vt 0.5887 0.5067
vt 0.5851 0.5067
vt 0.6076 0.6928
vt 0.6040 0.6928
vt 0.6042 0.0002
vt 0.5877 0.1298
vt 0.5807 0.3480
vt 0.5749 0.5066
vt 0.5939 0.6928
vt 0.5890 0.0002
vt 0.5755 0.1287
vt 0.5665 0.3479
vt 0.5598 0.5065
vt 0.5787 0.6928
vt 0.5711 0.0001
vt 0.5598 0.1279
vt 0.5494 0.3479
vt 0.5418 0.5065
vt 0.5608 0.6928
vt 0.5532 0.0001
vt 0.5431 0.1277
vt 0.5320 0.3478
vt 0.5239 0.5065
vt 0.5429 0.6927
vt 0.5380 0.0000
vt 0.5282 0.1276
vt 0.5171 0.3478
vt 0.5087 0.5065
vt 0.5277 0.6926
vt 0.5279 0.0000
vt 0.5180 0.1277
vt 0.5071 0.3478
vt 0.4986 0.5064
vt 0.5176 0.6925
vt 0.5243 0.0000
vt 0.5144 0.1277
vt 0.5036 0.3478
vt 0.4951 0.5064
vt 0.5141 0.6925
vt 0.4051 1.0000
vt 0.4015 1.0000
vt 0.3915 0.8723
vt 0.3950 0.8722
vt 0.3805 0.6523
vt 0.3841 0.6522
vt 0.3721 0.4936
vt 0.3756 0.4936
vt 0.3912 0.3075
vt 0.3948 0.3076
vt 0.4152 1.0000
vt 0.4051 0.8723
vt 0.3942 0.6522
vt 0.3858 0.4936
vt 0.4049 0.3076
vt 0.4304 0.9999
vt 0.4200 0.8723
vt 0.4092 0.6522
vt 0.4009 0.4935
vt 0.4201 0.3076
vt 0.4483 0.9999
vt 0.4367 0.8722
vt 0.4267 0.6521
vt 0.4188 0.4935
vt 0.4380 0.3076
vt 0.4662 0.9998
vt 0.4525 0.8715
vt 0.4437 0.6521
vt 0.4368 0.4934
vt 0.4559 0.3075
vt 0.4814 0.9998
vt 0.4648 0.8703
vt 0.4579 0.6520
vt 0.4520 0.4933
vt 0.4711 0.3074
vt 0.4915 0.9997
vt 0.4725 0.8693
vt 0.4672 0.6520
vt 0.4621 0.4933
vt 0.4812 0.3073
vt 0.4951 0.9997
vt 0.4751 0.8688
vt 0.4704 0.6520
vt 0.4657 0.4933
vt 0.4848 0.3072
vt 0.6290 0.1071
vt 0.6311 0.1222
vt 0.6250 0.1403
vt 0.6179 0.1226
vt 0.6189 0.1074
vt 0.6265 0.1871
vt 0.6236 0.1836
vt 0.6321 0.1401
vt 0.6321 0.1580
vt 0.6210 0.0972
vt 0.6236 0.0936
vt 0.6210 0.1736
vt 0.6189 0.1584
vt 0.6311 0.1733
vt 0.6290 0.1835
vt 0.6264 0.0970
vt 0.6179 0.1406
vt 0.6311 0.0287
vt 0.6321 0.0466
vt 0.6250 0.0468
vt 0.6264 0.0936
vt 0.6236 0.0901
vt 0.6179 0.0291
vt 0.6189 0.0139
vt 0.6264 0.0035
vt 0.6290 0.0135
vt 0.6311 0.0797
vt 0.6290 0.0899
vt 0.6189 0.0649
vt 0.6179 0.0470
vt 0.6321 0.0645
vt 0.6210 0.0800
vt 0.6210 0.0036
vt 0.6236 0.0000
vn 0.0055 0.9998 -0.0186
vn -0.9015 0.4307 0.0417
vn -0.6638 0.3107 0.6802
vn 0.0191 0.8193 0.5730
vn -0.9851 0.1638 0.0517
vn -0.6946 0.1133 0.7104
vn -0.9963 0.0666 0.0542
vn -0.6973 0.0454 0.7154
vn -0.9984 0.0003 0.0556
vn -0.6980 -0.0005 0.7160
vn -0.9962 -0.0654 0.0566
vn -0.6982 -0.0466 0.7144
vn -0.9852 -0.1610 0.0577
vn -0.6967 -0.1152 0.7080
vn -0.9053 -0.4207 0.0582
vn -0.6676 -0.3171 0.6736
vn 0.0056 -0.9998 0.0178
vn 0.0187 -0.8297 0.5579
vn 0.9066 -0.4199 -0.0427
vn 0.6933 -0.3243 0.6436
vn 0.9857 -0.1602 -0.0516
vn 0.7271 -0.1192 0.6761
vn 0.9964 -0.0646 -0.0539
vn 0.7295 -0.0480 0.6823
vn 0.9984 0.0012 -0.0552
vn 0.7295 0.0001 0.6839
vn 0.9962 0.0670 -0.0562
vn 0.7286 0.0479 0.6832
vn 0.9849 0.1634 -0.0574
vn 0.7251 0.1181 0.6784
vn 0.9020 0.4279 -0.0574
vn 0.6899 0.3186 0.6500
vn 0.7257 0.3825 -0.5719
vn 0.0735 0.8806 -0.4681
vn -0.0161 0.9971 0.0737
vn 0.8713 0.4577 0.1770
vn -0.0331 0.9992 0.0221
vn 0.8848 0.4646 0.0357
vn -0.0151 0.9992 -0.0355
vn 0.8989 0.4258 -0.1029
vn 0.0133 0.9965 -0.0829
vn 0.8973 0.4244 -0.1211
vn 0.7788 0.1357 -0.6123
vn 0.9710 0.1697 0.1684
vn 0.9840 0.1753 0.0324
vn 0.9815 0.1632 -0.1001
vn 0.9806 0.1629 -0.1086
vn 0.7815 0.0507 -0.6218
vn 0.9846 0.0637 0.1627
vn 0.9972 0.0684 0.0295
vn 0.9930 0.0657 -0.0976
vn 0.9925 0.0667 -0.1020
vn 0.7807 -0.0017 -0.6249
vn 0.9873 -0.0035 0.1587
vn 0.9996 -0.0011 0.0266
vn 0.9954 -0.0013 -0.0957
vn 0.9953 0.0006 -0.0970
vn 0.7785 -0.0517 -0.6254
vn 0.9857 -0.0682 0.1543
vn 0.9974 -0.0682 0.0233
vn 0.9932 -0.0685 -0.0936
vn 0.9936 -0.0655 -0.0915
vn 0.7725 -0.1242 -0.6227
vn 0.9756 -0.1630 0.1472
vn 0.9859 -0.1661 0.0182
vn 0.9817 -0.1678 -0.0898
vn 0.9833 -0.1620 -0.0828
vn 0.7284 -0.3252 -0.6029
vn 0.8950 -0.4301 0.1179
vn 0.8994 -0.4371 0.0026
vn 0.8943 -0.4413 -0.0734
vn 0.9041 -0.4238 -0.0544
vn 0.0867 -0.8085 -0.5820
vn -0.0170 -0.9976 -0.0666
vn -0.0475 -0.9976 -0.0507
vn -0.0170 -0.9994 0.0288
vn 0.0193 -0.9968 0.0779
vn -0.6081 -0.2905 -0.7388
vn -0.8906 -0.4228 -0.1674
vn -0.9044 -0.4243 -0.0438
vn -0.8959 -0.4335 0.0966
vn -0.8978 -0.4229 0.1230
vn -0.6334 -0.1056 -0.7665
vn -0.9722 -0.1644 -0.1666
vn -0.9856 -0.1653 -0.0338
vn -0.9810 -0.1667 0.0986
vn -0.9807 -0.1622 0.1095
vn -0.6366 -0.0419 -0.7700
vn -0.9843 -0.0670 -0.1629
vn -0.9973 -0.0675 -0.0295
vn -0.9929 -0.0685 0.0973
vn -0.9925 -0.0660 0.1029
vn -0.6389 0.0039 -0.7692
vn -0.9872 0.0034 -0.1592
vn -0.9996 0.0020 -0.0265
vn -0.9954 -0.0013 0.0958
vn -0.9952 0.0002 0.0978
vn -0.6419 0.0550 -0.7648
vn -0.9849 0.0808 -0.1530
vn -0.9968 0.0761 -0.0239
vn -0.9934 0.0663 0.0935
vn -0.9935 0.0670 0.0921
vn -0.6447 0.1343 -0.7525
vn -0.9705 0.1961 -0.1405
vn -0.9821 0.1870 -0.0209
vn -0.9823 0.1650 0.0890
vn -0.9828 0.1651 0.0830
vn -0.6155 0.3641 -0.6989
vn -0.8708 0.4812 -0.1007
vn -0.8831 0.4690 -0.0114
vn -0.9004 0.4291 0.0719
vn -0.8993 0.4342 0.0524
vn 0.0000 0.0000 -1.0000
vn 0.0000 0.0000 1.0000
usemtl TwigWallBranches
s 1
f 37/1/1 38/2/2 4/3/3 2/4/4
f 38/2/2 43/5/5 6/6/6 4/3/3
f 43/5/5 48/7/7 8/8/8 6/6/6
f 48/7/7 53/9/9 10/10/10 8/8/8
f 53/9/9 58/11/11 12/12/12 10/10/10
f 58/11/11 63/13/13 14/14/14 12/12/12
f 63/13/13 68/15/15 16/16/16 14/14/14
f 68/15/15 73/17/17 18/18/18 16/16/16
f 73/19/17 78/20/19 20/21/20 18/22/18
f 78/20/19 83/23/21 22/24/22 20/21/20
f 83/23/21 88/25/23 24/26/24 22/24/22
f 88/25/23 93/27/25 26/28/26 24/26/24
f 93/27/25 98/29/27 28/30/28 26/28/26
f 98/29/27 103/31/29 30/32/30 28/30/28
f 103/31/29 108/33/31 32/34/32 30/32/30
f 108/33/31 37/35/1 2/36/4 32/34/32
f 31/37/33 1/38/34 33/39/35 112/40/36
f 112/40/36 33/39/35 34/41/37 111/42/38
f 111/42/38 34/41/37 35/43/39 110/44/40
f 110/44/40 35/43/39 36/45/41 109/46/42
f 109/46/42 36/45/41 37/35/1 108/33/31
f 29/47/43 31/37/33 112/40/36 107/48/44
f 107/48/44 112/40/36 111/42/38 106/49/45
f 106/49/45 111/42/38 110/44/40 105/50/46
f 105/50/46 110/44/40 109/46/42 104/51/47
f 104/51/47 109/46/42 108/33/31 103/31/29
f 27/52/48 29/47/43 107/48/44 102/53/49
f 102/53/49 107/48/44 106/49/45 101/54/50
f 101/54/50 106/49/45 105/50/46 100/55/51
f 100/55/51 105/50/46 104/51/47 99/56/52
f 99/56/52 104/51/47 103/31/29 98/29/27
f 25/57/53 27/52/48 102/53/49 97/58/54
f 97/58/54 102/53/49 101/54/50 96/59/55
f 96/59/55 101/54/50 100/55/51 95/60/56
f 95/60/56 100/55/51 99/56/52 94/61/57
f 94/61/57 99/56/52 98/29/27 93/27/25
f 23/62/58 25/57/53 97/58/54 92/63/59
f 92/63/59 97/58/54 96/59/55 91/64/60
f 91/64/60 96/59/55 95/60/56 90/65/61
f 90/65/61 95/60/56 94/61/57 89/66/62
f 89/66/62 94/61/57 93/27/25 88/25/23
f 21/67/63 23/62/58 92/63/59 87/68/64
f 87/68/64 92/63/59 91/64/60 86/69/65
f 86/69/65 91/64/60 90/65/61 85/70/66
f 85/70/66 90/65/61 89/66/62 84/71/67
f 84/71/67 89/66/62 88/25/23 83/23/21
f 19/72/68 21/67/63 87/68/64 82/73/69
f 82/73/69 87/68/64 86/69/65 81/74/70
f 81/74/70 86/69/65 85/70/66 80/75/71
f 80/75/71 85/70/66 84/71/67 79/76/72
f 79/76/72 84/71/67 83/23/21 78/20/19
f 17/77/73 19/72/68 82/73/69 77/78/74
f 77/78/74 82/73/69 81/74/70 76/79/75
f 76/79/75 81/74/70 80/75/71 75/80/76
f 75/80/76 80/75/71 79/76/72 74/81/77
f 74/81/77 79/76/72 78/20/19 73/19/17
f 15/82/78 17/83/73 77/84/74 72/85/79
f 72/85/79 77/84/74 76/86/75 71/87/80
f 71/87/80 76/86/75 75/88/76 70/89/81
f 70/89/81 75/88/76 74/90/77 69/91/82
f 69/91/82 74/90/77 73/17/17 68/15/15
f 13/92/83 15/82/78 72/85/79 67/93/84
f 67/93/84 72/85/79 71/87/80 66/94/85
f 66/94/85 71/87/80 70/89/81 65/95/86
f 65/95/86 70/89/81 69/91/82 64/96/87
f 64/96/87 69/91/82 68/15/15 63/13/13
f 11/97/88 13/92/83 67/93/84 62/98/89
f 62/98/89 67/93/84 66/94/85 61/99/90
f 61/99/90 66/94/85 65/95/86 60/100/91
f 60/100/91 65/95/86 64/96/87 59/101/92
f 59/101/92 64/96/87 63/13/13 58/11/11
f 9/102/93 11/97/88 62/98/89 57/103/94
f 57/103/94 62/98/89 61/99/90 56/104/95
f 56/104/95 61/99/90 60/100/91 55/105/96
f 55/105/96 60/100/91 59/101/92 54/106/97
f 54/106/97 59/101/92 58/11/11 53/9/9
f 7/107/98 9/102/93 57/103/94 52/108/99
f 52/108/99 57/103/94 56/104/95 51/109/100
f 51/109/100 56/104/95 55/105/96 50/110/101
f 50/110/101 55/105/96 54/106/97 49/111/102
f 49/111/102 54/106/97 53/9/9 48/7/7
f 5/112/103 7/107/98 52/108/99 47/113/104
f 47/113/104 52/108/99 51/109/100 46/114/105
f 46/114/105 51/109/100 50/110/101 45/115/106
f 45/115/106 50/110/101 49/111/102 44/116/107
f 44/116/107 49/111/102 48/7/7 43/5/5
f 3/117/108 5/112/103 47/113/104 42/118/109
f 42/118/109 47/113/104 46/114/105 41/119/110
f 41/119/110 46/114/105 45/115/106 40/120/111
f 40/120/111 45/115/106 44/116/107 39/121/112
f 39/121/112 44/116/107 43/5/5 38/2/2
f 1/122/34 3/117/108 42/118/109 33/123/35
f 33/123/35 42/118/109 41/119/110 34/124/37
f 34/124/37 41/119/110 40/120/111 35/125/39
f 35/125/39 40/120/111 39/121/112 36/126/41
f 36/126/41 39/121/112 38/2/2 37/1/1
f 13/127/83 11/128/88 113/129/113
f 23/130/58 21/131/63 113/129/113
f 1/132/34 31/133/33 113/129/113
f 9/134/93 7/135/98 113/129/113
f 19/136/68 17/137/73 113/129/113
f 29/138/43 27/139/48 113/129/113
f 5/140/103 3/141/108 113/129/113
f 15/142/78 13/127/83 113/129/113
f 25/143/53 23/130/58 113/129/113
f 11/128/88 9/134/93 113/129/113
f 21/131/63 19/136/68 113/129/113
f 31/133/33 29/138/43 113/129/113
f 7/135/98 5/140/103 113/129/113
f 17/137/73 15/142/78 113/129/113
f 3/141/108 1/132/34 113/129/113
f 27/139/48 25/143/53 113/129/113
f 8/144/8 10/145/10 114/146/114
f 18/147/18 20/148/20 114/146/114
f 28/149/28 30/150/30 114/146/114
f 4/151/3 6/152/6 114/146/114
f 14/153/14 16/154/16 114/146/114
f 24/155/24 26/156/26 114/146/114
f 10/145/10 12/157/12 114/146/114
f 20/148/20 22/158/22 114/146/114
f 30/150/30 32/159/32 114/146/114
f 6/152/6 8/144/8 114/146/114
f 16/154/16 18/147/18 114/146/114
f 2/160/4 4/151/3 114/146/114
f 26/156/26 28/149/28 114/146/114
f 12/157/12 14/153/14 114/146/114
f 22/158/22 24/155/24 114/146/114
f 32/159/32 2/160/4 114/146/114
