# Blender v2.77 (sub 0) OBJ File: 'TwigWall.blend'
# www.blender.org
mtllib BranchesWoven3.mtl
g BranchesWoven3
v 0.225450 3.993745 -5.283358
v 0.225684 3.994000 0.358238
v 0.210263 3.973896 -5.283358
v 0.210263 3.973896 0.358238
v 0.197190 3.916644 -5.283358
v 0.197190 3.916644 0.358238
v 0.188465 3.830959 -5.283358
v 0.188465 3.830959 0.358238
v 0.185415 3.729887 -5.283358
v 0.185415 3.729887 0.358238
v 0.188500 3.628815 -5.283358
v 0.188500 3.628815 0.358238
v 0.197250 3.543131 -5.283358
v 0.197250 3.543131 0.358238
v 0.210334 3.485878 -5.283358
v 0.210334 3.485878 0.358238
v 0.225762 3.465774 -5.283358
v 0.225762 3.465774 0.358238
v 0.241186 3.485878 -5.283358
v 0.241186 3.485878 0.358238
v 0.254256 3.543131 -5.283358
v 0.254256 3.543131 0.358238
v 0.262983 3.628815 -5.283358
v 0.262983 3.628815 0.358238
v 0.266036 3.729887 -5.283358
v 0.266036 3.729887 0.358238
v 0.262949 3.830959 -5.283358
v 0.262949 3.830959 0.358238
v 0.254194 3.916644 -5.283358
v 0.254194 3.916644 0.358238
v 0.241108 3.973896 -5.283358
v 0.241108 3.973896 0.358238
v 0.189654 3.884006 -4.544713
v 0.094913 3.888808 -3.321239
v 0.065879 3.921135 -2.425410
v 0.203833 4.032721 -1.375657
v 0.211040 4.026243 -0.313655
v 0.195872 4.006288 -0.314092
v 0.188412 4.013070 -1.376047
v 0.050400 3.900964 -2.425405
v 0.079226 3.870713 -3.321239
v 0.173617 3.869200 -4.547143
v 0.183092 3.949150 -0.314465
v 0.175411 3.956347 -1.376399
v 0.037084 3.843673 -2.425449
v 0.065939 3.818121 -3.321239
v 0.159261 3.825675 -4.552892
v 0.174523 3.863477 -0.314724
v 0.166717 3.870906 -1.376660
v 0.028131 3.757826 -2.425554
v 0.057075 3.738175 -3.321239
v 0.149096 3.756307 -4.559259
v 0.171536 3.762391 -0.314723
v 0.163761 3.769891 -1.376787
v 0.024920 3.656619 -2.425681
v 0.053974 3.642065 -3.321239
v 0.145171 3.667409 -4.562936
v 0.174630 3.661278 -0.314559
v 0.166922 3.668836 -1.376764
v 0.027992 3.555624 -2.425737
v 0.057099 3.543784 -3.321239
v 0.148089 3.572880 -4.563575
v 0.183267 3.575539 -0.314161
v 0.175707 3.583067 -1.376559
v 0.036780 3.469985 -2.425813
v 0.065948 3.459009 -3.321239
v 0.156920 3.489094 -4.563339
v 0.196133 3.518247 -0.313773
v 0.188870 3.525679 -1.376225
v 0.049857 3.412678 -2.425776
v 0.079170 3.402006 -3.321239
v 0.170350 3.432016 -4.562283
v 0.211322 3.498047 -0.313384
v 0.204333 3.505312 -1.375835
v 0.065400 3.392571 -2.425746
v 0.094843 3.381737 -3.321239
v 0.185850 3.411887 -4.562756
v 0.226516 3.518141 -0.313281
v 0.219855 3.525276 -1.375446
v 0.081104 3.412812 -2.425713
v 0.110465 3.401503 -3.321239
v 0.201495 3.432148 -4.562870
v 0.239458 3.575397 -0.313478
v 0.232971 3.582316 -1.375117
v 0.094643 3.470268 -2.425689
v 0.123794 3.457759 -3.321239
v 0.214438 3.489515 -4.563558
v 0.248092 3.661102 -0.314145
v 0.241796 3.667861 -1.374900
v 0.103616 3.556073 -2.425752
v 0.132663 3.542023 -3.321239
v 0.223276 3.573599 -4.563343
v 0.251063 3.762149 -0.314385
v 0.244838 3.768800 -1.374807
v 0.106741 3.657219 -2.425892
v 0.135753 3.640000 -3.321239
v 0.226611 3.667867 -4.562212
v 0.247896 3.863158 -0.313608
v 0.241683 3.869768 -1.374828
v 0.103582 3.758314 -2.425992
v 0.132642 3.736464 -3.321239
v 0.224345 3.756441 -4.558208
v 0.239203 3.948827 -0.313279
v 0.232734 3.955367 -1.374997
v 0.094707 3.843982 -2.425801
v 0.123758 3.816907 -3.321239
v 0.216835 3.825719 -4.552031
v 0.226266 4.006089 -0.313344
v 0.219434 4.012513 -1.375288
v 0.081530 3.901104 -2.425550
v 0.110497 3.870081 -3.321239
v 0.204759 3.869206 -4.546655
v 0.225709 3.729871 -5.283358
v 0.225723 3.729887 0.358238
vt 0.8432 0.1189
vt 0.8397 0.1190
vt 0.8328 0.0000
vt 0.8363 0.0000
vt 0.8296 0.1192
vt 0.8226 0.0001
vt 0.8144 0.1194
vt 0.8074 0.0003
vt 0.7965 0.1196
vt 0.7895 0.0005
vt 0.7786 0.1197
vt 0.7716 0.0006
vt 0.7634 0.1198
vt 0.7565 0.0008
vt 0.7533 0.1198
vt 0.7464 0.0009
vt 0.7497 0.1198
vt 0.7428 0.0009
vt 0.8615 0.8802
vt 0.8651 0.8802
vt 0.8582 0.9991
vt 0.8546 0.9991
vt 0.8752 0.8803
vt 0.8683 0.9992
vt 0.8904 0.8803
vt 0.8835 0.9994
vt 0.9083 0.8805
vt 0.9014 0.9995
vt 0.9262 0.8808
vt 0.9193 0.9997
vt 0.9413 0.8810
vt 0.9344 0.9999
vt 0.9515 0.8811
vt 0.9446 1.0000
vt 0.9550 0.8811
vt 0.9481 1.0000
vt 0.9545 0.0009
vt 0.9581 0.0009
vt 0.9373 0.1315
vt 0.9347 0.1312
vt 0.9360 0.3482
vt 0.9327 0.3482
vt 0.9402 0.5069
vt 0.9366 0.5069
vt 0.9581 0.6930
vt 0.9545 0.6930
vt 0.9444 0.0008
vt 0.9270 0.1301
vt 0.9233 0.3481
vt 0.9265 0.5067
vt 0.9444 0.6930
vt 0.9292 0.0006
vt 0.9148 0.1289
vt 0.9091 0.3480
vt 0.9113 0.5065
vt 0.9292 0.6929
vt 0.9113 0.0005
vt 0.8991 0.1281
vt 0.8920 0.3478
vt 0.8934 0.5064
vt 0.9113 0.6927
vt 0.8934 0.0003
vt 0.8824 0.1277
vt 0.8746 0.3476
vt 0.8755 0.5062
vt 0.8934 0.6925
vt 0.8783 0.0001
vt 0.8675 0.1275
vt 0.8597 0.3475
vt 0.8603 0.5061
vt 0.8783 0.6923
vt 0.8681 0.0000
vt 0.8573 0.1275
vt 0.8497 0.3474
vt 0.8502 0.5060
vt 0.8682 0.6922
vt 0.8646 0.0000
vt 0.8538 0.1275
vt 0.8462 0.3473
vt 0.8466 0.5059
vt 0.8647 0.6921
vt 0.7563 1.0000
vt 0.7527 1.0000
vt 0.7419 0.8725
vt 0.7454 0.8724
vt 0.7343 0.6527
vt 0.7379 0.6526
vt 0.7346 0.4941
vt 0.7382 0.4940
vt 0.7528 0.3079
vt 0.7564 0.3080
vt 0.7664 0.9999
vt 0.7555 0.8725
vt 0.7480 0.6525
vt 0.7483 0.4940
vt 0.7666 0.3079
vt 0.7816 0.9997
vt 0.7704 0.8723
vt 0.7630 0.6524
vt 0.7635 0.4938
vt 0.7818 0.3078
vt 0.7995 0.9995
vt 0.7871 0.8721
vt 0.7804 0.6522
vt 0.7813 0.4936
vt 0.7997 0.3077
vt 0.8174 0.9994
vt 0.8029 0.8713
vt 0.7974 0.6521
vt 0.7993 0.4934
vt 0.8176 0.3075
vt 0.8326 0.9992
vt 0.8151 0.8700
vt 0.8116 0.6519
vt 0.8145 0.4932
vt 0.8327 0.3073
vt 0.8427 0.9991
vt 0.8228 0.8689
vt 0.8209 0.6518
vt 0.8246 0.4931
vt 0.8427 0.3071
vt 0.8462 0.9991
vt 0.8255 0.8685
vt 0.8241 0.6518
vt 0.8282 0.4931
vt 0.8462 0.3070
vt 0.9712 0.1732
vt 0.9692 0.1834
vt 0.9652 0.1403
vt 0.9666 0.0970
vt 0.9692 0.1070
vt 0.9581 0.1405
vt 0.9581 0.1226
vt 0.9712 0.1222
vt 0.9723 0.1400
vt 0.9592 0.1074
vt 0.9612 0.0971
vt 0.9638 0.1835
vt 0.9612 0.1735
vt 0.9723 0.1579
vt 0.9638 0.0935
vt 0.9667 0.1870
vt 0.9591 0.1583
vt 0.9712 0.0287
vt 0.9723 0.0465
vt 0.9652 0.0468
vt 0.9666 0.0935
vt 0.9638 0.0900
vt 0.9581 0.0291
vt 0.9592 0.0138
vt 0.9666 0.0035
vt 0.9692 0.0135
vt 0.9712 0.0797
vt 0.9692 0.0899
vt 0.9591 0.0648
vt 0.9581 0.0470
vt 0.9723 0.0644
vt 0.9612 0.0800
vt 0.9612 0.0036
vt 0.9638 0.0000
vn -0.0019 0.9996 0.0269
vn -0.9042 0.4264 0.0243
vn -0.6686 0.3085 0.6766
vn 0.0097 0.8119 0.5837
vn -0.9867 0.1615 0.0183
vn -0.7015 0.1129 0.7037
vn -0.9977 0.0655 0.0158
vn -0.7051 0.0453 0.7076
vn -0.9999 -0.0002 0.0140
vn -0.7065 -0.0009 0.7076
vn -0.9978 -0.0654 0.0121
vn -0.7072 -0.0474 0.7053
vn -0.9870 -0.1605 0.0093
vn -0.7064 -0.1168 0.6981
vn -0.9078 -0.4194 0.0013
vn -0.6775 -0.3217 0.6614
vn -0.0061 -0.9996 -0.0276
vn 0.0084 -0.8357 0.5492
vn 0.9062 -0.4222 -0.0243
vn 0.6893 -0.3259 0.6470
vn 0.9868 -0.1611 -0.0183
vn 0.7208 -0.1192 0.6828
vn 0.9977 -0.0650 -0.0157
vn 0.7221 -0.0481 0.6901
vn 0.9999 0.0011 -0.0140
vn 0.7215 -0.0002 0.6923
vn 0.9977 0.0670 -0.0123
vn 0.7201 0.0470 0.6923
vn 0.9865 0.1633 -0.0096
vn 0.7160 0.1159 0.6883
vn 0.9043 0.4268 -0.0013
vn 0.6813 0.3124 0.6620
vn 0.6895 0.3733 -0.6206
vn 0.0215 0.8791 -0.4761
vn 0.0161 0.9975 0.0691
vn 0.8847 0.4576 0.0886
vn 0.0001 0.9998 -0.0186
vn 0.8881 0.4577 0.0405
vn -0.0421 0.9969 -0.0668
vn 0.8976 0.4342 -0.0754
vn 0.0289 0.9982 -0.0530
vn 0.8999 0.4284 -0.0818
vn 0.7334 0.1306 -0.6671
vn 0.9825 0.1711 0.0735
vn 0.9835 0.1733 0.0510
vn 0.9843 0.1663 -0.0596
vn 0.9833 0.1653 -0.0753
vn 0.7339 0.0492 -0.6774
vn 0.9956 0.0643 0.0672
vn 0.9963 0.0673 0.0527
vn 0.9963 0.0673 -0.0533
vn 0.9951 0.0681 -0.0713
vn 0.7326 -0.0010 -0.6807
vn 0.9980 -0.0037 0.0635
vn 0.9986 -0.0019 0.0527
vn 0.9988 -0.0005 -0.0491
vn 0.9977 0.0016 -0.0682
vn 0.7305 -0.0485 -0.6812
vn 0.9958 -0.0691 0.0602
vn 0.9962 -0.0689 0.0522
vn 0.9966 -0.0684 -0.0450
vn 0.9958 -0.0648 -0.0649
vn 0.7256 -0.1170 -0.6780
vn 0.9849 -0.1643 0.0548
vn 0.9846 -0.1669 0.0511
vn 0.9849 -0.1685 -0.0385
vn 0.9852 -0.1608 -0.0595
vn 0.6877 -0.3130 -0.6550
vn 0.9021 -0.4300 0.0363
vn 0.8995 -0.4346 0.0450
vn 0.8973 -0.4411 -0.0175
vn 0.9076 -0.4176 -0.0421
vn 0.0231 -0.8061 -0.5912
vn 0.0043 -0.9988 -0.0483
vn -0.0129 -0.9999 -0.0072
vn -0.0414 -0.9972 0.0618
vn 0.0309 -0.9984 0.0464
vn -0.6546 -0.3046 -0.6919
vn -0.8993 -0.4300 -0.0792
vn -0.9019 -0.4288 -0.0502
vn -0.9021 -0.4259 0.0689
vn -0.9043 -0.4183 0.0846
vn -0.6873 -0.1133 -0.7174
vn -0.9834 -0.1665 -0.0718
vn -0.9847 -0.1656 -0.0530
vn -0.9847 -0.1642 0.0583
vn -0.9842 -0.1597 0.0765
vn -0.6918 -0.0452 -0.7206
vn -0.9954 -0.0678 -0.0678
vn -0.9963 -0.0677 -0.0530
vn -0.9963 -0.0675 0.0534
vn -0.9952 -0.0649 0.0725
vn -0.6943 0.0038 -0.7197
vn -0.9979 0.0031 -0.0641
vn -0.9986 0.0019 -0.0529
vn -0.9987 -0.0008 0.0495
vn -0.9976 0.0006 0.0694
vn -0.6966 0.0580 -0.7150
vn -0.9950 0.0810 -0.0589
vn -0.9956 0.0764 -0.0534
vn -0.9967 0.0667 0.0451
vn -0.9956 0.0668 0.0658
vn -0.6971 0.1418 -0.7027
vn -0.9792 0.1966 -0.0495
vn -0.9808 0.1873 -0.0548
vn -0.9855 0.1655 0.0378
vn -0.9845 0.1646 0.0599
vn -0.6571 0.3763 -0.6531
vn -0.8750 0.4837 -0.0222
vn -0.8810 0.4697 -0.0553
vn -0.9034 0.4284 0.0160
vn -0.8987 0.4367 0.0396
vn 0.0000 0.0000 -1.0000
vn 0.0000 0.0000 1.0000
usemtl TwigWallBranches
s 1
f 37/1/1 38/2/2 4/3/3 2/4/4
f 38/2/2 43/5/5 6/6/6 4/3/3
f 43/5/5 48/7/7 8/8/8 6/6/6
f 48/7/7 53/9/9 10/10/10 8/8/8
f 53/9/9 58/11/11 12/12/12 10/10/10
f 58/11/11 63/13/13 14/14/14 12/12/12
f 63/13/13 68/15/15 16/16/16 14/14/14
f 68/15/15 73/17/17 18/18/18 16/16/16
f 73/19/17 78/20/19 20/21/20 18/22/18
f 78/20/19 83/23/21 22/24/22 20/21/20
f 83/23/21 88/25/23 24/26/24 22/24/22
f 88/25/23 93/27/25 26/28/26 24/26/24
f 93/27/25 98/29/27 28/30/28 26/28/26
f 98/29/27 103/31/29 30/32/30 28/30/28
f 103/31/29 108/33/31 32/34/32 30/32/30
f 108/33/31 37/35/1 2/36/4 32/34/32
f 31/37/33 1/38/34 33/39/35 112/40/36
f 112/40/36 33/39/35 34/41/37 111/42/38
f 111/42/38 34/41/37 35/43/39 110/44/40
f 110/44/40 35/43/39 36/45/41 109/46/42
f 109/46/42 36/45/41 37/35/1 108/33/31
f 29/47/43 31/37/33 112/40/36 107/48/44
f 107/48/44 112/40/36 111/42/38 106/49/45
f 106/49/45 111/42/38 110/44/40 105/50/46
f 105/50/46 110/44/40 109/46/42 104/51/47
f 104/51/47 109/46/42 108/33/31 103/31/29
f 27/52/48 29/47/43 107/48/44 102/53/49
f 102/53/49 107/48/44 106/49/45 101/54/50
f 101/54/50 106/49/45 105/50/46 100/55/51
f 100/55/51 105/50/46 104/51/47 99/56/52
f 99/56/52 104/51/47 103/31/29 98/29/27
f 25/57/53 27/52/48 102/53/49 97/58/54
f 97/58/54 102/53/49 101/54/50 96/59/55
f 96/59/55 101/54/50 100/55/51 95/60/56
f 95/60/56 100/55/51 99/56/52 94/61/57
f 94/61/57 99/56/52 98/29/27 93/27/25
f 23/62/58 25/57/53 97/58/54 92/63/59
f 92/63/59 97/58/54 96/59/55 91/64/60
f 91/64/60 96/59/55 95/60/56 90/65/61
f 90/65/61 95/60/56 94/61/57 89/66/62
f 89/66/62 94/61/57 93/27/25 88/25/23
f 21/67/63 23/62/58 92/63/59 87/68/64
f 87/68/64 92/63/59 91/64/60 86/69/65
f 86/69/65 91/64/60 90/65/61 85/70/66
f 85/70/66 90/65/61 89/66/62 84/71/67
f 84/71/67 89/66/62 88/25/23 83/23/21
f 19/72/68 21/67/63 87/68/64 82/73/69
f 82/73/69 87/68/64 86/69/65 81/74/70
f 81/74/70 86/69/65 85/70/66 80/75/71
f 80/75/71 85/70/66 84/71/67 79/76/72
f 79/76/72 84/71/67 83/23/21 78/20/19
f 17/77/73 19/72/68 82/73/69 77/78/74
f 77/78/74 82/73/69 81/74/70 76/79/75
f 76/79/75 81/74/70 80/75/71 75/80/76
f 75/80/76 80/75/71 79/76/72 74/81/77
f 74/81/77 79/76/72 78/20/19 73/19/17
f 15/82/78 17/83/73 77/84/74 72/85/79
f 72/85/79 77/84/74 76/86/75 71/87/80
f 71/87/80 76/86/75 75/88/76 70/89/81
f 70/89/81 75/88/76 74/90/77 69/91/82
f 69/91/82 74/90/77 73/17/17 68/15/15
f 13/92/83 15/82/78 72/85/79 67/93/84
f 67/93/84 72/85/79 71/87/80 66/94/85
f 66/94/85 71/87/80 70/89/81 65/95/86
f 65/95/86 70/89/81 69/91/82 64/96/87
f 64/96/87 69/91/82 68/15/15 63/13/13
f 11/97/88 13/92/83 67/93/84 62/98/89
f 62/98/89 67/93/84 66/94/85 61/99/90
f 61/99/90 66/94/85 65/95/86 60/100/91
f 60/100/91 65/95/86 64/96/87 59/101/92
f 59/101/92 64/96/87 63/13/13 58/11/11
f 9/102/93 11/97/88 62/98/89 57/103/94
f 57/103/94 62/98/89 61/99/90 56/104/95
f 56/104/95 61/99/90 60/100/91 55/105/96
f 55/105/96 60/100/91 59/101/92 54/106/97
f 54/106/97 59/101/92 58/11/11 53/9/9
f 7/107/98 9/102/93 57/103/94 52/108/99
f 52/108/99 57/103/94 56/104/95 51/109/100
f 51/109/100 56/104/95 55/105/96 50/110/101
f 50/110/101 55/105/96 54/106/97 49/111/102
f 49/111/102 54/106/97 53/9/9 48/7/7
f 5/112/103 7/107/98 52/108/99 47/113/104
f 47/113/104 52/108/99 51/109/100 46/114/105
f 46/114/105 51/109/100 50/110/101 45/115/106
f 45/115/106 50/110/101 49/111/102 44/116/107
f 44/116/107 49/111/102 48/7/7 43/5/5
f 3/117/108 5/112/103 47/113/104 42/118/109
f 42/118/109 47/113/104 46/114/105 41/119/110
f 41/119/110 46/114/105 45/115/106 40/120/111
f 40/120/111 45/115/106 44/116/107 39/121/112
f 39/121/112 44/116/107 43/5/5 38/2/2
f 1/122/34 3/117/108 42/118/109 33/123/35
f 33/123/35 42/118/109 41/119/110 34/124/37
f 34/124/37 41/119/110 40/120/111 35/125/39
f 35/125/39 40/120/111 39/121/112 36/126/41
f 36/126/41 39/121/112 38/2/2 37/1/1
f 5/127/103 3/128/108 113/129/113
f 15/130/78 13/131/83 113/129/113
f 25/132/53 23/133/58 113/129/113
f 11/134/88 9/135/93 113/129/113
f 21/136/63 19/137/68 113/129/113
f 31/138/33 29/139/43 113/129/113
f 7/140/98 5/127/103 113/129/113
f 17/141/73 15/130/78 113/129/113
f 3/128/108 1/142/34 113/129/113
f 27/143/48 25/132/53 113/129/113
f 13/131/83 11/134/88 113/129/113
f 23/133/58 21/136/63 113/129/113
f 1/142/34 31/138/33 113/129/113
f 9/135/93 7/140/98 113/129/113
f 19/137/68 17/141/73 113/129/113
f 29/139/43 27/143/48 113/129/113
f 8/144/8 10/145/10 114/146/114
f 18/147/18 20/148/20 114/146/114
f 28/149/28 30/150/30 114/146/114
f 4/151/3 6/152/6 114/146/114
f 14/153/14 16/154/16 114/146/114
f 24/155/24 26/156/26 114/146/114
f 10/145/10 12/157/12 114/146/114
f 20/148/20 22/158/22 114/146/114
f 30/150/30 32/159/32 114/146/114
f 6/152/6 8/144/8 114/146/114
f 16/154/16 18/147/18 114/146/114
f 26/156/26 28/149/28 114/146/114
f 2/160/4 4/151/3 114/146/114
f 12/157/12 14/153/14 114/146/114
f 22/158/22 24/155/24 114/146/114
f 32/159/32 2/160/4 114/146/114
