# Blender v2.77 (sub 0) OBJ File: 'TwigWall.blend'
# www.blender.org
mtllib Pole.mtl
g Pole
v 0.118688 0.000000 -0.143007
v 0.143007 -0.000000 -0.118688
v 0.143007 0.000000 0.118688
v 0.118688 -0.000000 0.143007
v -0.118688 0.000000 0.143007
v -0.143007 -0.000000 0.118688
v -0.143007 0.000000 -0.118688
v -0.118688 0.000000 -0.143007
v 0.130814 4.200205 -0.113638
v 0.143007 4.188012 -0.118688
v 0.113638 4.200205 -0.130813
v 0.118688 4.188012 -0.143007
v 0.113638 4.200205 0.130814
v 0.118688 4.188012 0.143007
v 0.130813 4.200205 0.113638
v 0.143007 4.188012 0.118688
v -0.130814 4.200205 0.113638
v -0.143007 4.188012 0.118688
v -0.113638 4.200205 0.130814
v -0.118688 4.188012 0.143007
v -0.113638 4.200205 -0.130813
v -0.118688 4.188012 -0.143007
v -0.130814 4.200205 -0.113638
v -0.143007 4.188012 -0.118688
v 0.143007 -0.000000 -0.118688
v 0.143007 -0.000000 -0.118688
v 0.118688 0.000000 -0.143007
v 0.118688 0.000000 -0.143007
v 0.118688 -0.000000 0.143007
v 0.118688 -0.000000 0.143007
v 0.143007 0.000000 0.118688
v 0.143007 0.000000 0.118688
v -0.143007 -0.000000 0.118688
v -0.143007 -0.000000 0.118688
v -0.118688 0.000000 0.143007
v -0.118688 0.000000 0.143007
v -0.118688 0.000000 -0.143007
v -0.118688 0.000000 -0.143007
v -0.143007 0.000000 -0.118688
v -0.143007 0.000000 -0.118688
v 0.113638 4.200205 -0.130813
v 0.130814 4.200205 -0.113638
v 0.143007 4.188012 -0.118688
v 0.143007 4.188012 -0.118688
v 0.118688 4.188012 -0.143007
v 0.118688 4.188012 -0.143007
v 0.130813 4.200205 0.113638
v 0.113638 4.200205 0.130814
v 0.118688 4.188012 0.143007
v 0.118688 4.188012 0.143007
v 0.143007 4.188012 0.118688
v 0.143007 4.188012 0.118688
v -0.113638 4.200205 0.130814
v -0.130814 4.200205 0.113638
v -0.143007 4.188012 0.118688
v -0.143007 4.188012 0.118688
v -0.118688 4.188012 0.143007
v -0.118688 4.188012 0.143007
v -0.130814 4.200205 -0.113638
v -0.113638 4.200205 -0.130813
v -0.118688 4.188012 -0.143007
v -0.118688 4.188012 -0.143007
v -0.143007 4.188012 -0.118688
v -0.143007 4.188012 -0.118688
vt 0.0681 0.0000
vt 0.0681 0.9971
vt 0.0623 0.9971
vt 0.0623 0.0000
vt 0.0058 0.0000
vt 0.0058 0.9971
vt 0.0000 0.9971
vt 0.0000 0.0000
vt 0.0739 0.0000
vt 0.0739 0.9971
vt 0.0681 0.9971
vt 0.0681 0.0000
vt 0.1362 1.0000
vt 0.1362 0.0029
vt 0.1420 0.0029
vt 0.1420 1.0000
vt 0.2608 0.0526
vt 0.2608 0.6777
vt 0.2043 0.6777
vt 0.2043 0.0526
vt 0.1420 1.0000
vt 0.1420 0.0029
vt 0.1985 0.0029
vt 0.1985 1.0000
vt 0.0623 0.0000
vt 0.0623 0.9971
vt 0.0058 0.9971
vt 0.0058 0.0000
vt 0.1304 0.0000
vt 0.1304 0.9971
vt 0.0739 0.9971
vt 0.0739 0.0000
vt 0.2724 0.0681
vt 0.2666 0.0623
vt 0.2666 0.0058
vt 0.2724 0.0000
vt 0.3289 0.0000
vt 0.3347 0.0058
vt 0.3347 0.0623
vt 0.3289 0.0681
vt 0.2596 0.0485
vt 0.2637 0.0453
vt 0.2666 0.0481
vt 0.2608 0.0526
vt 0.0652 1.0000
vt 0.0611 1.0000
vt 0.0623 0.9971
vt 0.0681 0.9971
vt 0.1333 1.0000
vt 0.1292 1.0000
vt 0.1304 0.9971
vt 0.1362 0.9971
vt 0.2014 0.0453
vt 0.2055 0.0485
vt 0.2043 0.0526
vt 0.1985 0.0481
vt 0.1432 0.0000
vt 0.1973 0.0000
vt 0.1985 0.0029
vt 0.1420 0.0029
vt 0.0070 1.0000
vt 0.0058 0.9971
vt 0.0751 1.0000
vt 0.0739 0.9971
vt 0.2637 0.0453
vt 0.2596 0.0485
vt 0.2055 0.0485
vt 0.2014 0.0453
vt 0.2014 0.0032
vt 0.2055 0.0000
vt 0.2596 0.0000
vt 0.2637 0.0032
vn 0.7071 0.0000 0.7071
vn -0.7071 0.0000 0.7071
vn -0.7071 0.0000 -0.7071
vn 0.7071 0.0000 -0.7071
vn 0.0000 0.0000 -1.0000
vn 1.0000 0.0000 0.0000
vn 0.0000 0.0000 1.0000
vn -1.0000 0.0000 0.0000
vn 0.0000 -1.0000 0.0000
vn 0.2597 0.7345 -0.6269
vn 0.6269 0.7345 -0.2597
vn 0.6269 0.7345 0.2597
vn 0.2597 0.7345 0.6269
vn -0.2597 0.7345 0.6269
vn -0.6269 0.7345 0.2597
vn -0.6269 0.7345 -0.2597
vn -0.2597 0.7345 -0.6269
vn 0.0000 1.0000 0.0000
usemtl TwigWallPole
s 1
f 31/1/1 52/2/1 50/3/1 29/4/1
f 35/5/2 58/6/2 56/7/2 33/8/2
f 39/9/3 64/10/3 62/11/3 37/12/3
f 27/13/4 46/14/4 44/15/4 25/16/4
f 12/17/5 28/18/5 38/19/5 22/20/5
f 26/21/6 10/22/6 16/23/6 32/24/6
f 30/25/7 14/26/7 20/27/7 36/28/7
f 34/29/8 18/30/8 24/31/8 40/32/8
f 1/33/9 2/34/9 3/35/9 4/36/9 5/37/9 6/38/9 7/39/9 8/40/9
f 41/41/10 42/42/11 43/43/11 45/44/10
f 47/45/12 48/46/13 49/47/13 51/48/12
f 53/49/14 54/50/15 55/51/15 57/52/14
f 59/53/16 60/54/17 61/55/17 63/56/16
f 60/54/17 41/41/10 45/44/10 61/55/17
f 42/57/11 47/58/12 51/59/12 43/60/11
f 48/46/13 53/61/14 57/62/14 49/47/13
f 54/50/15 59/63/16 63/64/16 55/51/15
f 9/65/18 11/66/18 21/67/18 23/68/18 17/69/18 19/70/18 13/71/18 15/72/18
